<svg xmlns="http://www.w3.org/2000/svg" xmlns:xlink="http://www.w3.org/1999/xlink" width="100" zoomAndPan="magnify" viewBox="0 0 75 74.999997" height="100" preserveAspectRatio="xMidYMid meet" version="1.0"><defs><clipPath id="ce1e1a0a90"><path d="M 0.710938 0.710938 L 74.210938 0.710938 L 74.210938 74.210938 L 0.710938 74.210938 Z M 0.710938 0.710938 " clip-rule="nonzero"/></clipPath></defs><rect x="-7.5" width="90" fill="#ffffff" y="-7.5" height="89.999996" fill-opacity="1"/><rect x="-7.5" width="90" fill="#ffffff" y="-7.5" height="89.999996" fill-opacity="1"/><rect x="-7.5" width="90" fill="#ffffff" y="-7.5" height="89.999996" fill-opacity="1"/><g clip-path="url(#ce1e1a0a90)"><path fill="#ffcc4d" d="M 74.210938 37.460938 C 74.210938 57.757812 57.757812 74.210938 37.460938 74.210938 C 17.167969 74.210938 0.710938 57.757812 0.710938 37.460938 C 0.710938 17.167969 17.167969 0.710938 37.460938 0.710938 C 57.757812 0.710938 74.210938 17.167969 74.210938 37.460938 " fill-opacity="1" fill-rule="nonzero"/></g><path fill="#664500" d="M 29.296875 34.398438 C 29.296875 34.871094 29.261719 35.332031 29.199219 35.792969 C 29.132812 36.253906 29.035156 36.699219 28.90625 37.132812 C 28.777344 37.566406 28.621094 37.980469 28.4375 38.371094 C 28.25 38.761719 28.039062 39.121094 27.800781 39.453125 C 27.5625 39.785156 27.304688 40.082031 27.027344 40.339844 C 26.75 40.601562 26.453125 40.824219 26.144531 41 C 25.835938 41.179688 25.515625 41.316406 25.1875 41.410156 C 24.859375 41.5 24.527344 41.546875 24.191406 41.546875 C 23.855469 41.546875 23.523438 41.5 23.195312 41.410156 C 22.867188 41.316406 22.546875 41.179688 22.238281 41 C 21.929688 40.824219 21.632812 40.601562 21.355469 40.339844 C 21.078125 40.082031 20.820312 39.785156 20.582031 39.453125 C 20.34375 39.121094 20.132812 38.761719 19.949219 38.371094 C 19.761719 37.980469 19.605469 37.566406 19.476562 37.132812 C 19.347656 36.699219 19.25 36.253906 19.1875 35.792969 C 19.121094 35.332031 19.085938 34.871094 19.085938 34.398438 C 19.085938 33.929688 19.121094 33.464844 19.1875 33.007812 C 19.25 32.546875 19.347656 32.097656 19.476562 31.664062 C 19.605469 31.230469 19.761719 30.820312 19.949219 30.429688 C 20.132812 30.039062 20.34375 29.679688 20.582031 29.347656 C 20.820312 29.015625 21.078125 28.71875 21.355469 28.457031 C 21.632812 28.199219 21.929688 27.976562 22.238281 27.796875 C 22.546875 27.617188 22.867188 27.484375 23.195312 27.390625 C 23.523438 27.300781 23.855469 27.253906 24.191406 27.253906 C 24.527344 27.253906 24.859375 27.300781 25.1875 27.390625 C 25.515625 27.484375 25.835938 27.617188 26.144531 27.796875 C 26.453125 27.976562 26.75 28.199219 27.027344 28.457031 C 27.304688 28.71875 27.5625 29.015625 27.800781 29.347656 C 28.039062 29.679688 28.25 30.039062 28.4375 30.429688 C 28.621094 30.820312 28.777344 31.230469 28.90625 31.664062 C 29.035156 32.097656 29.132812 32.546875 29.199219 33.007812 C 29.261719 33.464844 29.296875 33.929688 29.296875 34.398438 Z M 29.296875 34.398438 " fill-opacity="1" fill-rule="nonzero"/><path fill="#664500" d="M 58.8125 37.046875 C 58.691406 36.773438 55.75 30.316406 49.710938 30.316406 C 43.675781 30.316406 40.734375 36.773438 40.613281 37.046875 C 40.425781 37.46875 40.546875 37.964844 40.910156 38.253906 C 41.265625 38.542969 41.777344 38.554688 42.152344 38.285156 C 42.179688 38.265625 44.730469 36.441406 49.710938 36.441406 C 54.664062 36.441406 57.214844 38.242188 57.269531 38.28125 C 57.449219 38.414062 57.667969 38.484375 57.878906 38.484375 C 58.105469 38.484375 58.332031 38.40625 58.515625 38.261719 C 58.878906 37.972656 59.003906 37.472656 58.8125 37.046875 Z M 12.960938 26.148438 C 12.535156 26.148438 12.105469 26.015625 11.738281 25.738281 C 10.835938 25.0625 10.652344 23.785156 11.328125 22.882812 C 17.988281 14 26.878906 13.898438 27.253906 13.898438 C 28.382812 13.898438 29.296875 14.8125 29.296875 15.9375 C 29.296875 17.0625 28.386719 17.976562 27.261719 17.980469 C 26.945312 17.984375 19.976562 18.15625 14.59375 25.332031 C 14.195312 25.867188 13.582031 26.148438 12.960938 26.148438 Z M 59.921875 30.484375 C 59.300781 30.484375 58.691406 30.203125 58.289062 29.667969 C 52.996094 22.613281 44.074219 24.304688 43.988281 24.320312 C 42.871094 24.539062 41.808594 23.824219 41.585938 22.71875 C 41.363281 21.613281 42.082031 20.539062 43.183594 20.316406 C 43.65625 20.21875 54.734375 18.128906 61.550781 27.21875 C 62.230469 28.121094 62.046875 29.398438 61.144531 30.074219 C 60.777344 30.355469 60.347656 30.484375 59.921875 30.484375 Z M 48.1875 48.847656 C 47.804688 48.625 47.308594 48.671875 46.96875 48.972656 C 46.949219 48.988281 44.902344 50.734375 37.460938 50.734375 C 30.027344 50.734375 27.976562 48.988281 27.976562 48.988281 C 27.652344 48.664062 27.152344 48.601562 26.75 48.824219 C 26.355469 49.050781 26.152344 49.515625 26.265625 49.960938 C 26.285156 50.050781 28.601562 58.898438 37.460938 58.898438 C 46.324219 58.898438 48.636719 50.050781 48.660156 49.960938 C 48.769531 49.523438 48.570312 49.078125 48.1875 48.847656 Z M 48.1875 48.847656 " fill-opacity="1" fill-rule="nonzero"/></svg>