<svg xmlns="http://www.w3.org/2000/svg" xmlns:xlink="http://www.w3.org/1999/xlink" width="100" zoomAndPan="magnify" viewBox="0 0 75 74.999997" height="100" preserveAspectRatio="xMidYMid meet" version="1.0"><defs><clipPath id="f95d6a8be4"><path d="M 0 17.726562 L 75 17.726562 L 75 57.476562 L 0 57.476562 Z M 0 17.726562 " clip-rule="nonzero"/></clipPath><clipPath id="ae10999e0f"><path d="M 75 37.601562 C 75 38.25 74.941406 38.898438 74.820312 39.546875 C 74.699219 40.191406 74.519531 40.832031 74.28125 41.46875 C 74.039062 42.105469 73.742188 42.734375 73.386719 43.355469 C 73.027344 43.976562 72.617188 44.589844 72.144531 45.1875 C 71.675781 45.789062 71.152344 46.375 70.570312 46.945312 C 69.992188 47.519531 69.363281 48.074219 68.679688 48.613281 C 67.996094 49.15625 67.265625 49.675781 66.488281 50.175781 C 65.707031 50.679688 64.886719 51.160156 64.015625 51.617188 C 63.148438 52.078125 62.238281 52.511719 61.289062 52.925781 C 60.339844 53.335938 59.355469 53.722656 58.332031 54.082031 C 57.3125 54.445312 56.261719 54.777344 55.175781 55.082031 C 54.09375 55.390625 52.984375 55.667969 51.851562 55.914062 C 50.714844 56.164062 49.5625 56.382812 48.386719 56.570312 C 47.210938 56.757812 46.019531 56.917969 44.816406 57.042969 C 43.609375 57.171875 42.398438 57.265625 41.175781 57.328125 C 39.953125 57.390625 38.726562 57.425781 37.5 57.425781 C 36.273438 57.425781 35.046875 57.390625 33.824219 57.328125 C 32.601562 57.265625 31.390625 57.171875 30.183594 57.042969 C 28.980469 56.917969 27.789062 56.757812 26.613281 56.570312 C 25.4375 56.382812 24.285156 56.164062 23.148438 55.914062 C 22.015625 55.667969 20.90625 55.390625 19.824219 55.082031 C 18.738281 54.777344 17.6875 54.445312 16.667969 54.082031 C 15.644531 53.722656 14.660156 53.335938 13.710938 52.925781 C 12.761719 52.511719 11.851562 52.078125 10.984375 51.617188 C 10.113281 51.160156 9.292969 50.679688 8.511719 50.175781 C 7.734375 49.675781 7.003906 49.15625 6.320312 48.613281 C 5.636719 48.074219 5.007812 47.519531 4.429688 46.945312 C 3.847656 46.375 3.324219 45.789062 2.855469 45.1875 C 2.382812 44.589844 1.972656 43.976562 1.613281 43.355469 C 1.257812 42.734375 0.960938 42.105469 0.71875 41.46875 C 0.480469 40.832031 0.300781 40.191406 0.179688 39.546875 C 0.0585938 38.898438 0 38.25 0 37.601562 C 0 36.953125 0.0585938 36.304688 0.179688 35.660156 C 0.300781 35.011719 0.480469 34.371094 0.71875 33.734375 C 0.960938 33.097656 1.257812 32.46875 1.613281 31.847656 C 1.972656 31.226562 2.382812 30.617188 2.855469 30.015625 C 3.324219 29.417969 3.847656 28.832031 4.429688 28.257812 C 5.007812 27.6875 5.636719 27.128906 6.320312 26.589844 C 7.003906 26.050781 7.734375 25.527344 8.511719 25.027344 C 9.292969 24.527344 10.113281 24.046875 10.984375 23.585938 C 11.851562 23.128906 12.761719 22.691406 13.710938 22.28125 C 14.660156 21.867188 15.644531 21.480469 16.667969 21.121094 C 17.6875 20.761719 18.738281 20.425781 19.824219 20.121094 C 20.90625 19.816406 22.015625 19.539062 23.148438 19.289062 C 24.285156 19.039062 25.4375 18.824219 26.613281 18.632812 C 27.789062 18.445312 28.980469 18.289062 30.183594 18.160156 C 31.390625 18.035156 32.601562 17.9375 33.824219 17.875 C 35.046875 17.8125 36.273438 17.78125 37.5 17.78125 C 38.726562 17.78125 39.953125 17.8125 41.175781 17.875 C 42.398438 17.9375 43.609375 18.035156 44.816406 18.160156 C 46.019531 18.289062 47.210938 18.445312 48.386719 18.632812 C 49.5625 18.824219 50.714844 19.039062 51.851562 19.289062 C 52.984375 19.539062 54.09375 19.816406 55.175781 20.121094 C 56.261719 20.425781 57.3125 20.761719 58.332031 21.121094 C 59.355469 21.480469 60.339844 21.867188 61.289062 22.28125 C 62.238281 22.691406 63.148438 23.128906 64.015625 23.585938 C 64.886719 24.046875 65.707031 24.527344 66.488281 25.027344 C 67.265625 25.527344 67.996094 26.050781 68.679688 26.589844 C 69.363281 27.128906 69.992188 27.6875 70.570312 28.257812 C 71.152344 28.832031 71.675781 29.417969 72.144531 30.015625 C 72.617188 30.617188 73.027344 31.226562 73.386719 31.847656 C 73.742188 32.46875 74.039062 33.097656 74.28125 33.734375 C 74.519531 34.371094 74.699219 35.011719 74.820312 35.660156 C 74.941406 36.304688 75 36.953125 75 37.601562 Z M 75 37.601562 " clip-rule="nonzero"/></clipPath><radialGradient gradientTransform="matrix(0.99734, 0, 0, 1.00266, 22.401563, 41.907735)" gradientUnits="userSpaceOnUse" r="49.378465" cx="0.113783" id="b1b4aa413d" cy="-17.110959" fx="0.113783" fy="-17.110959"><stop stop-opacity="1" stop-color="rgb(99.725342%, 99.772644%, 99.839783%)" offset="0"/><stop stop-opacity="1" stop-color="rgb(99.176025%, 99.319458%, 99.520874%)" offset="0.00390625"/><stop stop-opacity="1" stop-color="rgb(98.628235%, 98.866272%, 99.201965%)" offset="0.0078125"/><stop stop-opacity="1" stop-color="rgb(98.078918%, 98.413086%, 98.883057%)" offset="0.0117188"/><stop stop-opacity="1" stop-color="rgb(97.531128%, 97.9599%, 98.564148%)" offset="0.015625"/><stop stop-opacity="1" stop-color="rgb(96.981812%, 97.506714%, 98.245239%)" offset="0.0195312"/><stop stop-opacity="1" stop-color="rgb(96.434021%, 97.053528%, 97.926331%)" offset="0.0234375"/><stop stop-opacity="1" stop-color="rgb(95.88623%, 96.600342%, 97.607422%)" offset="0.0273438"/><stop stop-opacity="1" stop-color="rgb(95.336914%, 96.147156%, 97.288513%)" offset="0.03125"/><stop stop-opacity="1" stop-color="rgb(94.789124%, 95.69397%, 96.97113%)" offset="0.0351562"/><stop stop-opacity="1" stop-color="rgb(94.239807%, 95.240784%, 96.652222%)" offset="0.0390625"/><stop stop-opacity="1" stop-color="rgb(93.692017%, 94.787598%, 96.333313%)" offset="0.0429688"/><stop stop-opacity="1" stop-color="rgb(93.1427%, 94.334412%, 96.014404%)" offset="0.046875"/><stop stop-opacity="1" stop-color="rgb(92.59491%, 93.881226%, 95.695496%)" offset="0.0507812"/><stop stop-opacity="1" stop-color="rgb(92.047119%, 93.42804%, 95.376587%)" offset="0.0546875"/><stop stop-opacity="1" stop-color="rgb(91.497803%, 92.974854%, 95.057678%)" offset="0.0585938"/><stop stop-opacity="1" stop-color="rgb(90.950012%, 92.521667%, 94.73877%)" offset="0.0625"/><stop stop-opacity="1" stop-color="rgb(90.400696%, 92.068481%, 94.419861%)" offset="0.0664062"/><stop stop-opacity="1" stop-color="rgb(89.852905%, 91.615295%, 94.100952%)" offset="0.0703125"/><stop stop-opacity="1" stop-color="rgb(89.303589%, 91.162109%, 93.783569%)" offset="0.0742188"/><stop stop-opacity="1" stop-color="rgb(88.755798%, 90.708923%, 93.464661%)" offset="0.078125"/><stop stop-opacity="1" stop-color="rgb(88.208008%, 90.255737%, 93.145752%)" offset="0.0820312"/><stop stop-opacity="1" stop-color="rgb(87.658691%, 89.802551%, 92.826843%)" offset="0.0859375"/><stop stop-opacity="1" stop-color="rgb(87.110901%, 89.349365%, 92.507935%)" offset="0.0898438"/><stop stop-opacity="1" stop-color="rgb(86.561584%, 88.897705%, 92.189026%)" offset="0.09375"/><stop stop-opacity="1" stop-color="rgb(86.013794%, 88.444519%, 91.870117%)" offset="0.0976562"/><stop stop-opacity="1" stop-color="rgb(85.464478%, 87.991333%, 91.551208%)" offset="0.101562"/><stop stop-opacity="1" stop-color="rgb(84.916687%, 87.538147%, 91.2323%)" offset="0.105469"/><stop stop-opacity="1" stop-color="rgb(84.368896%, 87.084961%, 90.914917%)" offset="0.109375"/><stop stop-opacity="1" stop-color="rgb(83.81958%, 86.631775%, 90.596008%)" offset="0.113281"/><stop stop-opacity="1" stop-color="rgb(83.27179%, 86.178589%, 90.2771%)" offset="0.117188"/><stop stop-opacity="1" stop-color="rgb(82.722473%, 85.725403%, 89.958191%)" offset="0.121094"/><stop stop-opacity="1" stop-color="rgb(82.174683%, 85.272217%, 89.639282%)" offset="0.125"/><stop stop-opacity="1" stop-color="rgb(81.626892%, 84.819031%, 89.320374%)" offset="0.128906"/><stop stop-opacity="1" stop-color="rgb(81.077576%, 84.365845%, 89.001465%)" offset="0.132812"/><stop stop-opacity="1" stop-color="rgb(80.529785%, 83.912659%, 88.682556%)" offset="0.136719"/><stop stop-opacity="1" stop-color="rgb(79.980469%, 83.459473%, 88.363647%)" offset="0.140625"/><stop stop-opacity="1" stop-color="rgb(79.432678%, 83.006287%, 88.044739%)" offset="0.144531"/><stop stop-opacity="1" stop-color="rgb(78.883362%, 82.553101%, 87.727356%)" offset="0.148438"/><stop stop-opacity="1" stop-color="rgb(78.335571%, 82.099915%, 87.408447%)" offset="0.152344"/><stop stop-opacity="1" stop-color="rgb(77.787781%, 81.646729%, 87.089539%)" offset="0.15625"/><stop stop-opacity="1" stop-color="rgb(77.238464%, 81.193542%, 86.77063%)" offset="0.160156"/><stop stop-opacity="1" stop-color="rgb(76.690674%, 80.740356%, 86.451721%)" offset="0.164062"/><stop stop-opacity="1" stop-color="rgb(76.141357%, 80.28717%, 86.132812%)" offset="0.167969"/><stop stop-opacity="1" stop-color="rgb(75.593567%, 79.833984%, 85.813904%)" offset="0.171875"/><stop stop-opacity="1" stop-color="rgb(75.04425%, 79.380798%, 85.494995%)" offset="0.175781"/><stop stop-opacity="1" stop-color="rgb(74.49646%, 78.927612%, 85.176086%)" offset="0.179688"/><stop stop-opacity="1" stop-color="rgb(73.948669%, 78.474426%, 84.857178%)" offset="0.183594"/><stop stop-opacity="1" stop-color="rgb(73.399353%, 78.02124%, 84.539795%)" offset="0.1875"/><stop stop-opacity="1" stop-color="rgb(72.851562%, 77.56958%, 84.220886%)" offset="0.191406"/><stop stop-opacity="1" stop-color="rgb(72.302246%, 77.116394%, 83.901978%)" offset="0.195312"/><stop stop-opacity="1" stop-color="rgb(71.754456%, 76.663208%, 83.583069%)" offset="0.199219"/><stop stop-opacity="1" stop-color="rgb(71.205139%, 76.210022%, 83.26416%)" offset="0.203125"/><stop stop-opacity="1" stop-color="rgb(70.657349%, 75.756836%, 82.945251%)" offset="0.207031"/><stop stop-opacity="1" stop-color="rgb(70.109558%, 75.30365%, 82.626343%)" offset="0.210938"/><stop stop-opacity="1" stop-color="rgb(69.560242%, 74.850464%, 82.307434%)" offset="0.214844"/><stop stop-opacity="1" stop-color="rgb(69.012451%, 74.397278%, 81.988525%)" offset="0.21875"/><stop stop-opacity="1" stop-color="rgb(68.463135%, 73.944092%, 81.671143%)" offset="0.222656"/><stop stop-opacity="1" stop-color="rgb(67.915344%, 73.490906%, 81.352234%)" offset="0.226562"/><stop stop-opacity="1" stop-color="rgb(67.366028%, 73.03772%, 81.033325%)" offset="0.230469"/><stop stop-opacity="1" stop-color="rgb(66.818237%, 72.584534%, 80.714417%)" offset="0.234375"/><stop stop-opacity="1" stop-color="rgb(66.270447%, 72.131348%, 80.395508%)" offset="0.238281"/><stop stop-opacity="1" stop-color="rgb(65.72113%, 71.678162%, 80.076599%)" offset="0.242188"/><stop stop-opacity="1" stop-color="rgb(65.17334%, 71.224976%, 79.75769%)" offset="0.246094"/><stop stop-opacity="1" stop-color="rgb(64.624023%, 70.77179%, 79.438782%)" offset="0.25"/><stop stop-opacity="1" stop-color="rgb(64.076233%, 70.318604%, 79.119873%)" offset="0.253906"/><stop stop-opacity="1" stop-color="rgb(63.528442%, 69.865417%, 78.800964%)" offset="0.257812"/><stop stop-opacity="1" stop-color="rgb(62.979126%, 69.412231%, 78.483582%)" offset="0.261719"/><stop stop-opacity="1" stop-color="rgb(62.431335%, 68.959045%, 78.164673%)" offset="0.265625"/><stop stop-opacity="1" stop-color="rgb(61.882019%, 68.505859%, 77.845764%)" offset="0.269531"/><stop stop-opacity="1" stop-color="rgb(61.334229%, 68.052673%, 77.526855%)" offset="0.273438"/><stop stop-opacity="1" stop-color="rgb(60.784912%, 67.599487%, 77.207947%)" offset="0.277344"/><stop stop-opacity="1" stop-color="rgb(60.237122%, 67.146301%, 76.889038%)" offset="0.28125"/><stop stop-opacity="1" stop-color="rgb(59.689331%, 66.693115%, 76.570129%)" offset="0.285156"/><stop stop-opacity="1" stop-color="rgb(59.140015%, 66.241455%, 76.251221%)" offset="0.289062"/><stop stop-opacity="1" stop-color="rgb(58.592224%, 65.788269%, 75.932312%)" offset="0.292969"/><stop stop-opacity="1" stop-color="rgb(58.042908%, 65.335083%, 75.614929%)" offset="0.296875"/><stop stop-opacity="1" stop-color="rgb(57.495117%, 64.881897%, 75.296021%)" offset="0.300781"/><stop stop-opacity="1" stop-color="rgb(56.945801%, 64.428711%, 74.977112%)" offset="0.304688"/><stop stop-opacity="1" stop-color="rgb(56.39801%, 63.975525%, 74.658203%)" offset="0.308594"/><stop stop-opacity="1" stop-color="rgb(55.85022%, 63.522339%, 74.339294%)" offset="0.3125"/><stop stop-opacity="1" stop-color="rgb(55.300903%, 63.069153%, 74.020386%)" offset="0.316406"/><stop stop-opacity="1" stop-color="rgb(54.753113%, 62.615967%, 73.701477%)" offset="0.320312"/><stop stop-opacity="1" stop-color="rgb(54.203796%, 62.162781%, 73.382568%)" offset="0.324219"/><stop stop-opacity="1" stop-color="rgb(53.656006%, 61.709595%, 73.06366%)" offset="0.328125"/><stop stop-opacity="1" stop-color="rgb(53.106689%, 61.256409%, 72.744751%)" offset="0.332031"/><stop stop-opacity="1" stop-color="rgb(52.558899%, 60.803223%, 72.427368%)" offset="0.335938"/><stop stop-opacity="1" stop-color="rgb(52.011108%, 60.350037%, 72.108459%)" offset="0.339844"/><stop stop-opacity="1" stop-color="rgb(51.461792%, 59.896851%, 71.789551%)" offset="0.34375"/><stop stop-opacity="1" stop-color="rgb(50.914001%, 59.443665%, 71.470642%)" offset="0.347656"/><stop stop-opacity="1" stop-color="rgb(50.364685%, 58.990479%, 71.151733%)" offset="0.351562"/><stop stop-opacity="1" stop-color="rgb(49.816895%, 58.537292%, 70.832825%)" offset="0.355469"/><stop stop-opacity="1" stop-color="rgb(49.267578%, 58.084106%, 70.513916%)" offset="0.359375"/><stop stop-opacity="1" stop-color="rgb(48.719788%, 57.63092%, 70.195007%)" offset="0.363281"/><stop stop-opacity="1" stop-color="rgb(48.171997%, 57.177734%, 69.876099%)" offset="0.367188"/><stop stop-opacity="1" stop-color="rgb(47.622681%, 56.724548%, 69.55719%)" offset="0.371094"/><stop stop-opacity="1" stop-color="rgb(47.07489%, 56.271362%, 69.239807%)" offset="0.375"/><stop stop-opacity="1" stop-color="rgb(46.525574%, 55.818176%, 68.920898%)" offset="0.378906"/><stop stop-opacity="1" stop-color="rgb(45.977783%, 55.36499%, 68.60199%)" offset="0.382812"/><stop stop-opacity="1" stop-color="rgb(45.429993%, 54.91333%, 68.283081%)" offset="0.386719"/><stop stop-opacity="1" stop-color="rgb(44.880676%, 54.460144%, 67.964172%)" offset="0.390625"/><stop stop-opacity="1" stop-color="rgb(44.332886%, 54.006958%, 67.645264%)" offset="0.394531"/><stop stop-opacity="1" stop-color="rgb(43.783569%, 53.553772%, 67.326355%)" offset="0.398438"/><stop stop-opacity="1" stop-color="rgb(43.235779%, 53.100586%, 67.007446%)" offset="0.402344"/><stop stop-opacity="1" stop-color="rgb(42.686462%, 52.6474%, 66.688538%)" offset="0.40625"/><stop stop-opacity="1" stop-color="rgb(42.138672%, 52.194214%, 66.371155%)" offset="0.410156"/><stop stop-opacity="1" stop-color="rgb(41.590881%, 51.741028%, 66.052246%)" offset="0.414062"/><stop stop-opacity="1" stop-color="rgb(41.041565%, 51.287842%, 65.733337%)" offset="0.417969"/><stop stop-opacity="1" stop-color="rgb(40.493774%, 50.834656%, 65.414429%)" offset="0.421875"/><stop stop-opacity="1" stop-color="rgb(39.944458%, 50.38147%, 65.09552%)" offset="0.425781"/><stop stop-opacity="1" stop-color="rgb(39.396667%, 49.928284%, 64.776611%)" offset="0.429688"/><stop stop-opacity="1" stop-color="rgb(38.847351%, 49.475098%, 64.457703%)" offset="0.433594"/><stop stop-opacity="1" stop-color="rgb(38.299561%, 49.021912%, 64.138794%)" offset="0.4375"/><stop stop-opacity="1" stop-color="rgb(37.75177%, 48.568726%, 63.819885%)" offset="0.441406"/><stop stop-opacity="1" stop-color="rgb(37.202454%, 48.11554%, 63.500977%)" offset="0.445312"/><stop stop-opacity="1" stop-color="rgb(36.654663%, 47.662354%, 63.183594%)" offset="0.449219"/><stop stop-opacity="1" stop-color="rgb(36.105347%, 47.209167%, 62.864685%)" offset="0.453125"/><stop stop-opacity="1" stop-color="rgb(35.557556%, 46.755981%, 62.545776%)" offset="0.457031"/><stop stop-opacity="1" stop-color="rgb(35.00824%, 46.302795%, 62.226868%)" offset="0.460938"/><stop stop-opacity="1" stop-color="rgb(34.460449%, 45.849609%, 61.907959%)" offset="0.464844"/><stop stop-opacity="1" stop-color="rgb(33.912659%, 45.396423%, 61.58905%)" offset="0.46875"/><stop stop-opacity="1" stop-color="rgb(33.363342%, 44.943237%, 61.270142%)" offset="0.472656"/><stop stop-opacity="1" stop-color="rgb(32.815552%, 44.490051%, 60.951233%)" offset="0.476562"/><stop stop-opacity="1" stop-color="rgb(32.266235%, 44.036865%, 60.632324%)" offset="0.480469"/><stop stop-opacity="1" stop-color="rgb(31.718445%, 43.585205%, 60.314941%)" offset="0.484375"/><stop stop-opacity="1" stop-color="rgb(31.170654%, 43.132019%, 59.996033%)" offset="0.488281"/><stop stop-opacity="1" stop-color="rgb(30.621338%, 42.678833%, 59.677124%)" offset="0.492188"/><stop stop-opacity="1" stop-color="rgb(30.073547%, 42.225647%, 59.358215%)" offset="0.496094"/><stop stop-opacity="1" stop-color="rgb(29.736328%, 41.882324%, 59.016418%)" offset="0.5"/><stop stop-opacity="1" stop-color="rgb(29.60968%, 41.648865%, 58.651733%)" offset="0.503906"/><stop stop-opacity="1" stop-color="rgb(29.484558%, 41.416931%, 58.287048%)" offset="0.507812"/><stop stop-opacity="1" stop-color="rgb(29.359436%, 41.183472%, 57.922363%)" offset="0.511719"/><stop stop-opacity="1" stop-color="rgb(29.232788%, 40.951538%, 57.556152%)" offset="0.515625"/><stop stop-opacity="1" stop-color="rgb(29.107666%, 40.718079%, 57.191467%)" offset="0.519531"/><stop stop-opacity="1" stop-color="rgb(28.981018%, 40.486145%, 56.826782%)" offset="0.523438"/><stop stop-opacity="1" stop-color="rgb(28.855896%, 40.252686%, 56.462097%)" offset="0.527344"/><stop stop-opacity="1" stop-color="rgb(28.729248%, 40.019226%, 56.097412%)" offset="0.53125"/><stop stop-opacity="1" stop-color="rgb(28.604126%, 39.787292%, 55.732727%)" offset="0.535156"/><stop stop-opacity="1" stop-color="rgb(28.477478%, 39.553833%, 55.368042%)" offset="0.539062"/><stop stop-opacity="1" stop-color="rgb(28.352356%, 39.321899%, 55.003357%)" offset="0.542969"/><stop stop-opacity="1" stop-color="rgb(28.227234%, 39.08844%, 54.638672%)" offset="0.546875"/><stop stop-opacity="1" stop-color="rgb(28.100586%, 38.856506%, 54.272461%)" offset="0.550781"/><stop stop-opacity="1" stop-color="rgb(27.975464%, 38.623047%, 53.907776%)" offset="0.554688"/><stop stop-opacity="1" stop-color="rgb(27.848816%, 38.389587%, 53.543091%)" offset="0.558594"/><stop stop-opacity="1" stop-color="rgb(27.723694%, 38.157654%, 53.178406%)" offset="0.5625"/><stop stop-opacity="1" stop-color="rgb(27.597046%, 37.924194%, 52.813721%)" offset="0.566406"/><stop stop-opacity="1" stop-color="rgb(27.471924%, 37.692261%, 52.449036%)" offset="0.570312"/><stop stop-opacity="1" stop-color="rgb(27.346802%, 37.458801%, 52.084351%)" offset="0.574219"/><stop stop-opacity="1" stop-color="rgb(27.220154%, 37.226868%, 51.719666%)" offset="0.578125"/><stop stop-opacity="1" stop-color="rgb(27.095032%, 36.993408%, 51.35498%)" offset="0.582031"/><stop stop-opacity="1" stop-color="rgb(26.968384%, 36.759949%, 50.990295%)" offset="0.585938"/><stop stop-opacity="1" stop-color="rgb(26.843262%, 36.528015%, 50.624084%)" offset="0.589844"/><stop stop-opacity="1" stop-color="rgb(26.716614%, 36.294556%, 50.259399%)" offset="0.59375"/><stop stop-opacity="1" stop-color="rgb(26.591492%, 36.062622%, 49.894714%)" offset="0.597656"/><stop stop-opacity="1" stop-color="rgb(26.46637%, 35.829163%, 49.530029%)" offset="0.601562"/><stop stop-opacity="1" stop-color="rgb(26.339722%, 35.595703%, 49.165344%)" offset="0.605469"/><stop stop-opacity="1" stop-color="rgb(26.2146%, 35.36377%, 48.800659%)" offset="0.609375"/><stop stop-opacity="1" stop-color="rgb(26.087952%, 35.13031%, 48.435974%)" offset="0.613281"/><stop stop-opacity="1" stop-color="rgb(25.96283%, 34.898376%, 48.071289%)" offset="0.617188"/><stop stop-opacity="1" stop-color="rgb(25.836182%, 34.664917%, 47.706604%)" offset="0.621094"/><stop stop-opacity="1" stop-color="rgb(25.71106%, 34.432983%, 47.340393%)" offset="0.625"/><stop stop-opacity="1" stop-color="rgb(25.585938%, 34.199524%, 46.975708%)" offset="0.628906"/><stop stop-opacity="1" stop-color="rgb(25.45929%, 33.966064%, 46.611023%)" offset="0.632812"/><stop stop-opacity="1" stop-color="rgb(25.334167%, 33.734131%, 46.246338%)" offset="0.636719"/><stop stop-opacity="1" stop-color="rgb(25.20752%, 33.500671%, 45.881653%)" offset="0.640625"/><stop stop-opacity="1" stop-color="rgb(25.082397%, 33.268738%, 45.516968%)" offset="0.644531"/><stop stop-opacity="1" stop-color="rgb(24.95575%, 33.035278%, 45.152283%)" offset="0.648438"/><stop stop-opacity="1" stop-color="rgb(24.830627%, 32.803345%, 44.787598%)" offset="0.652344"/><stop stop-opacity="1" stop-color="rgb(24.705505%, 32.569885%, 44.422913%)" offset="0.65625"/><stop stop-opacity="1" stop-color="rgb(24.578857%, 32.336426%, 44.058228%)" offset="0.660156"/><stop stop-opacity="1" stop-color="rgb(24.453735%, 32.104492%, 43.692017%)" offset="0.664062"/><stop stop-opacity="1" stop-color="rgb(24.327087%, 31.871033%, 43.327332%)" offset="0.667969"/><stop stop-opacity="1" stop-color="rgb(24.201965%, 31.639099%, 42.962646%)" offset="0.671875"/><stop stop-opacity="1" stop-color="rgb(24.075317%, 31.40564%, 42.597961%)" offset="0.675781"/><stop stop-opacity="1" stop-color="rgb(23.950195%, 31.173706%, 42.233276%)" offset="0.679688"/><stop stop-opacity="1" stop-color="rgb(23.823547%, 30.940247%, 41.868591%)" offset="0.683594"/><stop stop-opacity="1" stop-color="rgb(23.698425%, 30.706787%, 41.503906%)" offset="0.6875"/><stop stop-opacity="1" stop-color="rgb(23.573303%, 30.474854%, 41.139221%)" offset="0.691406"/><stop stop-opacity="1" stop-color="rgb(23.446655%, 30.241394%, 40.774536%)" offset="0.695312"/><stop stop-opacity="1" stop-color="rgb(23.321533%, 30.00946%, 40.409851%)" offset="0.699219"/><stop stop-opacity="1" stop-color="rgb(23.194885%, 29.776001%, 40.04364%)" offset="0.703125"/><stop stop-opacity="1" stop-color="rgb(23.069763%, 29.544067%, 39.678955%)" offset="0.707031"/><stop stop-opacity="1" stop-color="rgb(22.943115%, 29.310608%, 39.31427%)" offset="0.710938"/><stop stop-opacity="1" stop-color="rgb(22.817993%, 29.077148%, 38.949585%)" offset="0.714844"/><stop stop-opacity="1" stop-color="rgb(22.692871%, 28.845215%, 38.5849%)" offset="0.71875"/><stop stop-opacity="1" stop-color="rgb(22.566223%, 28.611755%, 38.220215%)" offset="0.722656"/><stop stop-opacity="1" stop-color="rgb(22.441101%, 28.379822%, 37.85553%)" offset="0.726562"/><stop stop-opacity="1" stop-color="rgb(22.314453%, 28.146362%, 37.490845%)" offset="0.730469"/><stop stop-opacity="1" stop-color="rgb(22.189331%, 27.912903%, 37.12616%)" offset="0.734375"/><stop stop-opacity="1" stop-color="rgb(22.062683%, 27.680969%, 36.759949%)" offset="0.738281"/><stop stop-opacity="1" stop-color="rgb(21.937561%, 27.44751%, 36.395264%)" offset="0.742188"/><stop stop-opacity="1" stop-color="rgb(21.812439%, 27.215576%, 36.030579%)" offset="0.746094"/><stop stop-opacity="1" stop-color="rgb(21.685791%, 26.982117%, 35.665894%)" offset="0.75"/><stop stop-opacity="1" stop-color="rgb(21.560669%, 26.750183%, 35.301208%)" offset="0.753906"/><stop stop-opacity="1" stop-color="rgb(21.434021%, 26.516724%, 34.936523%)" offset="0.757812"/><stop stop-opacity="1" stop-color="rgb(21.308899%, 26.283264%, 34.571838%)" offset="0.761719"/><stop stop-opacity="1" stop-color="rgb(21.182251%, 26.051331%, 34.207153%)" offset="0.765625"/><stop stop-opacity="1" stop-color="rgb(21.057129%, 25.817871%, 33.842468%)" offset="0.769531"/><stop stop-opacity="1" stop-color="rgb(20.932007%, 25.585938%, 33.477783%)" offset="0.773438"/><stop stop-opacity="1" stop-color="rgb(20.805359%, 25.352478%, 33.111572%)" offset="0.777344"/><stop stop-opacity="1" stop-color="rgb(20.680237%, 25.120544%, 32.746887%)" offset="0.78125"/><stop stop-opacity="1" stop-color="rgb(20.553589%, 24.887085%, 32.382202%)" offset="0.785156"/><stop stop-opacity="1" stop-color="rgb(20.428467%, 24.653625%, 32.017517%)" offset="0.789062"/><stop stop-opacity="1" stop-color="rgb(20.301819%, 24.421692%, 31.652832%)" offset="0.792969"/><stop stop-opacity="1" stop-color="rgb(20.176697%, 24.188232%, 31.288147%)" offset="0.796875"/><stop stop-opacity="1" stop-color="rgb(20.051575%, 23.956299%, 30.923462%)" offset="0.800781"/><stop stop-opacity="1" stop-color="rgb(19.924927%, 23.722839%, 30.558777%)" offset="0.804688"/><stop stop-opacity="1" stop-color="rgb(19.799805%, 23.490906%, 30.194092%)" offset="0.808594"/><stop stop-opacity="1" stop-color="rgb(19.673157%, 23.257446%, 29.827881%)" offset="0.8125"/><stop stop-opacity="1" stop-color="rgb(19.548035%, 23.023987%, 29.463196%)" offset="0.816406"/><stop stop-opacity="1" stop-color="rgb(19.421387%, 22.792053%, 29.098511%)" offset="0.820312"/><stop stop-opacity="1" stop-color="rgb(19.296265%, 22.558594%, 28.733826%)" offset="0.824219"/><stop stop-opacity="1" stop-color="rgb(19.171143%, 22.32666%, 28.369141%)" offset="0.828125"/><stop stop-opacity="1" stop-color="rgb(19.044495%, 22.093201%, 28.004456%)" offset="0.832031"/><stop stop-opacity="1" stop-color="rgb(18.919373%, 21.861267%, 27.639771%)" offset="0.835938"/><stop stop-opacity="1" stop-color="rgb(18.792725%, 21.627808%, 27.275085%)" offset="0.839844"/><stop stop-opacity="1" stop-color="rgb(18.667603%, 21.394348%, 26.9104%)" offset="0.84375"/><stop stop-opacity="1" stop-color="rgb(18.540955%, 21.162415%, 26.545715%)" offset="0.847656"/><stop stop-opacity="1" stop-color="rgb(18.415833%, 20.928955%, 26.179504%)" offset="0.851562"/><stop stop-opacity="1" stop-color="rgb(18.289185%, 20.697021%, 25.814819%)" offset="0.855469"/><stop stop-opacity="1" stop-color="rgb(18.164062%, 20.463562%, 25.450134%)" offset="0.859375"/><stop stop-opacity="1" stop-color="rgb(18.03894%, 20.230103%, 25.085449%)" offset="0.863281"/><stop stop-opacity="1" stop-color="rgb(17.912292%, 19.998169%, 24.720764%)" offset="0.867188"/><stop stop-opacity="1" stop-color="rgb(17.78717%, 19.764709%, 24.356079%)" offset="0.871094"/><stop stop-opacity="1" stop-color="rgb(17.660522%, 19.532776%, 23.991394%)" offset="0.875"/><stop stop-opacity="1" stop-color="rgb(17.5354%, 19.299316%, 23.626709%)" offset="0.878906"/><stop stop-opacity="1" stop-color="rgb(17.408752%, 19.067383%, 23.262024%)" offset="0.882812"/><stop stop-opacity="1" stop-color="rgb(17.28363%, 18.833923%, 22.897339%)" offset="0.886719"/><stop stop-opacity="1" stop-color="rgb(17.158508%, 18.600464%, 22.531128%)" offset="0.890625"/><stop stop-opacity="1" stop-color="rgb(17.03186%, 18.36853%, 22.166443%)" offset="0.894531"/><stop stop-opacity="1" stop-color="rgb(16.906738%, 18.135071%, 21.801758%)" offset="0.898438"/><stop stop-opacity="1" stop-color="rgb(16.78009%, 17.903137%, 21.437073%)" offset="0.902344"/><stop stop-opacity="1" stop-color="rgb(16.654968%, 17.669678%, 21.072388%)" offset="0.90625"/><stop stop-opacity="1" stop-color="rgb(16.52832%, 17.437744%, 20.707703%)" offset="0.910156"/><stop stop-opacity="1" stop-color="rgb(16.403198%, 17.204285%, 20.343018%)" offset="0.914062"/><stop stop-opacity="1" stop-color="rgb(16.278076%, 16.970825%, 19.978333%)" offset="0.917969"/><stop stop-opacity="1" stop-color="rgb(16.151428%, 16.738892%, 19.613647%)" offset="0.921875"/><stop stop-opacity="1" stop-color="rgb(16.026306%, 16.505432%, 19.247437%)" offset="0.925781"/><stop stop-opacity="1" stop-color="rgb(15.899658%, 16.273499%, 18.882751%)" offset="0.929688"/><stop stop-opacity="1" stop-color="rgb(15.774536%, 16.040039%, 18.518066%)" offset="0.933594"/><stop stop-opacity="1" stop-color="rgb(15.647888%, 15.808105%, 18.153381%)" offset="0.9375"/><stop stop-opacity="1" stop-color="rgb(15.522766%, 15.574646%, 17.788696%)" offset="0.941406"/><stop stop-opacity="1" stop-color="rgb(15.397644%, 15.341187%, 17.424011%)" offset="0.945312"/><stop stop-opacity="1" stop-color="rgb(15.270996%, 15.109253%, 17.059326%)" offset="0.949219"/><stop stop-opacity="1" stop-color="rgb(15.145874%, 14.875793%, 16.694641%)" offset="0.953125"/><stop stop-opacity="1" stop-color="rgb(15.019226%, 14.64386%, 16.329956%)" offset="0.957031"/><stop stop-opacity="1" stop-color="rgb(14.894104%, 14.4104%, 15.965271%)" offset="0.960938"/><stop stop-opacity="1" stop-color="rgb(14.767456%, 14.178467%, 15.59906%)" offset="0.964844"/><stop stop-opacity="1" stop-color="rgb(14.642334%, 13.945007%, 15.234375%)" offset="0.96875"/><stop stop-opacity="1" stop-color="rgb(14.517212%, 13.711548%, 14.86969%)" offset="0.972656"/><stop stop-opacity="1" stop-color="rgb(14.390564%, 13.479614%, 14.505005%)" offset="0.976562"/><stop stop-opacity="1" stop-color="rgb(14.265442%, 13.246155%, 14.14032%)" offset="0.980469"/><stop stop-opacity="1" stop-color="rgb(14.138794%, 13.014221%, 13.775635%)" offset="0.984375"/><stop stop-opacity="1" stop-color="rgb(14.013672%, 12.780762%, 13.41095%)" offset="0.988281"/><stop stop-opacity="1" stop-color="rgb(13.887024%, 12.547302%, 13.046265%)" offset="0.992188"/><stop stop-opacity="1" stop-color="rgb(13.761902%, 12.315369%, 12.68158%)" offset="0.996094"/><stop stop-opacity="1" stop-color="rgb(13.699341%, 12.199402%, 12.5%)" offset="1"/></radialGradient></defs><rect x="-7.5" width="90" fill="rgba(0,0,0,0)" y="-7.5" height="89.999996" fill-opacity="1"/><rect x="-7.5" width="90" fill="rgba(0,0,0,0)" y="-7.5" height="89.999996" fill-opacity="1"/><g clip-path="url(#f95d6a8be4)"><g clip-path="url(#ae10999e0f)"><path fill="url(#b1b4aa413d)" d="M 0 17.78125 L 0 57.425781 L 75 57.425781 L 75 17.78125 Z M 0 17.78125 " fill-rule="nonzero"/></g></g><path fill="#6181b6" d="M 73.535156 37.601562 C 73.535156 38.203125 73.476562 38.804688 73.363281 39.402344 C 73.246094 40 73.074219 40.59375 72.84375 41.183594 C 72.613281 41.769531 72.324219 42.355469 71.984375 42.929688 C 71.640625 43.503906 71.242188 44.070312 70.792969 44.625 C 70.339844 45.179688 69.835938 45.722656 69.28125 46.253906 C 68.722656 46.78125 68.117188 47.296875 67.460938 47.796875 C 66.804688 48.296875 66.105469 48.777344 65.355469 49.242188 C 64.605469 49.707031 63.816406 50.152344 62.980469 50.578125 C 62.144531 51.003906 61.273438 51.40625 60.359375 51.785156 C 59.449219 52.167969 58.5 52.523438 57.519531 52.859375 C 56.539062 53.191406 55.527344 53.5 54.488281 53.785156 C 53.445312 54.066406 52.378906 54.324219 51.289062 54.554688 C 50.199219 54.785156 49.089844 54.988281 47.960938 55.160156 C 46.832031 55.335938 45.6875 55.480469 44.53125 55.597656 C 43.371094 55.714844 42.207031 55.804688 41.03125 55.863281 C 39.859375 55.921875 38.679688 55.953125 37.5 55.953125 C 36.320312 55.953125 35.140625 55.921875 33.96875 55.863281 C 32.792969 55.804688 31.628906 55.714844 30.46875 55.597656 C 29.3125 55.480469 28.167969 55.335938 27.039062 55.160156 C 25.910156 54.988281 24.800781 54.785156 23.710938 54.554688 C 22.621094 54.324219 21.554688 54.066406 20.511719 53.785156 C 19.472656 53.5 18.460938 53.191406 17.480469 52.859375 C 16.5 52.523438 15.550781 52.167969 14.640625 51.785156 C 13.726562 51.40625 12.855469 51.003906 12.019531 50.578125 C 11.183594 50.152344 10.394531 49.707031 9.644531 49.242188 C 8.894531 48.777344 8.195312 48.296875 7.539062 47.796875 C 6.882812 47.296875 6.277344 46.78125 5.71875 46.253906 C 5.164062 45.722656 4.660156 45.179688 4.207031 44.625 C 3.757812 44.070312 3.359375 43.503906 3.015625 42.929688 C 2.675781 42.355469 2.386719 41.769531 2.15625 41.183594 C 1.925781 40.59375 1.753906 40 1.636719 39.402344 C 1.523438 38.804688 1.464844 38.203125 1.464844 37.601562 C 1.464844 37 1.523438 36.402344 1.636719 35.804688 C 1.753906 35.207031 1.925781 34.613281 2.15625 34.023438 C 2.386719 33.433594 2.675781 32.851562 3.015625 32.277344 C 3.359375 31.699219 3.757812 31.136719 4.207031 30.582031 C 4.660156 30.023438 5.164062 29.484375 5.71875 28.953125 C 6.277344 28.421875 6.882812 27.90625 7.539062 27.40625 C 8.195312 26.910156 8.894531 26.425781 9.644531 25.960938 C 10.394531 25.496094 11.183594 25.050781 12.019531 24.628906 C 12.855469 24.203125 13.726562 23.800781 14.640625 23.417969 C 15.550781 23.035156 16.5 22.679688 17.480469 22.34375 C 18.460938 22.011719 19.472656 21.703125 20.511719 21.417969 C 21.554688 21.136719 22.621094 20.878906 23.710938 20.648438 C 24.800781 20.417969 25.910156 20.21875 27.039062 20.042969 C 28.167969 19.867188 29.3125 19.722656 30.46875 19.605469 C 31.628906 19.488281 32.792969 19.398438 33.96875 19.339844 C 35.140625 19.28125 36.320312 19.253906 37.5 19.253906 C 38.679688 19.253906 39.859375 19.28125 41.03125 19.339844 C 42.207031 19.398438 43.371094 19.488281 44.53125 19.605469 C 45.6875 19.722656 46.832031 19.867188 47.960938 20.042969 C 49.089844 20.21875 50.199219 20.417969 51.289062 20.648438 C 52.378906 20.878906 53.445312 21.136719 54.488281 21.417969 C 55.527344 21.703125 56.539062 22.011719 57.519531 22.34375 C 58.5 22.679688 59.449219 23.035156 60.359375 23.417969 C 61.273438 23.800781 62.144531 24.203125 62.980469 24.628906 C 63.816406 25.050781 64.605469 25.496094 65.355469 25.960938 C 66.105469 26.425781 66.804688 26.910156 67.460938 27.40625 C 68.117188 27.90625 68.722656 28.421875 69.28125 28.953125 C 69.835938 29.484375 70.339844 30.023438 70.792969 30.582031 C 71.242188 31.136719 71.640625 31.699219 71.984375 32.277344 C 72.324219 32.851562 72.613281 33.433594 72.84375 34.023438 C 73.074219 34.613281 73.246094 35.207031 73.363281 35.804688 C 73.476562 36.402344 73.535156 37 73.535156 37.601562 Z M 73.535156 37.601562 " fill-opacity="1" fill-rule="nonzero"/><path fill="#ffffff" d="M 44.792969 43.550781 L 46.582031 34.304688 C 46.992188 32.210938 46.640625 30.652344 45.585938 29.679688 C 44.558594 28.738281 42.800781 28.265625 40.222656 28.265625 L 37.121094 28.265625 L 38 23.671875 C 38.027344 23.496094 38 23.316406 37.882812 23.171875 C 37.765625 23.023438 37.617188 22.964844 37.441406 22.964844 L 33.164062 22.964844 C 32.871094 22.964844 32.636719 23.171875 32.578125 23.433594 L 30.675781 33.242188 C 30.5 32.125 30.089844 31.179688 29.386719 30.414062 C 28.125 28.972656 26.164062 28.234375 23.496094 28.234375 L 15.265625 28.234375 C 14.972656 28.234375 14.738281 28.441406 14.679688 28.707031 L 10.839844 48.617188 C 10.8125 48.792969 10.839844 48.972656 10.957031 49.117188 C 11.074219 49.265625 11.222656 49.324219 11.398438 49.324219 L 15.703125 49.324219 C 15.996094 49.324219 16.230469 49.117188 16.289062 48.851562 L 17.226562 44.050781 L 20.421875 44.050781 C 22.089844 44.050781 23.527344 43.875 24.609375 43.523438 C 25.753906 43.140625 26.777344 42.519531 27.6875 41.667969 C 28.417969 40.988281 29.035156 40.222656 29.503906 39.398438 L 28.742188 43.375 C 28.710938 43.550781 28.742188 43.730469 28.859375 43.875 C 28.976562 44.023438 29.121094 44.082031 29.296875 44.082031 L 33.574219 44.082031 C 33.867188 44.082031 34.101562 43.875 34.160156 43.609375 L 36.269531 32.714844 L 39.199219 32.714844 C 40.460938 32.714844 40.8125 32.949219 40.929688 33.066406 C 41.015625 33.15625 41.191406 33.507812 40.988281 34.597656 L 39.289062 43.40625 C 39.257812 43.582031 39.289062 43.757812 39.402344 43.90625 C 39.519531 44.050781 39.667969 44.113281 39.84375 44.113281 L 44.238281 44.113281 C 44.5 44.023438 44.734375 43.816406 44.792969 43.550781 Z M 24.988281 35.894531 C 24.726562 37.277344 24.226562 38.28125 23.496094 38.839844 C 22.761719 39.398438 21.5625 39.695312 19.980469 39.695312 L 18.074219 39.695312 L 19.453125 32.566406 L 21.914062 32.566406 C 23.730469 32.566406 24.460938 32.949219 24.753906 33.273438 C 25.136719 33.742188 25.222656 34.65625 24.988281 35.894531 Z M 24.988281 35.894531 " fill-opacity="1" fill-rule="nonzero"/><path fill="#ffffff" d="M 63.074219 30.414062 C 61.816406 28.972656 59.851562 28.234375 57.1875 28.234375 L 48.894531 28.234375 C 48.601562 28.234375 48.367188 28.441406 48.308594 28.707031 L 44.472656 48.589844 C 44.441406 48.765625 44.472656 48.941406 44.589844 49.089844 C 44.707031 49.234375 44.851562 49.296875 45.027344 49.296875 L 49.335938 49.296875 C 49.628906 49.296875 49.863281 49.089844 49.921875 48.824219 L 50.859375 44.023438 L 54.050781 44.023438 C 55.722656 44.023438 57.15625 43.847656 58.242188 43.492188 C 59.382812 43.109375 60.410156 42.492188 61.316406 41.636719 C 62.078125 40.929688 62.722656 40.136719 63.191406 39.28125 C 63.660156 38.425781 64.011719 37.484375 64.21875 36.453125 C 64.714844 33.890625 64.335938 31.886719 63.074219 30.414062 Z M 58.59375 35.894531 C 58.328125 37.277344 57.832031 38.28125 57.097656 38.839844 C 56.367188 39.398438 55.164062 39.695312 53.582031 39.695312 L 51.679688 39.695312 L 53.054688 32.566406 L 55.515625 32.566406 C 57.332031 32.566406 58.066406 32.949219 58.359375 33.273438 C 58.769531 33.742188 58.855469 34.65625 58.59375 35.894531 Z M 58.59375 35.894531 " fill-opacity="1" fill-rule="nonzero"/><path fill="#000004" d="M 21.914062 31.976562 C 23.554688 31.976562 24.640625 32.269531 25.195312 32.890625 C 25.75 33.507812 25.871094 34.539062 25.578125 36.011719 C 25.285156 37.542969 24.699219 38.664062 23.847656 39.3125 C 22.996094 39.957031 21.707031 40.28125 19.980469 40.28125 L 17.375 40.28125 L 18.984375 31.976562 Z M 11.425781 48.707031 L 15.734375 48.707031 L 16.757812 43.433594 L 20.449219 43.433594 C 22.089844 43.433594 23.410156 43.257812 24.460938 42.902344 C 25.515625 42.550781 26.457031 41.992188 27.335938 41.167969 C 28.066406 40.488281 28.652344 39.753906 29.09375 38.957031 C 29.53125 38.160156 29.851562 37.277344 30.027344 36.304688 C 30.496094 33.949219 30.144531 32.125 29.003906 30.796875 C 27.859375 29.472656 26.046875 28.824219 23.554688 28.824219 L 15.265625 28.824219 Z M 11.425781 48.707031 " fill-opacity="1" fill-rule="nonzero"/><path fill="#000004" d="M 33.191406 23.554688 L 37.46875 23.554688 L 36.445312 28.824219 L 40.253906 28.824219 C 42.65625 28.824219 44.296875 29.238281 45.203125 30.089844 C 46.113281 30.945312 46.375 32.300781 46.023438 34.1875 L 44.238281 43.433594 L 39.902344 43.433594 L 41.601562 34.628906 C 41.804688 33.625 41.71875 32.949219 41.394531 32.59375 C 41.074219 32.242188 40.339844 32.035156 39.257812 32.035156 L 35.828125 32.035156 L 33.632812 43.433594 L 29.355469 43.433594 Z M 33.191406 23.554688 " fill-opacity="1" fill-rule="nonzero"/><path fill="#000004" d="M 55.515625 31.976562 C 57.15625 31.976562 58.242188 32.269531 58.796875 32.890625 C 59.355469 33.507812 59.472656 34.539062 59.179688 36.011719 C 58.886719 37.542969 58.300781 38.664062 57.449219 39.3125 C 56.601562 39.957031 55.3125 40.28125 53.585938 40.28125 L 50.976562 40.28125 L 52.589844 31.976562 L 55.519531 31.976562 Z M 45.027344 48.707031 L 49.335938 48.707031 L 50.359375 43.433594 L 54.050781 43.433594 C 55.695312 43.433594 57.011719 43.257812 58.066406 42.902344 C 59.121094 42.550781 60.058594 41.992188 60.9375 41.167969 C 61.667969 40.488281 62.253906 39.753906 62.695312 38.957031 C 63.132812 38.160156 63.457031 37.277344 63.632812 36.304688 C 64.101562 33.949219 63.75 32.125 62.605469 30.796875 C 61.464844 29.472656 59.648438 28.824219 57.15625 28.824219 L 48.867188 28.824219 Z M 45.027344 48.707031 " fill-opacity="1" fill-rule="nonzero"/></svg>