<svg xmlns="http://www.w3.org/2000/svg" xmlns:xlink="http://www.w3.org/1999/xlink" width="100" zoomAndPan="magnify" viewBox="0 0 75 74.999997" height="100" preserveAspectRatio="xMidYMid meet" version="1.0"><defs><clipPath id="79f07a034f"><path d="M 0.511719 42 L 32 42 L 32 57.0625 L 0.511719 57.0625 Z M 0.511719 42 " clip-rule="nonzero"/></clipPath><clipPath id="936e46f934"><path d="M 46 19 L 74.761719 19 L 74.761719 46 L 46 46 Z M 46 19 " clip-rule="nonzero"/></clipPath><clipPath id="e8dfb04de4"><path d="M 70 50 L 74.761719 50 L 74.761719 54 L 70 54 Z M 70 50 " clip-rule="nonzero"/></clipPath></defs><rect x="-7.5" width="90" fill="rgba(0,0,0,0)" y="-7.5" height="89.999996" fill-opacity="1"/><rect x="-7.5" width="90" fill="rgba(0,0,0,0)" y="-7.5" height="89.999996" fill-opacity="1"/><g clip-path="url(#79f07a034f)"><path fill="#00618a" d="M 0.777344 53.695312 L 3.203125 53.695312 L 3.203125 44.113281 L 6.964844 52.46875 C 7.40625 53.476562 8.015625 53.835938 9.207031 53.835938 C 10.398438 53.835938 10.980469 53.480469 11.425781 52.46875 L 15.183594 44.113281 L 15.183594 53.699219 L 17.613281 53.699219 L 17.613281 44.128906 C 17.613281 43.195312 17.238281 42.742188 16.46875 42.507812 C 14.625 41.933594 13.386719 42.429688 12.828125 43.675781 L 9.136719 51.921875 L 5.5625 43.671875 C 5.027344 42.425781 3.765625 41.929688 1.921875 42.503906 C 1.148438 42.738281 0.777344 43.191406 0.777344 44.125 Z M 19.632812 45.890625 L 22.058594 45.890625 L 22.058594 51.171875 C 22.039062 51.460938 22.152344 52.132812 23.484375 52.152344 C 24.160156 52.164062 28.722656 52.152344 28.765625 52.152344 L 28.765625 45.867188 L 31.199219 45.867188 C 31.207031 45.867188 31.195312 54.441406 31.195312 54.476562 C 31.207031 56.589844 28.570312 57.050781 27.355469 57.085938 L 19.683594 57.085938 L 19.683594 55.453125 L 27.367188 55.453125 C 28.929688 55.289062 28.746094 54.511719 28.746094 54.25 L 28.746094 53.613281 L 23.585938 53.613281 C 21.183594 53.589844 19.652344 52.542969 19.632812 51.339844 C 19.632812 51.230469 19.6875 45.945312 19.632812 45.890625 Z M 19.632812 45.890625 " fill-opacity="1" fill-rule="nonzero"/></g><path fill="#e48e00" d="M 33.070312 53.695312 L 40.050781 53.695312 C 40.867188 53.695312 41.664062 53.523438 42.292969 53.226562 C 43.34375 52.746094 43.859375 52.089844 43.859375 51.234375 L 43.859375 49.460938 C 43.859375 48.761719 43.273438 48.109375 42.132812 47.671875 C 41.523438 47.4375 40.777344 47.3125 40.054688 47.3125 L 37.109375 47.3125 C 36.128906 47.3125 35.664062 47.019531 35.546875 46.363281 C 35.523438 46.285156 35.523438 46.222656 35.523438 46.148438 L 35.523438 45.042969 C 35.523438 44.980469 35.523438 44.917969 35.546875 44.839844 C 35.664062 44.339844 35.917969 44.203125 36.785156 44.121094 C 36.855469 44.121094 36.945312 44.105469 37.015625 44.105469 L 43.953125 44.105469 L 43.953125 42.484375 L 37.132812 42.484375 C 36.152344 42.484375 35.640625 42.546875 35.171875 42.6875 C 33.722656 43.140625 33.089844 43.859375 33.089844 45.105469 L 33.089844 46.519531 C 33.089844 47.609375 34.328125 48.542969 36.40625 48.761719 C 36.640625 48.777344 36.875 48.792969 37.109375 48.792969 L 39.628906 48.792969 C 39.722656 48.792969 39.816406 48.792969 39.886719 48.808594 C 40.65625 48.871094 40.984375 49.011719 41.21875 49.289062 C 41.363281 49.433594 41.40625 49.570312 41.40625 49.722656 L 41.40625 51.136719 C 41.40625 51.308594 41.289062 51.527344 41.054688 51.714844 C 40.84375 51.902344 40.496094 52.023438 40.027344 52.054688 C 39.933594 52.054688 39.863281 52.070312 39.769531 52.070312 L 33.070312 52.070312 Z M 59.007812 50.878906 C 59.007812 52.542969 60.246094 53.476562 62.746094 53.664062 C 62.976562 53.679688 63.210938 53.691406 63.445312 53.695312 L 69.773438 53.695312 L 69.773438 52.074219 L 63.398438 52.074219 C 61.976562 52.074219 61.4375 51.71875 61.4375 50.863281 L 61.4375 42.488281 L 59.007812 42.488281 Z M 45.410156 50.960938 L 45.410156 45.191406 C 45.410156 43.726562 46.4375 42.835938 48.472656 42.558594 C 48.691406 42.527344 48.910156 42.511719 49.128906 42.511719 L 53.738281 42.511719 C 53.964844 42.511719 54.191406 42.527344 54.417969 42.558594 C 56.453125 42.835938 57.484375 43.726562 57.484375 45.191406 L 57.484375 50.960938 C 57.484375 52.152344 57.046875 52.789062 56.039062 53.203125 L 58.429688 55.359375 L 55.609375 55.359375 L 53.675781 53.613281 L 51.726562 53.738281 L 49.128906 53.738281 C 48.683594 53.738281 48.214844 53.675781 47.703125 53.535156 C 46.152344 53.113281 45.410156 52.304688 45.410156 50.960938 Z M 48.03125 50.816406 C 48.03125 50.894531 48.054688 50.972656 48.078125 51.066406 C 48.21875 51.738281 48.847656 52.113281 49.804688 52.113281 L 52.011719 52.113281 L 49.984375 50.285156 L 52.804688 50.285156 L 54.566406 51.878906 C 54.894531 51.703125 55.109375 51.4375 55.179688 51.097656 C 55.203125 51.019531 55.203125 50.941406 55.203125 50.863281 L 55.203125 45.332031 C 55.203125 45.269531 55.203125 45.1875 55.179688 45.113281 C 55.035156 44.492188 54.40625 44.132812 53.472656 44.132812 L 49.8125 44.132812 C 48.730469 44.132812 48.03125 44.601562 48.03125 45.332031 L 48.03125 50.820312 Z M 48.03125 50.816406 " fill-opacity="1" fill-rule="nonzero"/><g clip-path="url(#936e46f934)"><path fill="#00618a" d="M 71.910156 39.804688 C 70.417969 39.765625 69.277344 39.902344 68.300781 40.3125 C 68.023438 40.429688 67.582031 40.433594 67.539062 40.78125 C 67.691406 40.941406 67.714844 41.179688 67.835938 41.375 C 68.066406 41.75 68.460938 42.257812 68.8125 42.519531 C 69.195312 42.808594 69.589844 43.117188 70 43.371094 C 70.730469 43.816406 71.546875 44.070312 72.25 44.515625 C 72.664062 44.777344 73.074219 45.109375 73.480469 45.40625 C 73.679688 45.550781 73.816406 45.78125 74.074219 45.871094 L 74.074219 45.828125 C 73.9375 45.65625 73.902344 45.417969 73.777344 45.234375 L 73.226562 44.683594 C 72.6875 43.964844 72 43.339844 71.273438 42.816406 C 70.691406 42.402344 69.394531 41.839844 69.148438 41.164062 L 69.109375 41.121094 C 69.519531 41.074219 70 40.925781 70.382812 40.824219 C 71.019531 40.652344 71.589844 40.695312 72.25 40.527344 L 73.140625 40.273438 L 73.140625 40.101562 C 72.808594 39.761719 72.570312 39.308594 72.207031 39 C 71.257812 38.1875 70.21875 37.382812 69.152344 36.707031 C 68.558594 36.332031 67.828125 36.089844 67.199219 35.773438 C 66.988281 35.667969 66.617188 35.609375 66.476562 35.433594 C 66.148438 35.011719 65.96875 34.480469 65.714844 33.996094 C 65.179688 32.96875 64.65625 31.847656 64.183594 30.769531 C 63.863281 30.035156 63.652344 29.308594 63.25 28.648438 C 61.324219 25.480469 59.25 23.570312 56.035156 21.691406 C 55.351562 21.289062 54.527344 21.132812 53.65625 20.925781 L 52.257812 20.839844 C 51.972656 20.722656 51.675781 20.375 51.40625 20.203125 C 50.34375 19.53125 47.613281 18.070312 46.824219 19.988281 C 46.324219 21.203125 47.566406 22.386719 48.011719 23 C 48.324219 23.433594 48.722656 23.917969 48.945312 24.402344 C 49.089844 24.71875 49.117188 25.039062 49.242188 25.378906 C 49.550781 26.207031 49.820312 27.113281 50.21875 27.882812 C 50.421875 28.269531 50.644531 28.679688 50.898438 29.027344 C 51.054688 29.238281 51.324219 29.332031 51.363281 29.664062 C 51.101562 30.03125 51.085938 30.597656 50.941406 31.0625 C 50.277344 33.15625 50.527344 35.753906 51.492188 37.300781 C 51.789062 37.777344 52.484375 38.796875 53.445312 38.402344 C 54.285156 38.0625 54.09375 37.003906 54.335938 36.070312 C 54.390625 35.859375 54.355469 35.703125 54.464844 35.5625 L 54.464844 35.605469 L 55.226562 37.132812 C 55.792969 38.042969 56.796875 38.992188 57.648438 39.636719 C 58.089844 39.96875 58.4375 40.542969 59.003906 40.738281 L 59.003906 40.695312 L 58.964844 40.695312 C 58.851562 40.523438 58.679688 40.453125 58.539062 40.316406 C 58.207031 39.988281 57.835938 39.585938 57.5625 39.210938 C 56.789062 38.160156 56.105469 37.011719 55.480469 35.816406 C 55.183594 35.246094 54.925781 34.617188 54.675781 34.035156 C 54.578125 33.8125 54.582031 33.472656 54.378906 33.355469 C 54.105469 33.78125 53.699219 34.125 53.488281 34.628906 C 53.148438 35.433594 53.105469 36.414062 52.976562 37.429688 C 52.902344 37.457031 52.9375 37.4375 52.894531 37.472656 C 52.300781 37.328125 52.09375 36.722656 51.875 36.199219 C 51.320312 34.878906 51.214844 32.753906 51.703125 31.234375 C 51.832031 30.84375 52.402344 29.605469 52.171875 29.242188 C 52.0625 28.878906 51.695312 28.664062 51.492188 28.390625 C 51.238281 28.050781 50.988281 27.597656 50.8125 27.203125 C 50.359375 26.175781 50.144531 25.019531 49.667969 23.980469 C 49.4375 23.480469 49.050781 22.980469 48.734375 22.539062 C 48.382812 22.050781 47.988281 21.6875 47.714844 21.101562 C 47.617188 20.890625 47.484375 20.554688 47.628906 20.335938 C 47.660156 20.199219 47.746094 20.113281 47.882812 20.082031 C 48.128906 19.890625 48.816406 20.144531 49.074219 20.253906 C 49.753906 20.535156 50.320312 20.804688 50.898438 21.1875 C 51.175781 21.367188 51.457031 21.722656 51.789062 21.824219 L 52.171875 21.824219 C 52.769531 21.960938 53.4375 21.867188 53.996094 22.035156 C 54.984375 22.335938 55.867188 22.800781 56.671875 23.308594 C 59.117188 24.851562 61.117188 27.050781 62.488281 29.675781 C 62.707031 30.097656 62.800781 30.5 62.996094 30.949219 C 63.386719 31.847656 63.878906 32.78125 64.269531 33.664062 C 64.65625 34.546875 65.035156 35.433594 65.585938 36.167969 C 65.875 36.550781 66.988281 36.757812 67.496094 36.972656 C 67.851562 37.125 68.433594 37.28125 68.769531 37.480469 C 69.410156 37.871094 70.035156 38.332031 70.636719 38.753906 C 70.9375 38.96875 71.863281 39.433594 71.910156 39.816406 Z M 71.910156 39.804688 " fill-opacity="1" fill-rule="nonzero"/></g><path fill="#00618a" d="M 52.9375 23.640625 C 52.625 23.632812 52.40625 23.671875 52.171875 23.722656 L 52.171875 23.765625 L 52.214844 23.765625 C 52.363281 24.070312 52.625 24.269531 52.808594 24.53125 L 53.234375 25.421875 L 53.277344 25.378906 C 53.539062 25.195312 53.660156 24.898438 53.65625 24.445312 C 53.550781 24.335938 53.535156 24.195312 53.445312 24.0625 C 53.324219 23.886719 53.085938 23.785156 52.9375 23.636719 Z M 52.9375 23.640625 " fill-opacity="1" fill-rule="evenodd"/><g clip-path="url(#e8dfb04de4)"><path fill="#e48e00" d="M 70.917969 52.03125 C 70.917969 53.097656 71.761719 53.816406 72.707031 53.816406 C 73.652344 53.816406 74.496094 53.097656 74.496094 52.03125 C 74.496094 50.960938 73.652344 50.242188 72.707031 50.242188 C 71.761719 50.242188 70.917969 50.960938 70.917969 52.03125 Z M 74.09375 52.03125 C 74.09375 52.839844 73.472656 53.445312 72.707031 53.445312 C 71.929688 53.445312 71.316406 52.839844 71.316406 52.03125 C 71.316406 51.21875 71.925781 50.613281 72.707031 50.613281 C 73.472656 50.613281 74.09375 51.21875 74.09375 52.03125 Z M 73.1875 53.050781 L 73.589844 53.050781 L 73 52.152344 C 73.316406 52.121094 73.554688 51.96875 73.554688 51.59375 C 73.554688 51.179688 73.292969 51.007812 72.785156 51.007812 L 71.988281 51.007812 L 71.988281 53.050781 L 72.332031 53.050781 L 72.332031 52.167969 L 72.652344 52.167969 Z M 72.332031 51.882812 L 72.332031 51.292969 L 72.730469 51.292969 C 72.933594 51.292969 73.183594 51.332031 73.183594 51.570312 C 73.183594 51.859375 72.957031 51.882812 72.699219 51.882812 Z M 72.332031 51.882812 " fill-opacity="1" fill-rule="evenodd"/></g></svg>