<svg xmlns="http://www.w3.org/2000/svg" xmlns:xlink="http://www.w3.org/1999/xlink" width="100" zoomAndPan="magnify" viewBox="0 0 75 74.999997" height="100" preserveAspectRatio="xMidYMid meet" version="1.0">
    <defs>
        <clipPath id="2ff20d7409">
        <path d="M 4.796875 0.960938 L 70.046875 0.960938 L 70.046875 73.710938 L 4.796875 73.710938 Z M 4.796875 0.960938 " clip-rule="nonzero"/>
        </clipPath>
    </defs>
    <rect x="-7.5" width="90" fill="rgba(0,0,0,0)" y="-7.5" height="89.999996" fill-opacity="1"/>
    <rect x="-7.5" width="90" fill="rgba(0,0,0,0)" y="-7.5" height="89.999996" fill-opacity="1"/>
    <g clip-path="url(#2ff20d7409)">
        <path fill="#0277bd" d="M 70.039062 0.960938 L 4.804688 0.960938 L 10.5625 66.050781 L 37.421875 73.710938 L 64.28125 66.050781 Z M 70.039062 0.960938 " fill-opacity="1" fill-rule="nonzero"/>
    </g>
    <path fill="#039be5" d="M 37.421875 6.703125 L 37.421875 67.777344 L 58.910156 61.648438 L 63.707031 6.703125 Z M 37.421875 6.703125 " fill-opacity="1" fill-rule="nonzero"/>
    <path fill="#ffffff" d="M 54.882812 16.277344 L 37.421875 16.277344 L 37.421875 23.933594 L 46.824219 23.933594 L 46.246094 31.59375 L 37.421875 31.59375 L 37.421875 39.25 L 45.863281 39.25 L 45.289062 47.863281 L 37.421875 50.546875 L 37.421875 58.585938 L 52.578125 53.609375 L 53.921875 31.59375 Z M 54.882812 16.277344 " fill-opacity="1" fill-rule="nonzero"/>
    <path fill="#eeeeee" d="M 37.421875 16.277344 L 37.421875 23.933594 L 20.347656 23.933594 L 19.769531 16.277344 Z M 28.597656 31.59375 L 28.980469 39.25 L 37.421875 39.25 L 37.421875 31.59375 Z M 29.363281 43.078125 L 21.6875 43.078125 L 22.265625 53.609375 L 37.421875 58.585938 L 37.421875 50.546875 L 29.554688 47.863281 Z M 29.363281 43.078125 " fill-opacity="1" fill-rule="nonzero"/>
</svg>