<svg xmlns="http://www.w3.org/2000/svg" xmlns:xlink="http://www.w3.org/1999/xlink" width="100" zoomAndPan="magnify" viewBox="0 0 75 74.999997" height="100" preserveAspectRatio="xMidYMid meet" version="1.0"><defs><clipPath id="c77787fe2a"><path d="M 53 2 L 72.636719 2 L 72.636719 73 L 53 73 Z M 53 2 " clip-rule="nonzero"/></clipPath><clipPath id="1f06e499ae"><path d="M 2.136719 2 L 56 2 L 56 59 L 2.136719 59 Z M 2.136719 2 " clip-rule="nonzero"/></clipPath><clipPath id="5899124a09"><path d="M 2.136719 16 L 56 16 L 56 73 L 2.136719 73 Z M 2.136719 16 " clip-rule="nonzero"/></clipPath><clipPath id="01e9731ca1"><path d="M 2.136719 19 L 11 19 L 11 56 L 2.136719 56 Z M 2.136719 19 " clip-rule="nonzero"/></clipPath></defs><rect x="-7.5" width="90" fill="rgba(0,0,0,0)" y="-7.5" height="89.999996" fill-opacity="1"/><rect x="-7.5" width="90" fill="rgba(0,0,0,0)" y="-7.5" height="89.999996" fill-opacity="1"/><rect x="-7.5" width="90" fill="rgba(0,0,0,0)" y="-7.5" height="89.999996" fill-opacity="1"/><g clip-path="url(#c77787fe2a)"><path fill="#ce93d8" d="M 72.636719 14.746094 L 72.636719 60.460938 C 72.636719 62.710938 71.242188 64.714844 69.144531 65.460938 L 53.601562 72.800781 L 55.011719 53.5625 L 55.011719 21.644531 L 53.601562 2.40625 L 69.144531 9.746094 C 71.242188 10.492188 72.636719 12.496094 72.636719 14.746094 Z M 72.636719 14.746094 " fill-opacity="1" fill-rule="nonzero"/></g><g clip-path="url(#1f06e499ae)"><path fill="#8e24aa" d="M 2.867188 55.007812 L 8.4375 58.464844 C 9.730469 59.246094 11.371094 59.113281 12.523438 58.136719 L 55.011719 23.308594 L 55.011719 4.539062 C 55.011719 2.414062 52.398438 1.421875 51 3.015625 L 10.949219 48.019531 Z M 2.867188 55.007812 " fill-opacity="1" fill-rule="nonzero"/></g><g clip-path="url(#5899124a09)"><path fill="#ab47bc" d="M 2.867188 20.199219 L 8.4375 16.742188 C 9.730469 15.960938 11.371094 16.09375 12.523438 17.070312 L 55.011719 51.902344 L 55.011719 70.671875 C 55.011719 72.796875 52.398438 73.789062 51 72.195312 L 10.949219 27.191406 Z M 2.867188 20.199219 " fill-opacity="1" fill-rule="nonzero"/></g><g clip-path="url(#01e9731ca1)"><path fill="#6a1b9a" d="M 10.949219 27.195312 L 10.949219 48.011719 L 5.308594 54.644531 C 4.285156 55.992188 2.136719 55.265625 2.136719 53.5625 L 2.136719 21.644531 C 2.136719 19.941406 4.285156 19.214844 5.308594 20.5625 Z M 10.949219 27.195312 " fill-opacity="1" fill-rule="nonzero"/></g></svg>