<svg xmlns="http://www.w3.org/2000/svg" xmlns:xlink="http://www.w3.org/1999/xlink" width="100" zoomAndPan="magnify" viewBox="0 0 75 74.999997" height="100" preserveAspectRatio="xMidYMid meet" version="1.0"><defs><clipPath id="82b0e81b75"><path d="M 3.5625 1.023438 L 69.5625 1.023438 L 69.5625 73.773438 L 3.5625 73.773438 Z M 3.5625 1.023438 " clip-rule="nonzero"/></clipPath><clipPath id="1662d39a23"><path d="M 3.5625 1.023438 L 69 1.023438 L 69 56 L 3.5625 56 Z M 3.5625 1.023438 " clip-rule="nonzero"/></clipPath><clipPath id="d72d2fc845"><path d="M 35 18 L 69.5625 18 L 69.5625 56 L 35 56 Z M 35 18 " clip-rule="nonzero"/></clipPath></defs><rect x="-7.5" width="90" fill="rgba(0,0,0,0)" y="-7.5" height="89.999996" fill-opacity="1"/><rect x="-7.5" width="90" fill="rgba(0,0,0,0)" y="-7.5" height="89.999996" fill-opacity="1"/><g clip-path="url(#82b0e81b75)"><path fill="#662079" d="M 34.667969 1.691406 C 35.839844 1.035156 37.285156 1.035156 38.457031 1.691406 C 44.253906 4.9375 61.703125 14.707031 67.5 17.953125 C 68.675781 18.609375 69.398438 19.824219 69.398438 21.136719 C 69.398438 27.628906 69.398438 47.167969 69.398438 53.660156 C 69.398438 54.976562 68.675781 56.1875 67.5 56.847656 C 61.703125 60.09375 44.257812 69.863281 38.457031 73.109375 C 37.28125 73.765625 35.839844 73.765625 34.667969 73.109375 C 28.867188 69.863281 11.421875 60.09375 5.621094 56.847656 C 4.449219 56.1875 3.726562 54.976562 3.726562 53.664062 C 3.726562 47.171875 3.726562 27.628906 3.726562 21.136719 C 3.726562 19.824219 4.449219 18.609375 5.625 17.953125 C 11.417969 14.707031 28.871094 4.9375 34.667969 1.691406 Z M 34.667969 1.691406 " fill-opacity="1" fill-rule="evenodd"/></g><g clip-path="url(#1662d39a23)"><path fill="#9c5098" d="M 4.253906 55.335938 C 3.792969 54.722656 3.726562 54.140625 3.726562 53.355469 C 3.726562 46.902344 3.726562 27.472656 3.726562 21.015625 C 3.726562 19.710938 4.449219 18.503906 5.617188 17.851562 C 11.394531 14.625 28.785156 4.910156 34.5625 1.679688 C 35.730469 1.027344 37.316406 1.039062 38.484375 1.695312 C 44.261719 4.921875 61.59375 14.550781 67.371094 17.78125 C 67.835938 18.042969 68.191406 18.359375 68.511719 18.773438 Z M 4.253906 55.335938 " fill-opacity="1" fill-rule="evenodd"/></g><path fill="#ffffff" d="M 36.5625 13.265625 C 49.914062 13.265625 60.757812 24.078125 60.757812 37.398438 C 60.757812 50.722656 49.914062 61.535156 36.5625 61.535156 C 23.210938 61.535156 12.367188 50.722656 12.367188 37.398438 C 12.367188 24.078125 23.210938 13.265625 36.5625 13.265625 Z M 36.5625 25.332031 C 43.238281 25.332031 48.660156 30.738281 48.660156 37.398438 C 48.660156 44.058594 43.238281 49.46875 36.5625 49.46875 C 29.886719 49.46875 24.464844 44.058594 24.464844 37.398438 C 24.464844 30.738281 29.886719 25.332031 36.5625 25.332031 Z M 36.5625 25.332031 " fill-opacity="1" fill-rule="evenodd"/><g clip-path="url(#d72d2fc845)"><path fill="#662079" d="M 68.507812 18.789062 C 69.398438 19.621094 69.382812 20.878906 69.382812 21.867188 C 69.382812 28.40625 69.328125 47.015625 69.398438 53.558594 C 69.402344 54.242188 69.179688 54.960938 68.839844 55.5 L 35.859375 37.398438 Z M 68.507812 18.789062 " fill-opacity="1" fill-rule="evenodd"/></g><path fill="#ffffff" d="M 53.84375 30.503906 L 55.570312 30.503906 L 55.570312 44.296875 L 53.84375 44.296875 Z M 59.027344 30.503906 L 60.757812 30.503906 L 60.757812 44.296875 L 59.027344 44.296875 Z M 59.027344 30.503906 " fill-opacity="1" fill-rule="evenodd"/><path fill="#ffffff" d="M 50.386719 39.125 L 64.210938 39.125 L 64.210938 40.847656 L 50.386719 40.847656 Z M 50.386719 33.953125 L 64.210938 33.953125 L 64.210938 35.675781 L 50.386719 35.675781 Z M 50.386719 33.953125 " fill-opacity="1" fill-rule="evenodd"/></svg>