<svg xmlns="http://www.w3.org/2000/svg" xmlns:xlink="http://www.w3.org/1999/xlink" width="100" zoomAndPan="magnify" viewBox="0 0 75 74.999997" height="100" preserveAspectRatio="xMidYMid meet" version="1.0"><defs><clipPath id="98fb2c335c"><path d="M 1.875 2.625 L 72.375 2.625 L 72.375 73.125 L 1.875 73.125 Z M 1.875 2.625 " clip-rule="nonzero"/></clipPath></defs><rect x="-7.5" width="90" fill="rgba(0,0,0,0)" y="-7.5" height="89.999996" fill-opacity="1"/><rect x="-7.5" width="90" fill="rgba(0,0,0,0)" y="-7.5" height="89.999996" fill-opacity="1"/><rect x="-7.5" width="90" fill="rgba(0,0,0,0)" y="-7.5" height="89.999996" fill-opacity="1"/><g clip-path="url(#98fb2c335c)"><path fill="#ffffff" d="M 1.875 2.625 L 1.875 73.125 L 72.375 73.125 L 72.375 2.625 Z M 8.285156 9.035156 L 65.964844 9.035156 L 65.964844 66.714844 L 8.285156 66.714844 Z M 21.101562 21.851562 L 21.101562 53.898438 L 27.511719 53.898438 L 27.511719 21.851562 Z M 33.921875 21.851562 L 33.921875 28.261719 L 53.148438 28.261719 L 53.148438 21.851562 Z M 33.921875 34.671875 L 33.921875 41.078125 L 53.148438 41.078125 L 53.148438 34.671875 Z M 33.921875 47.488281 L 33.921875 53.898438 L 53.148438 53.898438 L 53.148438 47.488281 Z M 33.921875 47.488281 " fill-opacity="1" fill-rule="nonzero"/></g></svg>