<svg xmlns="http://www.w3.org/2000/svg" xmlns:xlink="http://www.w3.org/1999/xlink" width="100" zoomAndPan="magnify" viewBox="0 0 75 74.999997" height="100" preserveAspectRatio="xMidYMid meet" version="1.0"><defs><clipPath id="27d17d1870"><path d="M 23.863281 41.609375 L 72.613281 41.609375 L 72.613281 70.859375 L 23.863281 70.859375 Z M 23.863281 41.609375 " clip-rule="nonzero"/></clipPath><clipPath id="5f74f3d769"><path d="M 3.300781 4.023438 L 46.050781 4.023438 L 46.050781 46.773438 L 3.300781 46.773438 Z M 3.300781 4.023438 " clip-rule="nonzero"/></clipPath><clipPath id="8f56167256"><path d="M 3.300781 4.023438 L 46.050781 4.023438 L 46.050781 46.773438 L 3.300781 46.773438 Z M 3.300781 4.023438 " clip-rule="nonzero"/></clipPath></defs><rect x="-7.5" width="90" fill="rgba(0,0,0,0)" y="-7.5" height="89.999996" fill-opacity="1"/><rect x="-7.5" width="90" fill="rgba(0,0,0,0)" y="-7.5" height="89.999996" fill-opacity="1"/><rect x="-7.5" width="90" fill="rgba(0,0,0,0)" y="-7.5" height="89.999996" fill-opacity="1"/><g clip-path="url(#27d17d1870)"><path fill="#9b5c8f" d="M 28.484375 41.609375 L 67.992188 41.609375 C 70.492188 41.609375 72.515625 43.660156 72.515625 46.191406 L 72.515625 61.457031 C 72.515625 63.988281 70.492188 66.039062 67.992188 66.039062 L 53.824219 66.039062 L 55.769531 70.859375 L 47.214844 66.039062 L 28.503906 66.039062 C 26.003906 66.039062 23.976562 63.988281 23.976562 61.457031 L 23.976562 46.191406 C 23.957031 43.679688 25.980469 41.609375 28.484375 41.609375 Z M 28.484375 41.609375 " fill-opacity="1" fill-rule="nonzero"/></g><path fill="#ffffff" d="M 26.742188 45.785156 C 27.019531 45.40625 27.433594 45.207031 27.984375 45.167969 C 28.992188 45.085938 29.5625 45.566406 29.703125 46.605469 C 30.3125 50.777344 30.984375 54.3125 31.695312 57.210938 L 36.015625 48.882812 C 36.410156 48.121094 36.902344 47.722656 37.496094 47.683594 C 38.363281 47.625 38.898438 48.183594 39.113281 49.359375 C 39.605469 52.015625 40.238281 54.273438 40.988281 56.191406 C 41.5 51.117188 42.371094 47.464844 43.59375 45.207031 C 43.886719 44.648438 44.324219 44.367188 44.894531 44.328125 C 45.347656 44.289062 45.765625 44.425781 46.136719 44.726562 C 46.511719 45.027344 46.710938 45.40625 46.75 45.867188 C 46.769531 46.226562 46.710938 46.523438 46.550781 46.824219 C 45.78125 48.261719 45.152344 50.679688 44.640625 54.035156 C 44.144531 57.289062 43.96875 59.828125 44.085938 61.644531 C 44.125 62.144531 44.046875 62.582031 43.847656 62.964844 C 43.613281 63.402344 43.257812 63.640625 42.804688 63.679688 C 42.289062 63.722656 41.757812 63.480469 41.246094 62.941406 C 39.410156 61.046875 37.949219 58.207031 36.882812 54.433594 C 35.601562 56.992188 34.65625 58.90625 34.042969 60.1875 C 32.878906 62.441406 31.890625 63.601562 31.0625 63.660156 C 30.53125 63.703125 30.078125 63.242188 29.683594 62.285156 C 28.675781 59.667969 27.589844 54.613281 26.425781 47.125 C 26.347656 46.605469 26.464844 46.144531 26.742188 45.785156 Z M 69.144531 48.921875 C 68.433594 47.664062 67.386719 46.902344 65.988281 46.605469 C 65.613281 46.523438 65.257812 46.484375 64.921875 46.484375 C 63.027344 46.484375 61.488281 47.484375 60.285156 49.480469 C 59.257812 51.179688 58.746094 53.054688 58.746094 55.113281 C 58.746094 56.652344 59.0625 57.96875 59.695312 59.066406 C 60.402344 60.324219 61.449219 61.085938 62.851562 61.382812 C 63.222656 61.464844 63.582031 61.503906 63.917969 61.503906 C 65.828125 61.503906 67.367188 60.507812 68.550781 58.507812 C 69.578125 56.789062 70.089844 54.914062 70.089844 52.855469 C 70.109375 51.296875 69.773438 50 69.144531 48.921875 Z M 66.65625 54.453125 C 66.382812 55.773438 65.886719 56.75 65.15625 57.410156 C 64.585938 57.929688 64.054688 58.148438 63.558594 58.050781 C 63.085938 57.949219 62.691406 57.53125 62.394531 56.75 C 62.160156 56.132812 62.039062 55.511719 62.039062 54.933594 C 62.039062 54.433594 62.082031 53.933594 62.179688 53.476562 C 62.359375 52.65625 62.691406 51.855469 63.222656 51.097656 C 63.875 50.121094 64.566406 49.71875 65.277344 49.859375 C 65.75 49.960938 66.144531 50.378906 66.441406 51.160156 C 66.679688 51.777344 66.796875 52.398438 66.796875 52.976562 C 66.796875 53.496094 66.757812 53.996094 66.65625 54.453125 Z M 56.792969 48.921875 C 56.082031 47.664062 55.015625 46.902344 53.636719 46.605469 C 53.261719 46.523438 52.90625 46.484375 52.570312 46.484375 C 50.675781 46.484375 49.136719 47.484375 47.933594 49.480469 C 46.90625 51.179688 46.394531 53.054688 46.394531 55.113281 C 46.394531 56.652344 46.710938 57.96875 47.339844 59.066406 C 48.050781 60.324219 49.097656 61.085938 50.496094 61.382812 C 50.875 61.464844 51.226562 61.503906 51.5625 61.503906 C 53.476562 61.503906 55.015625 60.507812 56.203125 58.507812 C 57.226562 56.789062 57.738281 54.914062 57.738281 52.855469 C 57.738281 51.296875 57.425781 50 56.792969 48.921875 Z M 54.285156 54.453125 C 54.011719 55.773438 53.515625 56.75 52.785156 57.410156 C 52.214844 57.929688 51.683594 58.148438 51.1875 58.050781 C 50.714844 57.949219 50.320312 57.53125 50.023438 56.75 C 49.789062 56.132812 49.667969 55.511719 49.667969 54.933594 C 49.667969 54.433594 49.710938 53.933594 49.808594 53.476562 C 49.984375 52.65625 50.320312 51.855469 50.855469 51.097656 C 51.503906 50.121094 52.195312 49.71875 52.90625 49.859375 C 53.378906 49.960938 53.773438 50.378906 54.070312 51.160156 C 54.308594 51.777344 54.425781 52.398438 54.425781 52.976562 C 54.445312 53.496094 54.382812 53.996094 54.285156 54.453125 Z M 54.285156 54.453125 " fill-opacity="1" fill-rule="nonzero"/><g clip-path="url(#5f74f3d769)"><path fill="#ffffff" d="M 46.050781 25.398438 C 46.050781 26.097656 46.015625 26.796875 45.945312 27.492188 C 45.878906 28.191406 45.777344 28.882812 45.640625 29.566406 C 45.503906 30.253906 45.332031 30.933594 45.128906 31.601562 C 44.925781 32.273438 44.691406 32.929688 44.421875 33.578125 C 44.15625 34.226562 43.855469 34.855469 43.527344 35.472656 C 43.195312 36.09375 42.835938 36.691406 42.449219 37.273438 C 42.058594 37.855469 41.640625 38.417969 41.199219 38.957031 C 40.753906 39.5 40.285156 40.019531 39.789062 40.511719 C 39.292969 41.007812 38.777344 41.476562 38.234375 41.921875 C 37.695312 42.367188 37.132812 42.78125 36.550781 43.171875 C 35.96875 43.558594 35.367188 43.917969 34.75 44.25 C 34.132812 44.578125 33.5 44.878906 32.855469 45.144531 C 32.207031 45.414062 31.550781 45.648438 30.878906 45.851562 C 30.210938 46.054688 29.53125 46.226562 28.84375 46.363281 C 28.160156 46.5 27.46875 46.601562 26.769531 46.671875 C 26.074219 46.738281 25.375 46.773438 24.675781 46.773438 C 23.976562 46.773438 23.277344 46.738281 22.578125 46.671875 C 21.882812 46.601562 21.191406 46.5 20.503906 46.363281 C 19.816406 46.226562 19.140625 46.054688 18.46875 45.851562 C 17.800781 45.648438 17.140625 45.414062 16.496094 45.144531 C 15.847656 44.878906 15.214844 44.578125 14.597656 44.25 C 13.980469 43.917969 13.382812 43.558594 12.800781 43.171875 C 12.21875 42.78125 11.65625 42.367188 11.113281 41.921875 C 10.574219 41.476562 10.054688 41.007812 9.5625 40.511719 C 9.066406 40.019531 8.597656 39.5 8.152344 38.957031 C 7.707031 38.417969 7.292969 37.855469 6.902344 37.273438 C 6.511719 36.691406 6.152344 36.09375 5.824219 35.472656 C 5.492188 34.855469 5.195312 34.226562 4.925781 33.578125 C 4.660156 32.929688 4.421875 32.273438 4.21875 31.601562 C 4.015625 30.933594 3.847656 30.253906 3.710938 29.566406 C 3.574219 28.882812 3.472656 28.191406 3.402344 27.492188 C 3.335938 26.796875 3.300781 26.097656 3.300781 25.398438 C 3.300781 24.699219 3.335938 24 3.402344 23.304688 C 3.472656 22.605469 3.574219 21.914062 3.710938 21.226562 C 3.847656 20.542969 4.015625 19.863281 4.21875 19.195312 C 4.421875 18.523438 4.660156 17.863281 4.925781 17.21875 C 5.195312 16.570312 5.492188 15.941406 5.824219 15.320312 C 6.152344 14.703125 6.511719 14.105469 6.902344 13.523438 C 7.292969 12.941406 7.707031 12.378906 8.152344 11.839844 C 8.597656 11.296875 9.066406 10.777344 9.5625 10.285156 C 10.054688 9.789062 10.574219 9.320312 11.113281 8.875 C 11.65625 8.429688 12.21875 8.015625 12.800781 7.625 C 13.382812 7.238281 13.980469 6.878906 14.597656 6.546875 C 15.214844 6.21875 15.847656 5.917969 16.496094 5.648438 C 17.140625 5.382812 17.800781 5.148438 18.46875 4.945312 C 19.140625 4.742188 19.816406 4.570312 20.503906 4.433594 C 21.191406 4.296875 21.882812 4.195312 22.578125 4.125 C 23.277344 4.058594 23.976562 4.023438 24.675781 4.023438 C 25.375 4.023438 26.074219 4.058594 26.769531 4.125 C 27.46875 4.195312 28.160156 4.296875 28.84375 4.433594 C 29.53125 4.570312 30.210938 4.742188 30.878906 4.945312 C 31.550781 5.148438 32.207031 5.382812 32.855469 5.648438 C 33.5 5.917969 34.132812 6.21875 34.75 6.546875 C 35.367188 6.878906 35.96875 7.238281 36.550781 7.625 C 37.132812 8.015625 37.695312 8.429688 38.234375 8.875 C 38.777344 9.320312 39.292969 9.789062 39.789062 10.285156 C 40.285156 10.777344 40.753906 11.296875 41.199219 11.839844 C 41.640625 12.378906 42.058594 12.941406 42.449219 13.523438 C 42.835938 14.105469 43.195312 14.703125 43.527344 15.320312 C 43.855469 15.941406 44.15625 16.570312 44.421875 17.21875 C 44.691406 17.863281 44.925781 18.523438 45.128906 19.195312 C 45.332031 19.863281 45.503906 20.542969 45.640625 21.226562 C 45.777344 21.914062 45.878906 22.605469 45.945312 23.304688 C 46.015625 24 46.050781 24.699219 46.050781 25.398438 Z M 46.050781 25.398438 " fill-opacity="1" fill-rule="nonzero"/></g><path fill="#01579b" d="M 6.34375 25.398438 C 6.34375 32.65625 10.558594 38.925781 16.675781 41.898438 L 7.929688 17.933594 C 6.910156 20.21875 6.34375 22.734375 6.34375 25.398438 Z M 37.054688 24.476562 C 37.054688 22.210938 36.238281 20.636719 35.542969 19.421875 C 34.613281 17.898438 33.738281 16.628906 33.738281 15.121094 C 33.738281 13.441406 35.023438 11.867188 36.820312 11.867188 C 36.902344 11.867188 36.976562 11.871094 37.058594 11.875 C 33.796875 8.878906 29.449219 7.0625 24.675781 7.0625 C 18.269531 7.0625 12.632812 10.355469 9.355469 15.332031 C 9.785156 15.339844 10.191406 15.347656 10.539062 15.347656 C 12.449219 15.347656 15.421875 15.121094 15.421875 15.121094 C 16.410156 15.054688 16.527344 16.507812 15.535156 16.628906 C 15.535156 16.628906 14.546875 16.75 13.441406 16.800781 L 20.121094 36.664062 L 24.132812 24.632812 L 21.273438 16.800781 C 20.289062 16.75 19.351562 16.628906 19.351562 16.628906 C 18.363281 16.5625 18.476562 15.054688 19.464844 15.121094 C 19.464844 15.121094 22.5 15.347656 24.296875 15.347656 C 26.21875 15.347656 29.183594 15.121094 29.183594 15.121094 C 30.171875 15.054688 30.289062 16.507812 29.304688 16.628906 C 29.304688 16.628906 28.304688 16.75 27.203125 16.800781 L 33.824219 36.511719 L 35.660156 30.402344 C 36.589844 28.019531 37.054688 26.050781 37.054688 24.476562 Z M 24.996094 27 L 19.496094 42.984375 C 21.140625 43.472656 22.875 43.734375 24.675781 43.734375 C 26.808594 43.734375 28.855469 43.359375 30.765625 42.691406 C 30.722656 42.613281 30.667969 42.527344 30.632812 42.441406 Z M 40.765625 16.597656 C 40.847656 17.179688 40.890625 17.808594 40.890625 18.480469 C 40.890625 20.347656 40.539062 22.4375 39.492188 25.058594 L 33.894531 41.253906 C 39.347656 38.074219 43.007812 32.164062 43.007812 25.398438 C 43.007812 22.210938 42.195312 19.214844 40.765625 16.597656 Z M 40.765625 16.597656 " fill-opacity="1" fill-rule="nonzero"/><g clip-path="url(#8f56167256)"><path fill="#01579b" d="M 3.300781 25.398438 C 3.300781 37.179688 12.886719 46.773438 24.675781 46.773438 C 36.464844 46.773438 46.050781 37.179688 46.050781 25.398438 C 46.050781 13.617188 36.464844 4.023438 24.675781 4.023438 C 12.886719 4.023438 3.300781 13.617188 3.300781 25.398438 Z M 4.28125 25.398438 C 4.28125 14.160156 13.425781 5.011719 24.675781 5.011719 C 35.921875 5.011719 45.070312 14.160156 45.070312 25.398438 C 45.070312 36.636719 35.921875 45.789062 24.675781 45.789062 C 13.429688 45.789062 4.28125 36.636719 4.28125 25.398438 Z M 4.28125 25.398438 " fill-opacity="1" fill-rule="nonzero"/></g></svg>