<svg xmlns="http://www.w3.org/2000/svg" xmlns:xlink="http://www.w3.org/1999/xlink" width="100" zoomAndPan="magnify" viewBox="0 0 75 74.999997" height="100" preserveAspectRatio="xMidYMid meet" version="1.0"><defs><clipPath id="8709e15439"><path d="M 0.9375 0.9375 L 74.4375 0.9375 L 74.4375 66 L 0.9375 66 Z M 0.9375 0.9375 " clip-rule="nonzero"/></clipPath><clipPath id="5fd4db01e2"><path d="M 37 66 L 54 66 L 54 74.4375 L 37 74.4375 Z M 37 66 " clip-rule="nonzero"/></clipPath><clipPath id="b093f7903c"><path d="M 21 66 L 38 66 L 38 74.4375 L 21 74.4375 Z M 21 66 " clip-rule="nonzero"/></clipPath></defs><rect x="-7.5" width="90" fill="rgba(0,0,0,0)" y="-7.5" height="89.999996" fill-opacity="1"/><rect x="-7.5" width="90" fill="rgba(0,0,0,0)" y="-7.5" height="89.999996" fill-opacity="1"/><g clip-path="url(#8709e15439)"><path fill="#a5dbe8" d="M 24.761719 57.332031 C 25.347656 57.070312 25.941406 56.828125 26.542969 56.601562 C 27.21875 56.347656 27.902344 56.109375 28.597656 55.902344 C 29.457031 55.640625 30.324219 55.40625 31.207031 55.21875 C 32.394531 54.96875 33.597656 54.78125 34.804688 54.664062 C 34.128906 56.796875 33.375 58.917969 32.5625 61.03125 C 32.601562 61.4375 32.617188 61.847656 32.628906 62.257812 C 34.265625 61.9375 35.957031 61.765625 37.6875 61.765625 C 39.417969 61.765625 41.109375 61.9375 42.746094 62.257812 C 42.757812 61.847656 42.773438 61.4375 42.8125 61.03125 C 41.996094 58.917969 41.246094 56.796875 40.570312 54.664062 C 41.777344 54.78125 42.980469 54.96875 44.167969 55.21875 C 45.050781 55.40625 45.917969 55.640625 46.777344 55.902344 C 47.472656 56.109375 48.15625 56.347656 48.832031 56.601562 C 49.433594 56.828125 50.027344 57.070312 50.613281 57.332031 C 54.777344 59.1875 58.574219 61.9375 61.6875 65.503906 C 69.492188 58.765625 74.4375 48.808594 74.4375 37.6875 C 74.4375 17.390625 57.984375 0.9375 37.6875 0.9375 C 17.390625 0.9375 0.9375 17.390625 0.9375 37.6875 C 0.9375 48.808594 5.882812 58.765625 13.6875 65.503906 C 16.800781 61.9375 20.597656 59.1875 24.761719 57.332031 " fill-opacity="1" fill-rule="nonzero"/></g><path fill="#525353" d="M 50.613281 57.332031 L 52.894531 65.175781 L 53.542969 65.207031 C 53.964844 65.207031 54.257812 65.316406 54.257812 65.734375 C 54.257812 66.4375 54.292969 67.21875 54.359375 67.902344 C 54.929688 68.386719 55.621094 68.929688 56.144531 69.460938 C 58.117188 68.3125 59.972656 66.988281 61.6875 65.503906 C 58.574219 61.9375 54.777344 59.1875 50.613281 57.332031 " fill-opacity="1" fill-rule="nonzero"/><path fill="#525353" d="M 46.15625 57.25 L 48.832031 56.601562 C 48.15625 56.347656 47.472656 56.109375 46.777344 55.902344 C 45.917969 55.640625 45.050781 55.40625 44.167969 55.21875 C 42.980469 54.96875 41.777344 54.78125 40.570312 54.664062 C 41.246094 56.796875 41.996094 58.917969 42.8125 61.03125 C 42.773438 61.4375 42.757812 61.847656 42.746094 62.257812 C 44.644531 62.632812 46.511719 63.285156 48.234375 64.046875 L 46.15625 57.25 " fill-opacity="1" fill-rule="nonzero"/><path fill="#000000" d="M 19.226562 69.460938 C 19.65625 69.707031 20.085938 69.953125 20.523438 70.183594 C 20.675781 69.449219 20.921875 68.425781 20.996094 67.667969 C 20.429688 68.148438 19.753906 68.929688 19.226562 69.460938 " fill-opacity="1" fill-rule="nonzero"/><path fill="#000000" d="M 48.191406 63.980469 C 46.46875 63.21875 44.644531 62.632812 42.746094 62.257812 C 41.109375 61.9375 39.417969 61.765625 37.6875 61.765625 C 35.957031 61.765625 34.265625 61.9375 32.628906 62.257812 C 30.730469 62.632812 28.75 63.199219 27.023438 63.964844 L 26.839844 65.105469 L 48.535156 65.105469 L 48.191406 63.980469 " fill-opacity="1" fill-rule="nonzero"/><path fill="#525353" d="M 20.929688 67.886719 C 20.996094 67.203125 21.046875 66.589844 21.046875 65.894531 C 21.046875 65.472656 21.332031 65.203125 21.753906 65.203125 L 22.441406 65.179688 L 24.761719 57.332031 C 20.597656 59.1875 16.800781 61.9375 13.6875 65.503906 C 15.402344 66.988281 17.257812 68.3125 19.226562 69.460938 C 19.753906 68.929688 20.300781 68.425781 20.867188 67.941406 " fill-opacity="1" fill-rule="nonzero"/><path fill="#000000" d="M 54.640625 69.28125 C 54.789062 70.027344 54.824219 70.175781 54.851562 70.183594 C 55.289062 69.953125 55.722656 69.707031 56.144531 69.460938 C 55.621094 68.929688 55.058594 68.40625 54.488281 67.925781 L 54.640625 69.28125 " fill-opacity="1" fill-rule="nonzero"/><path fill="#aa9678" d="M 48.191406 63.980469 L 48.535156 65.105469 L 52.96875 65.105469 L 50.613281 57.332031 C 50.027344 57.070312 49.433594 56.828125 48.832031 56.601562 L 46.15625 57.25 L 48.191406 63.980469 " fill-opacity="1" fill-rule="nonzero"/><path fill="#c4b6a1" d="M 22.480469 66.675781 C 22.503906 66.660156 22.527344 66.644531 22.550781 66.628906 L 22.484375 66.628906 C 22.484375 66.644531 22.484375 66.660156 22.480469 66.675781 " fill-opacity="1" fill-rule="nonzero"/><path fill="#aa9678" d="M 52.890625 66.628906 L 52.824219 66.628906 C 52.847656 66.644531 52.871094 66.660156 52.894531 66.675781 C 52.894531 66.660156 52.890625 66.644531 52.890625 66.628906 " fill-opacity="1" fill-rule="nonzero"/><g clip-path="url(#5fd4db01e2)"><path fill="#aa9678" d="M 52.8125 66.511719 L 37.65625 66.53125 L 37.6875 74.4375 C 43.328125 74.4375 48.671875 73.164062 53.445312 70.890625 C 53.136719 69.523438 53.105469 68.046875 53.054688 66.609375 C 53.03125 66.59375 52.8125 66.511719 52.8125 66.511719 " fill-opacity="1" fill-rule="nonzero"/></g><g clip-path="url(#b093f7903c)"><path fill="#c4b6a1" d="M 37.664062 66.566406 C 37.664062 66.566406 22.421875 66.542969 22.398438 66.5625 C 22.347656 67.996094 22.050781 69.703125 21.925781 70.890625 C 26.703125 73.164062 32.046875 74.4375 37.6875 74.4375 L 37.695312 66.589844 L 37.664062 66.566406 " fill-opacity="1" fill-rule="nonzero"/></g><path fill="#525353" d="M 48.210938 59.863281 C 48.097656 59.734375 47.984375 59.601562 47.867188 59.445312 C 47.984375 59.601562 48.097656 59.734375 48.210938 59.863281 " fill-opacity="1" fill-rule="nonzero"/><path fill="#aa9678" d="M 49.054688 60.703125 C 49.054688 60.703125 49.058594 60.710938 49.0625 60.726562 C 49.058594 60.710938 49.054688 60.703125 49.054688 60.703125 C 49.054688 60.703125 48.683594 60.40625 48.210938 59.863281 C 48.683594 60.40625 49.054688 60.703125 49.054688 60.703125 " fill-opacity="1" fill-rule="nonzero"/><path fill="#676a6a" d="M 61.722656 37.449219 C 61.722656 37.457031 61.726562 37.464844 61.726562 37.476562 C 61.730469 37.484375 61.730469 37.488281 61.730469 37.496094 C 61.746094 37.636719 61.757812 37.785156 61.757812 37.929688 C 61.757812 37.957031 61.765625 37.984375 61.765625 38.011719 L 61.765625 38.03125 C 61.765625 38.0625 61.757812 38.089844 61.757812 38.117188 C 61.757812 38.261719 61.746094 38.40625 61.730469 38.542969 L 61.730469 38.546875 C 61.730469 38.554688 61.730469 38.558594 61.726562 38.566406 C 61.726562 38.578125 61.722656 38.589844 61.722656 38.601562 C 61.703125 38.75 61.675781 38.894531 61.636719 39.035156 L 61.644531 39.03125 C 61.644531 39.027344 61.644531 39.027344 61.648438 39.027344 L 62.609375 38.019531 L 61.636719 37.003906 C 61.675781 37.148438 61.703125 37.292969 61.722656 37.449219 " fill-opacity="1" fill-rule="nonzero"/><path fill="#000000" d="M 61.722656 38.601562 C 61.722656 38.582031 61.730469 38.5625 61.730469 38.542969 C 61.746094 38.40625 61.757812 38.261719 61.757812 38.117188 C 61.757812 38.082031 61.765625 38.054688 61.765625 38.019531 C 61.765625 37.992188 61.757812 37.964844 61.757812 37.929688 C 61.757812 37.785156 61.746094 37.636719 61.730469 37.496094 C 61.730469 37.480469 61.722656 37.464844 61.722656 37.449219 C 61.703125 37.292969 61.675781 37.148438 61.636719 37.003906 C 61.625 36.957031 61.609375 36.914062 61.59375 36.863281 C 61.507812 36.578125 61.386719 36.320312 61.246094 36.109375 C 61.226562 36.082031 61.207031 36.058594 61.191406 36.027344 C 61.148438 35.976562 61.113281 35.925781 61.070312 35.882812 C 61.007812 35.816406 60.945312 35.753906 60.878906 35.707031 C 60.855469 35.6875 60.828125 35.671875 60.800781 35.65625 C 60.746094 35.617188 60.6875 35.585938 60.628906 35.5625 C 60.601562 35.550781 60.574219 35.539062 60.546875 35.53125 C 60.460938 35.503906 60.375 35.488281 60.285156 35.488281 C 60.195312 35.488281 60.109375 35.503906 60.023438 35.53125 C 59.996094 35.539062 59.96875 35.550781 59.945312 35.5625 C 59.882812 35.585938 59.824219 35.617188 59.765625 35.65625 C 59.742188 35.671875 59.714844 35.6875 59.6875 35.703125 C 59.621094 35.753906 59.558594 35.816406 59.5 35.882812 C 59.457031 35.925781 59.417969 35.976562 59.382812 36.027344 C 59.363281 36.058594 59.339844 36.082031 59.320312 36.109375 C 59.179688 36.324219 59.0625 36.578125 58.976562 36.863281 C 58.972656 36.875 58.96875 36.886719 58.964844 36.898438 C 58.929688 37.03125 58.894531 37.171875 58.871094 37.3125 C 58.863281 37.355469 58.851562 37.398438 58.847656 37.445312 C 58.824219 37.601562 58.8125 37.769531 58.808594 37.941406 C 58.808594 37.964844 58.808594 37.984375 58.808594 38.007812 L 58.8125 38.007812 C 58.8125 39.410156 59.472656 40.542969 60.292969 40.542969 C 60.433594 40.542969 60.566406 40.507812 60.695312 40.445312 C 60.714844 40.433594 60.738281 40.421875 60.757812 40.414062 C 60.8125 40.378906 60.863281 40.347656 60.914062 40.304688 C 60.945312 40.28125 60.96875 40.257812 60.996094 40.230469 C 61.0625 40.171875 61.121094 40.101562 61.183594 40.023438 C 61.222656 39.972656 61.261719 39.917969 61.300781 39.859375 C 61.324219 39.820312 61.34375 39.777344 61.367188 39.738281 C 61.410156 39.664062 61.449219 39.582031 61.484375 39.496094 C 61.496094 39.46875 61.507812 39.4375 61.519531 39.40625 C 61.566406 39.289062 61.605469 39.164062 61.636719 39.035156 C 61.675781 38.894531 61.703125 38.75 61.722656 38.601562 Z M 60.335938 37.683594 C 60.03125 37.683594 59.785156 37.257812 59.785156 36.734375 C 59.785156 36.207031 60.03125 35.785156 60.335938 35.785156 C 60.644531 35.785156 60.890625 36.207031 60.890625 36.734375 C 60.890625 37.257812 60.644531 37.683594 60.335938 37.683594 Z M 60.335938 37.683594 " fill-opacity="1" fill-rule="nonzero"/><path fill="#ffffff" d="M 60.335938 35.785156 C 60.03125 35.785156 59.785156 36.207031 59.785156 36.734375 C 59.785156 37.257812 60.03125 37.683594 60.335938 37.683594 C 60.644531 37.683594 60.890625 37.257812 60.890625 36.734375 C 60.890625 36.207031 60.644531 35.785156 60.335938 35.785156 " fill-opacity="1" fill-rule="nonzero"/><path fill="#909393" d="M 58.976562 36.863281 C 59.0625 36.578125 59.179688 36.324219 59.320312 36.109375 C 59.339844 36.082031 59.363281 36.058594 59.382812 36.027344 C 59.417969 35.976562 59.457031 35.925781 59.5 35.882812 C 59.558594 35.816406 59.621094 35.753906 59.6875 35.703125 C 59.714844 35.6875 59.742188 35.671875 59.765625 35.65625 C 59.824219 35.617188 59.882812 35.585938 59.945312 35.5625 C 59.96875 35.550781 59.996094 35.539062 60.023438 35.53125 C 60.109375 35.503906 60.195312 35.488281 60.285156 35.488281 C 60.375 35.488281 60.460938 35.503906 60.546875 35.53125 C 60.574219 35.539062 60.601562 35.550781 60.628906 35.5625 C 60.6875 35.585938 60.746094 35.617188 60.800781 35.65625 C 60.828125 35.671875 60.855469 35.6875 60.878906 35.707031 C 60.945312 35.753906 61.007812 35.816406 61.070312 35.882812 C 61.113281 35.925781 61.148438 35.976562 61.191406 36.027344 C 61.207031 36.058594 61.226562 36.082031 61.246094 36.109375 C 61.386719 36.320312 61.507812 36.578125 61.59375 36.863281 L 60.285156 30.871094 L 58.976562 36.863281 " fill-opacity="1" fill-rule="nonzero"/><path fill="#000000" d="M 42.941406 37.964844 C 42.9375 37.84375 42.933594 37.726562 42.917969 37.605469 C 42.902344 37.488281 42.882812 37.375 42.859375 37.261719 C 42.859375 37.257812 42.859375 37.257812 42.859375 37.253906 C 42.832031 37.140625 42.804688 37.035156 42.765625 36.929688 C 42.765625 36.925781 42.765625 36.921875 42.761719 36.921875 C 42.730469 36.816406 42.6875 36.710938 42.644531 36.609375 C 42.644531 36.609375 42.644531 36.605469 42.640625 36.601562 C 42.59375 36.5 42.546875 36.402344 42.488281 36.304688 C 42.320312 36.011719 42.113281 35.742188 41.867188 35.511719 C 41.558594 35.214844 41.191406 34.976562 40.792969 34.8125 C 40.789062 34.8125 40.785156 34.808594 40.78125 34.808594 C 40.585938 34.726562 40.375 34.664062 40.164062 34.621094 C 40.15625 34.617188 40.152344 34.617188 40.144531 34.617188 C 39.929688 34.574219 39.707031 34.550781 39.480469 34.550781 C 39.257812 34.550781 39.039062 34.574219 38.832031 34.617188 C 38.820312 34.617188 38.8125 34.617188 38.808594 34.621094 C 38.59375 34.660156 38.394531 34.722656 38.199219 34.800781 C 38.191406 34.800781 38.1875 34.804688 38.179688 34.808594 C 37.984375 34.886719 37.796875 34.984375 37.617188 35.101562 C 37.4375 35.214844 37.269531 35.347656 37.117188 35.492188 L 37.113281 35.503906 L 37.097656 35.503906 C 36.851562 35.742188 36.640625 36.011719 36.46875 36.308594 C 36.46875 36.3125 36.46875 36.316406 36.464844 36.320312 C 36.414062 36.410156 36.367188 36.503906 36.324219 36.601562 C 36.316406 36.609375 36.3125 36.621094 36.308594 36.632812 C 36.269531 36.722656 36.234375 36.816406 36.203125 36.90625 C 36.199219 36.921875 36.1875 36.941406 36.183594 36.960938 C 36.15625 37.046875 36.132812 37.136719 36.113281 37.226562 C 36.109375 37.25 36.101562 37.277344 36.09375 37.304688 C 36.074219 37.390625 36.0625 37.480469 36.050781 37.574219 C 36.046875 37.597656 36.042969 37.628906 36.039062 37.652344 C 36.023438 37.773438 36.019531 37.894531 36.019531 38.015625 C 36.019531 38.246094 36.042969 38.46875 36.085938 38.683594 C 36.085938 38.691406 36.085938 38.691406 36.089844 38.699219 C 36.132812 38.914062 36.195312 39.121094 36.273438 39.320312 C 36.277344 39.324219 36.277344 39.328125 36.28125 39.328125 C 36.445312 39.734375 36.6875 40.097656 36.984375 40.410156 C 37.21875 40.65625 37.492188 40.867188 37.789062 41.035156 C 37.789062 41.035156 37.789062 41.035156 37.792969 41.039062 C 37.886719 41.089844 37.984375 41.136719 38.082031 41.179688 C 38.089844 41.183594 38.09375 41.1875 38.105469 41.191406 C 38.195312 41.230469 38.289062 41.265625 38.382812 41.296875 C 38.398438 41.300781 38.417969 41.3125 38.429688 41.3125 C 38.519531 41.34375 38.609375 41.367188 38.699219 41.386719 C 38.722656 41.390625 38.746094 41.398438 38.773438 41.40625 C 38.859375 41.421875 38.949219 41.433594 39.039062 41.445312 C 39.070312 41.449219 39.09375 41.457031 39.121094 41.460938 C 39.242188 41.472656 39.363281 41.476562 39.480469 41.476562 C 39.957031 41.476562 40.414062 41.378906 40.828125 41.203125 C 41.035156 41.117188 41.234375 41.011719 41.417969 40.886719 C 41.789062 40.640625 42.101562 40.320312 42.351562 39.949219 C 42.476562 39.765625 42.585938 39.570312 42.671875 39.363281 C 42.847656 38.949219 42.945312 38.496094 42.945312 38.015625 C 42.945312 38.007812 42.941406 38 42.941406 37.992188 Z M 39.480469 37.5625 C 38.765625 37.5625 38.179688 36.976562 38.179688 36.257812 C 38.179688 35.539062 38.765625 34.957031 39.480469 34.957031 C 40.199219 34.957031 40.78125 35.539062 40.78125 36.257812 C 40.78125 36.976562 40.199219 37.5625 39.480469 37.5625 Z M 39.480469 37.5625 " fill-opacity="1" fill-rule="nonzero"/><path fill="#ffffff" d="M 39.480469 34.957031 C 38.765625 34.957031 38.179688 35.539062 38.179688 36.257812 C 38.179688 36.976562 38.765625 37.5625 39.480469 37.5625 C 40.199219 37.5625 40.78125 36.976562 40.78125 36.257812 C 40.78125 35.539062 40.199219 34.957031 39.480469 34.957031 " fill-opacity="1" fill-rule="nonzero"/><path fill="#bbbcbd" d="M 37.097656 35.503906 L 37.113281 35.503906 L 37.117188 35.492188 L 39.503906 28.199219 L 39.503906 26.472656 C 38.171875 26.199219 36.804688 26.050781 35.40625 26.050781 C 34.941406 26.050781 34.480469 26.070312 34.019531 26.101562 C 33.953125 26.105469 33.886719 26.109375 33.816406 26.117188 C 31.425781 26.296875 29.066406 26.921875 26.886719 27.917969 C 25.011719 28.773438 23.273438 29.898438 21.710938 31.234375 C 21.710938 31.234375 21.710938 31.234375 21.707031 31.234375 C 21.289062 31.59375 20.886719 31.96875 20.492188 32.351562 C 20.421875 32.425781 20.347656 32.496094 20.273438 32.570312 C 19.902344 32.941406 19.546875 33.328125 19.199219 33.726562 C 19.125 33.8125 19.050781 33.898438 18.976562 33.988281 C 18.628906 34.394531 18.292969 34.8125 17.972656 35.246094 C 17.945312 35.28125 17.921875 35.320312 17.894531 35.351562 C 17.589844 35.769531 17.296875 36.199219 17.015625 36.632812 C 16.960938 36.71875 16.90625 36.800781 16.851562 36.886719 C 16.625 37.246094 16.414062 37.617188 16.203125 37.984375 L 27.066406 37.984375 L 37.097656 35.503906 " fill-opacity="1" fill-rule="nonzero"/><path fill="#e3dddb" d="M 46.273438 34.6875 C 46.292969 34.402344 46.3125 34.117188 46.328125 33.832031 C 46.347656 33.445312 46.359375 33.0625 46.367188 32.675781 C 46.371094 32.375 46.371094 32.078125 46.371094 31.777344 C 46.371094 31.691406 46.371094 31.605469 46.371094 31.515625 C 46.363281 30.746094 46.332031 29.972656 46.285156 29.199219 L 46.277344 29.195312 C 46.277344 29.195312 46.277344 29.191406 46.273438 29.191406 C 46.273438 29.1875 46.261719 29.179688 46.253906 29.175781 C 46.242188 29.171875 46.234375 29.164062 46.21875 29.15625 C 46.078125 29.074219 45.726562 28.875 45.414062 28.695312 C 45.40625 28.695312 45.398438 28.691406 45.394531 28.6875 C 45.3125 28.640625 45.238281 28.597656 45.167969 28.558594 C 45.167969 28.558594 45.167969 28.558594 45.164062 28.554688 C 45.105469 28.523438 45.054688 28.496094 45.007812 28.46875 C 45 28.464844 44.984375 28.457031 44.976562 28.453125 C 44.929688 28.421875 44.886719 28.402344 44.863281 28.390625 C 44.367188 28.132812 43.855469 27.890625 43.335938 27.671875 C 42.101562 27.152344 40.4375 26.695312 39.503906 26.472656 L 39.503906 28.199219 L 41.863281 35.503906 L 41.867188 35.511719 C 42.113281 35.742188 42.320312 36.011719 42.488281 36.304688 C 42.546875 36.402344 42.59375 36.5 42.640625 36.601562 C 42.644531 36.605469 42.644531 36.609375 42.644531 36.609375 C 42.6875 36.710938 42.730469 36.816406 42.761719 36.921875 C 42.765625 36.921875 42.765625 36.925781 42.765625 36.929688 C 42.804688 37.035156 42.832031 37.140625 42.859375 37.253906 C 42.859375 37.257812 42.859375 37.257812 42.859375 37.261719 C 42.882812 37.375 42.902344 37.488281 42.917969 37.605469 C 42.933594 37.726562 42.9375 37.84375 42.941406 37.964844 L 42.949219 37.984375 L 45.84375 37.984375 C 46.039062 36.925781 46.175781 35.851562 46.261719 34.777344 C 46.265625 34.746094 46.269531 34.714844 46.273438 34.6875 " fill-opacity="1" fill-rule="nonzero"/><path fill="#fcb03f" d="M 50.054688 32.101562 C 50.054688 32.105469 50.054688 32.109375 50.050781 32.113281 C 50.054688 32.109375 50.054688 32.105469 50.054688 32.101562 " fill-opacity="1" fill-rule="nonzero"/><path fill="#909393" d="M 37.117188 35.492188 C 37.269531 35.347656 37.4375 35.214844 37.617188 35.101562 C 37.796875 34.984375 37.984375 34.886719 38.179688 34.808594 C 38.1875 34.804688 38.191406 34.804688 38.199219 34.800781 C 38.394531 34.722656 38.59375 34.660156 38.808594 34.621094 C 38.8125 34.617188 38.820312 34.617188 38.832031 34.617188 C 39.039062 34.574219 39.257812 34.550781 39.480469 34.550781 C 39.707031 34.550781 39.929688 34.574219 40.144531 34.617188 C 40.152344 34.617188 40.15625 34.617188 40.164062 34.621094 C 40.375 34.664062 40.585938 34.726562 40.78125 34.808594 C 40.785156 34.808594 40.789062 34.8125 40.792969 34.8125 C 41.191406 34.976562 41.558594 35.214844 41.867188 35.511719 L 41.863281 35.503906 L 39.503906 28.199219 L 37.117188 35.492188 " fill-opacity="1" fill-rule="nonzero"/><path fill="#676a6a" d="M 36.273438 39.320312 C 36.195312 39.121094 36.132812 38.914062 36.089844 38.699219 C 36.085938 38.691406 36.085938 38.691406 36.085938 38.683594 C 36.042969 38.46875 36.019531 38.246094 36.019531 38.015625 C 36.019531 37.894531 36.023438 37.773438 36.039062 37.652344 C 36.042969 37.628906 36.046875 37.597656 36.050781 37.574219 C 36.0625 37.480469 36.074219 37.390625 36.09375 37.304688 C 36.101562 37.277344 36.109375 37.25 36.113281 37.226562 C 36.132812 37.136719 36.15625 37.046875 36.183594 36.960938 C 36.1875 36.941406 36.199219 36.921875 36.203125 36.90625 C 36.234375 36.816406 36.269531 36.722656 36.308594 36.632812 C 36.3125 36.621094 36.316406 36.609375 36.324219 36.601562 C 36.367188 36.503906 36.414062 36.410156 36.464844 36.320312 C 36.46875 36.316406 36.46875 36.3125 36.46875 36.308594 C 36.640625 36.011719 36.851562 35.742188 37.097656 35.503906 L 27.066406 37.984375 L 27.046875 37.984375 L 36.984375 40.410156 C 36.6875 40.097656 36.445312 39.734375 36.28125 39.328125 C 36.277344 39.328125 36.277344 39.324219 36.273438 39.320312 " fill-opacity="1" fill-rule="nonzero"/><path fill="#e3dddb" d="M 58.847656 37.445312 C 58.851562 37.398438 58.863281 37.355469 58.871094 37.3125 C 58.894531 37.171875 58.929688 37.03125 58.964844 36.898438 C 58.96875 36.882812 58.972656 36.867188 58.976562 36.851562 L 60.285156 30.859375 L 60.28125 27.441406 C 59.214844 26.558594 58.070312 26.074219 56.878906 26.074219 C 55.371094 26.074219 53.964844 26.90625 52.914062 27.933594 C 51.765625 29.058594 50.878906 30.476562 50.160156 31.902344 C 50.125 31.96875 50.089844 32.03125 50.058594 32.097656 C 50.28125 32.289062 50.5 32.480469 50.714844 32.679688 C 51.203125 33.128906 51.683594 33.585938 52.15625 34.050781 C 52.375 34.269531 52.589844 34.492188 52.808594 34.714844 C 53.039062 34.945312 53.269531 35.179688 53.496094 35.417969 C 53.785156 35.722656 54.074219 36.03125 54.359375 36.34375 C 54.476562 36.476562 54.597656 36.605469 54.71875 36.738281 C 55.0625 37.117188 55.40625 37.5 55.742188 37.886719 L 55.742188 37.890625 C 55.796875 37.949219 55.839844 37.992188 55.851562 38.007812 L 58.804688 38.007812 C 58.804688 37.984375 58.808594 37.964844 58.808594 37.941406 C 58.8125 37.769531 58.824219 37.601562 58.847656 37.445312 " fill-opacity="1" fill-rule="nonzero"/><path fill="#e3dddb" d="M 50.058594 32.113281 C 50.058594 32.109375 50.054688 32.105469 50.054688 32.101562 C 50.054688 32.105469 50.054688 32.109375 50.050781 32.113281 L 50.066406 32.125 C 50.0625 32.121094 50.0625 32.117188 50.058594 32.113281 " fill-opacity="1" fill-rule="nonzero"/><path fill="#525353" d="M 14.425781 41.753906 C 14.433594 41.734375 14.441406 41.710938 14.449219 41.691406 C 14.640625 41.191406 14.847656 40.703125 15.066406 40.21875 C 15.128906 40.082031 15.191406 39.945312 15.253906 39.816406 C 15.433594 39.433594 15.625 39.058594 15.820312 38.683594 C 15.898438 38.53125 15.976562 38.378906 16.058594 38.230469 C 16.105469 38.148438 16.15625 38.066406 16.203125 37.984375 C 16.414062 37.617188 16.625 37.246094 16.851562 36.886719 C 16.90625 36.800781 16.960938 36.71875 17.015625 36.632812 C 17.296875 36.199219 17.589844 35.769531 17.894531 35.351562 C 17.921875 35.320312 17.945312 35.28125 17.972656 35.246094 C 18.292969 34.8125 18.628906 34.394531 18.976562 33.988281 C 19.050781 33.898438 19.125 33.8125 19.199219 33.726562 C 19.546875 33.328125 19.902344 32.941406 20.273438 32.570312 C 20.347656 32.496094 20.421875 32.425781 20.492188 32.351562 C 20.886719 31.96875 21.289062 31.59375 21.707031 31.234375 C 21.710938 31.234375 21.710938 31.234375 21.710938 31.234375 C 23.363281 25.703125 28.695312 22.304688 34.671875 22.304688 C 37.078125 22.304688 39.46875 22.996094 41.519531 24.25 C 43.625 25.539062 45.058594 26.792969 46.171875 28.992188 C 46.175781 29.003906 46.183594 29.011719 46.1875 29.023438 C 46.21875 29.082031 46.25 29.132812 46.273438 29.191406 C 46.277344 29.191406 46.277344 29.195312 46.277344 29.195312 L 46.285156 29.199219 C 47.214844 29.773438 48.105469 30.421875 48.949219 31.136719 C 49.230469 31.375 49.507812 31.617188 49.78125 31.871094 C 49.871094 31.949219 49.960938 32.027344 50.050781 32.113281 C 50.054688 32.109375 50.054688 32.105469 50.054688 32.101562 C 50.054688 32.101562 50.058594 32.097656 50.058594 32.097656 C 50.089844 32.035156 50.121094 31.972656 50.152344 31.90625 C 50.992188 26.59375 53.667969 23.695312 56.4375 23.695312 C 58.519531 23.695312 60.035156 24.9375 61.179688 28.285156 L 61.191406 28.320312 C 61.191406 28.320312 61.191406 28.320312 61.195312 28.324219 C 61.515625 28.675781 61.832031 29.0625 62.136719 29.484375 C 62.144531 29.492188 62.148438 29.5 62.15625 29.507812 C 62.171875 29.558594 62.1875 29.609375 62.203125 29.65625 L 62.160156 29.480469 C 58.71875 19.292969 49.082031 11.960938 37.734375 11.960938 C 23.5 11.960938 11.960938 23.5 11.960938 37.734375 C 11.960938 40.542969 12.410156 43.242188 13.242188 45.753906 C 13.242188 45.753906 13.242188 45.746094 13.246094 45.742188 C 13.40625 44.984375 13.605469 44.230469 13.832031 43.484375 C 14.011719 42.902344 14.207031 42.328125 14.425781 41.753906 " fill-opacity="1" fill-rule="nonzero"/><path fill="#ffffff" d="M 62.546875 38.019531 L 61.648438 39.027344 C 61.644531 39.027344 61.644531 39.027344 61.644531 39.03125 C 61.609375 39.164062 61.566406 39.285156 61.519531 39.40625 C 61.507812 39.4375 61.496094 39.46875 61.484375 39.496094 C 61.445312 39.582031 61.410156 39.664062 61.367188 39.738281 C 61.34375 39.777344 61.324219 39.820312 61.300781 39.859375 C 61.261719 39.917969 61.222656 39.972656 61.183594 40.023438 C 61.121094 40.101562 61.0625 40.171875 60.996094 40.230469 C 60.96875 40.257812 60.945312 40.28125 60.914062 40.304688 C 60.863281 40.347656 60.8125 40.378906 60.757812 40.414062 C 60.738281 40.421875 60.714844 40.433594 60.695312 40.445312 C 60.566406 40.507812 60.433594 40.542969 60.292969 40.542969 C 59.472656 40.542969 58.8125 39.410156 58.8125 38.007812 L 55.84375 38.007812 C 55.84375 38.007812 55.84375 38.011719 55.847656 38.011719 C 56.398438 38.644531 56.9375 39.292969 57.472656 39.945312 C 57.480469 39.953125 57.488281 39.957031 57.492188 39.96875 C 58.011719 40.601562 58.523438 41.242188 59.03125 41.886719 C 59.054688 41.917969 59.078125 41.949219 59.105469 41.980469 C 59.585938 42.589844 60.058594 43.207031 60.53125 43.824219 C 60.574219 43.882812 60.621094 43.945312 60.667969 44.003906 C 61.164062 44.660156 61.660156 45.316406 62.144531 45.972656 L 62.15625 45.984375 C 63.003906 43.476562 63.480469 40.796875 63.511719 38.007812 L 62.675781 37.976562 L 62.546875 38.019531 " fill-opacity="1" fill-rule="nonzero"/><path fill="#000000" d="M 33.816406 26.117188 C 33.886719 26.109375 33.953125 26.105469 34.019531 26.101562 C 34.480469 26.070312 34.941406 26.050781 35.40625 26.050781 C 36.804688 26.050781 38.171875 26.199219 39.503906 26.472656 C 40.4375 26.695312 42.101562 27.152344 43.335938 27.671875 C 43.855469 27.890625 44.367188 28.132812 44.863281 28.390625 C 44.886719 28.402344 44.929688 28.425781 44.976562 28.453125 C 44.984375 28.457031 45 28.464844 45.007812 28.46875 C 45.054688 28.496094 45.105469 28.523438 45.164062 28.554688 C 45.167969 28.558594 45.167969 28.558594 45.167969 28.558594 C 45.238281 28.597656 45.3125 28.640625 45.394531 28.6875 C 45.398438 28.691406 45.40625 28.695312 45.414062 28.695312 C 45.730469 28.878906 46.082031 29.078125 46.21875 29.15625 C 46.234375 29.164062 46.242188 29.171875 46.253906 29.175781 C 46.257812 29.179688 46.273438 29.1875 46.273438 29.191406 C 46.25 29.132812 46.21875 29.082031 46.1875 29.023438 C 46.183594 29.011719 46.175781 29.003906 46.171875 28.992188 C 45.058594 26.792969 43.34375 24.910156 41.242188 23.625 C 39.191406 22.367188 36.796875 21.675781 34.390625 21.675781 C 28.414062 21.675781 23.363281 25.703125 21.710938 31.234375 C 23.273438 29.898438 25.011719 28.773438 26.886719 27.917969 C 29.066406 26.921875 31.425781 26.296875 33.816406 26.117188 " fill-opacity="1" fill-rule="nonzero"/><path fill="#bbbcbd" d="M 62.15625 29.507812 C 62.148438 29.5 62.144531 29.492188 62.136719 29.484375 C 61.832031 29.0625 61.515625 28.675781 61.195312 28.324219 C 61.191406 28.324219 61.191406 28.320312 61.191406 28.320312 C 61.191406 28.320312 61.191406 28.324219 61.195312 28.324219 C 61.191406 28.320312 61.191406 28.316406 61.1875 28.3125 C 61.039062 28.15625 60.890625 28.003906 60.742188 27.859375 C 60.683594 27.804688 60.628906 27.757812 60.570312 27.703125 C 60.476562 27.617188 60.378906 27.53125 60.285156 27.453125 L 60.285156 30.871094 L 61.59375 36.867188 L 61.59375 36.863281 C 61.609375 36.914062 61.625 36.957031 61.636719 37.003906 L 62.546875 38.019531 L 62.554688 38.007812 L 63.5 38.007812 C 63.503906 37.921875 63.511719 37.832031 63.511719 37.746094 C 63.511719 34.917969 63.046875 32.199219 62.203125 29.65625 C 62.1875 29.609375 62.171875 29.558594 62.15625 29.507812 " fill-opacity="1" fill-rule="nonzero"/><path fill="#000000" d="M 52.914062 27.933594 C 53.964844 26.90625 55.371094 26.074219 56.878906 26.074219 C 58.070312 26.074219 59.214844 26.558594 60.28125 27.441406 C 60.28125 27.441406 60.285156 27.449219 60.285156 27.453125 C 60.378906 27.53125 60.476562 27.617188 60.570312 27.703125 C 60.628906 27.757812 60.683594 27.804688 60.742188 27.859375 C 60.890625 28.003906 61.039062 28.15625 61.1875 28.3125 C 61.191406 28.316406 61.191406 28.320312 61.195312 28.324219 C 61.191406 28.324219 61.191406 28.320312 61.191406 28.320312 L 61.179688 28.285156 C 60.035156 24.9375 58.1875 22.761719 56.101562 22.761719 C 53.335938 22.761719 50.992188 26.59375 50.152344 31.90625 L 50.160156 31.902344 C 50.878906 30.476562 51.765625 29.058594 52.914062 27.933594 " fill-opacity="1" fill-rule="nonzero"/><path fill="#000000" d="M 49.175781 60.609375 C 49.175781 60.609375 48.804688 60.316406 48.332031 59.769531 C 48.222656 59.644531 48.105469 59.503906 47.988281 59.351562 C 47.898438 59.234375 47.808594 59.113281 47.71875 58.980469 C 47.660156 58.890625 47.597656 58.796875 47.539062 58.703125 C 47.359375 58.421875 47.214844 58.078125 47.058594 57.738281 C 46.878906 57.34375 46.878906 57.082031 46.773438 56.714844 C 46.695312 56.453125 46.636719 56.175781 46.589844 55.894531 C 46.519531 55.464844 46.488281 55.011719 46.5 54.535156 C 46.511719 54.273438 46.535156 54 46.578125 53.726562 C 46.613281 53.460938 46.667969 53.1875 46.738281 52.910156 C 46.945312 52.078125 47.304688 51.191406 47.867188 50.25 C 47.867188 50.25 48.007812 49.933594 48.011719 49.929688 C 48.195312 49.625 48.234375 49.640625 48.410156 49.34375 C 50.867188 45.195312 52.195312 42.058594 51.546875 37.226562 C 51.5 36.878906 51.375 36.109375 51.304688 35.742188 C 51.269531 35.996094 51.128906 36.792969 51.125 36.8125 C 51.101562 36.921875 51.03125 37.042969 51.007812 37.117188 C 49.941406 40.277344 48.257812 42.601562 45.839844 45.230469 C 45.511719 45.585938 45.167969 45.945312 44.816406 46.308594 C 44.226562 46.921875 43.605469 47.550781 42.949219 48.203125 C 42.6875 48.460938 42.417969 48.726562 42.148438 48.996094 C 41.898438 49.242188 41.589844 49.773438 41.21875 50.160156 C 40.988281 50.800781 40.730469 51.519531 40.511719 52.28125 C 40.414062 52.242188 40.316406 52.210938 40.21875 52.167969 C 35.515625 50.351562 32.371094 47.925781 32.371094 47.925781 C 32.371094 47.925781 34.789062 51.074219 38.871094 54.035156 C 39.265625 54.324219 39.652344 54.570312 40.035156 54.789062 C 39.867188 57.453125 41.039062 60.011719 46.34375 60.769531 C 47.242188 60.898438 48.160156 60.894531 49.085938 60.792969 C 49.074219 60.761719 49.136719 60.765625 49.132812 60.75 C 49.125 60.734375 49.179688 60.695312 49.179688 60.695312 " fill-opacity="1" fill-rule="nonzero"/><path fill="#9f2254" d="M 46.339844 53.753906 C 51.050781 54.511719 58.019531 54.386719 65.25 51.003906 C 65.425781 50.921875 65.617188 51.136719 65.789062 51.050781 C 65.789062 51.050781 60.847656 56.101562 54.941406 58.953125 C 54.769531 59.035156 54.601562 59.125 54.425781 59.207031 C 53.855469 59.464844 53.273438 59.691406 52.691406 59.902344 C 51.550781 60.3125 50.390625 60.625 49.242188 60.769531 C 49.1875 60.777344 49.136719 60.785156 49.085938 60.792969 C 49.074219 60.761719 49.070312 60.742188 49.0625 60.726562 C 49.058594 60.710938 49.054688 60.703125 49.054688 60.703125 C 49.054688 60.703125 48.683594 60.40625 48.210938 59.863281 C 48.097656 59.734375 47.984375 59.601562 47.867188 59.445312 C 47.777344 59.328125 47.6875 59.203125 47.59375 59.070312 C 47.535156 58.980469 47.476562 58.894531 47.414062 58.796875 C 47.238281 58.515625 47.066406 58.203125 46.90625 57.863281 C 46.75 57.519531 46.609375 57.152344 46.496094 56.761719 C 46.421875 56.5 46.359375 56.222656 46.3125 55.9375 C 46.242188 55.511719 46.210938 55.058594 46.226562 54.582031 C 46.234375 54.320312 46.261719 54.046875 46.300781 53.769531 L 46.339844 53.753906 " fill-opacity="1" fill-rule="nonzero"/><path fill="#fcb03f" d="M 42.96875 48.394531 C 43.621094 47.742188 44.242188 47.117188 44.832031 46.5 C 45.1875 46.136719 45.527344 45.773438 45.855469 45.421875 C 48.277344 42.796875 50.050781 40.335938 51.117188 37.175781 C 51.144531 37.101562 51.171875 37.003906 51.191406 36.890625 C 51.199219 36.875 51.203125 36.859375 51.203125 36.839844 C 51.230469 36.722656 51.257812 36.589844 51.277344 36.445312 C 51.289062 36.339844 51.609375 36.136719 51.617188 36.039062 C 51.351562 34.664062 50.734375 33.21875 50.058594 32.113281 C 50.0625 32.117188 50.0625 32.121094 50.066406 32.125 L 50.050781 32.113281 C 49.960938 32.027344 49.871094 31.949219 49.78125 31.871094 C 49.507812 31.617188 49.230469 31.375 48.949219 31.136719 C 48.105469 30.421875 47.214844 29.773438 46.285156 29.199219 C 46.332031 29.972656 46.363281 30.746094 46.371094 31.515625 C 46.371094 31.605469 46.371094 31.691406 46.371094 31.777344 C 46.371094 32.078125 46.371094 32.375 46.367188 32.675781 C 46.359375 33.0625 46.347656 33.445312 46.328125 33.832031 C 46.3125 34.117188 46.292969 34.402344 46.273438 34.6875 C 46.269531 34.714844 46.265625 34.746094 46.261719 34.777344 C 46.175781 35.851562 46.039062 36.925781 45.84375 37.984375 L 45.503906 39.59375 C 44.792969 42.472656 43.351562 45.082031 42.167969 47.777344 C 41.851562 48.496094 41.554688 49.214844 41.292969 49.953125 C 41.269531 50.019531 41.242188 50.089844 41.21875 50.160156 C 41.589844 49.773438 41.917969 49.4375 42.167969 49.1875 C 42.4375 48.917969 42.707031 48.65625 42.96875 48.394531 " fill-opacity="1" fill-rule="nonzero"/><path fill="#525353" d="M 27.410156 63.875 C 29.132812 63.113281 30.730469 62.632812 32.628906 62.257812 C 32.617188 61.847656 32.601562 61.4375 32.5625 61.03125 C 33.375 58.917969 34.128906 56.796875 34.804688 54.664062 C 33.597656 54.78125 32.394531 54.96875 31.207031 55.21875 C 30.324219 55.40625 29.457031 55.640625 28.597656 55.902344 C 27.902344 56.109375 27.21875 56.347656 26.542969 56.601562 L 29.222656 57.25 L 27.066406 64.019531 L 27.410156 63.875 " fill-opacity="1" fill-rule="nonzero"/><path fill="#df0067" d="M 60.53125 43.824219 C 60.058594 43.207031 59.585938 42.589844 59.105469 41.980469 C 59.078125 41.949219 59.054688 41.917969 59.03125 41.886719 C 58.523438 41.242188 58.011719 40.601562 57.492188 39.96875 C 57.488281 39.957031 57.480469 39.953125 57.472656 39.945312 C 56.9375 39.292969 56.398438 38.644531 55.847656 38.011719 C 55.8125 37.972656 55.773438 37.929688 55.742188 37.886719 C 55.40625 37.5 55.0625 37.117188 54.71875 36.738281 C 54.597656 36.605469 54.476562 36.476562 54.359375 36.34375 C 54.074219 36.03125 53.785156 35.722656 53.496094 35.417969 C 53.269531 35.179688 53.039062 34.945312 52.808594 34.714844 C 52.589844 34.492188 52.375 34.269531 52.15625 34.050781 C 51.683594 33.585938 51.203125 33.128906 50.714844 32.679688 C 50.5 32.480469 50.28125 32.285156 50.058594 32.097656 C 50.058594 32.097656 50.054688 32.101562 50.054688 32.101562 C 50.519531 33.441406 51.050781 34.796875 51.320312 36.191406 C 51.386719 36.554688 51.445312 36.910156 51.492188 37.253906 C 52.140625 42.085938 50.59375 45.238281 48.136719 49.390625 C 47.957031 49.6875 47.777344 49.988281 47.59375 50.296875 C 47.03125 51.234375 46.667969 52.125 46.460938 52.957031 C 46.394531 53.234375 46.339844 53.507812 46.300781 53.769531 C 51.121094 54.550781 58.375 54.695312 65.789062 51.050781 C 65.789062 51.050781 64.335938 48.910156 62.144531 45.972656 C 61.660156 45.316406 61.164062 44.660156 60.667969 44.003906 C 60.621094 43.945312 60.574219 43.882812 60.53125 43.824219 " fill-opacity="1" fill-rule="nonzero"/><path fill="#aa9678" d="M 26.808594 65.226562 L 29.222656 57.25 L 26.542969 56.601562 C 25.941406 56.828125 25.347656 57.070312 24.761719 57.332031 L 22.375 65.226562 L 25.039062 65.269531 L 26.808594 65.226562 " fill-opacity="1" fill-rule="nonzero"/><path fill="#ffffff" d="M 28.503906 61.777344 C 28.742188 61.867188 28.980469 61.949219 29.21875 62.03125 C 31.886719 62.96875 34.746094 63.480469 37.734375 63.480469 C 41.136719 63.480469 44.386719 62.816406 47.359375 61.613281 C 47.519531 61.550781 47.671875 61.484375 47.828125 61.417969 C 48.082031 61.3125 48.332031 61.199219 48.582031 61.085938 C 48.800781 60.980469 49.027344 60.878906 49.242188 60.769531 C 49.1875 60.777344 49.136719 60.785156 49.085938 60.792969 C 48.160156 60.894531 47.242188 60.898438 46.34375 60.769531 C 41.039062 60.011719 39.867188 57.453125 40.035156 54.789062 C 39.652344 54.570312 39.265625 54.324219 38.871094 54.035156 C 34.789062 51.074219 32.371094 47.925781 32.371094 47.925781 C 32.371094 47.925781 35.515625 50.351562 40.21875 52.167969 C 40.316406 52.210938 40.414062 52.242188 40.511719 52.28125 C 40.730469 51.519531 40.988281 50.800781 41.21875 50.160156 C 41.242188 50.089844 41.269531 50.019531 41.292969 49.953125 C 41.554688 49.214844 41.851562 48.496094 42.167969 47.777344 C 43.351562 45.082031 44.792969 42.472656 45.503906 39.59375 L 45.84375 37.984375 L 42.945312 37.984375 L 42.945312 37.992188 L 42.941406 37.992188 C 42.941406 38 42.945312 38.007812 42.945312 38.015625 C 42.945312 38.496094 42.847656 38.949219 42.671875 39.363281 C 42.585938 39.570312 42.476562 39.765625 42.351562 39.949219 C 42.101562 40.320312 41.789062 40.640625 41.417969 40.886719 C 41.234375 41.011719 41.035156 41.117188 40.828125 41.203125 C 40.414062 41.378906 39.957031 41.476562 39.480469 41.476562 C 39.363281 41.476562 39.242188 41.472656 39.121094 41.460938 C 39.09375 41.457031 39.070312 41.449219 39.039062 41.445312 C 38.949219 41.433594 38.859375 41.421875 38.773438 41.40625 C 38.746094 41.398438 38.722656 41.390625 38.699219 41.386719 C 38.609375 41.367188 38.519531 41.34375 38.429688 41.3125 C 38.417969 41.308594 38.398438 41.300781 38.382812 41.296875 C 38.289062 41.265625 38.195312 41.230469 38.105469 41.191406 C 38.09375 41.1875 38.089844 41.183594 38.082031 41.179688 C 37.984375 41.136719 37.886719 41.089844 37.792969 41.039062 L 37.789062 41.035156 C 37.492188 40.867188 37.21875 40.65625 36.984375 40.410156 L 27.046875 37.984375 L 16.203125 37.984375 C 16.15625 38.066406 16.105469 38.148438 16.058594 38.230469 C 15.976562 38.378906 15.898438 38.53125 15.820312 38.683594 C 15.625 39.058594 15.433594 39.433594 15.253906 39.816406 C 15.191406 39.945312 15.128906 40.082031 15.066406 40.21875 C 14.847656 40.703125 14.640625 41.191406 14.449219 41.691406 C 14.441406 41.710938 14.433594 41.734375 14.425781 41.753906 C 14.207031 42.328125 14.011719 42.902344 13.832031 43.484375 C 13.605469 44.230469 13.40625 44.984375 13.246094 45.742188 C 14.953125 50.949219 18.273438 55.421875 22.613281 58.578125 C 22.742188 58.667969 22.875 58.75 23.003906 58.839844 C 23.738281 59.351562 24.496094 59.832031 25.285156 60.269531 C 26.316406 60.839844 27.390625 61.347656 28.503906 61.777344 " fill-opacity="1" fill-rule="nonzero"/><path fill="#8b7460" d="M 54.507812 67.941406 C 54.441406 67.257812 54.398438 66.566406 54.398438 65.867188 C 54.398438 65.449219 54.058594 65.105469 53.640625 65.105469 L 21.734375 65.105469 C 21.316406 65.105469 20.976562 65.449219 20.976562 65.867188 C 20.976562 66.566406 20.933594 67.257812 20.867188 67.941406 C 20.792969 68.699219 20.675781 69.449219 20.523438 70.183594 C 20.988281 70.425781 21.453125 70.664062 21.925781 70.890625 C 22.238281 69.523438 22.429688 68.113281 22.480469 66.675781 C 22.484375 66.660156 22.484375 66.644531 22.484375 66.628906 L 52.890625 66.628906 C 52.890625 66.644531 52.894531 66.660156 52.894531 66.675781 C 52.945312 68.113281 53.136719 69.523438 53.445312 70.890625 C 53.921875 70.664062 54.386719 70.425781 54.851562 70.183594 C 54.699219 69.449219 54.582031 68.699219 54.507812 67.941406 " fill-opacity="1" fill-rule="nonzero"/></svg>