<svg xmlns="http://www.w3.org/2000/svg" xmlns:xlink="http://www.w3.org/1999/xlink" width="100" zoomAndPan="magnify" viewBox="0 0 75 74.999997" height="100" preserveAspectRatio="xMidYMid meet" version="1.0"><defs><clipPath id="f71efe96b0"><path d="M 4.214844 0.722656 L 70.964844 0.722656 L 70.964844 74.222656 L 4.214844 74.222656 Z M 4.214844 0.722656 " clip-rule="nonzero"/></clipPath><clipPath id="5666362871"><path d="M 4.214844 0.722656 L 70 0.722656 L 70 56 L 4.214844 56 Z M 4.214844 0.722656 " clip-rule="nonzero"/></clipPath><clipPath id="9c8a0c6708"><path d="M 36 18 L 70.964844 18 L 70.964844 56 L 36 56 Z M 36 18 " clip-rule="nonzero"/></clipPath></defs><rect x="-7.5" width="90" fill="rgba(0,0,0,0)" y="-7.5" height="89.999996" fill-opacity="1"/><rect x="-7.5" width="90" fill="rgba(0,0,0,0)" y="-7.5" height="89.999996" fill-opacity="1"/><rect x="-7.5" width="90" fill="rgba(0,0,0,0)" y="-7.5" height="89.999996" fill-opacity="1"/><g clip-path="url(#f71efe96b0)"><path fill="#662079" d="M 35.675781 1.394531 C 36.859375 0.730469 38.320312 0.730469 39.507812 1.394531 C 45.371094 4.675781 63.015625 14.546875 68.882812 17.824219 C 70.066406 18.488281 70.796875 19.714844 70.796875 21.042969 C 70.796875 27.601562 70.796875 47.34375 70.796875 53.902344 C 70.796875 55.230469 70.066406 56.457031 68.882812 57.117188 C 63.015625 60.398438 45.371094 70.269531 39.507812 73.550781 C 38.320312 74.214844 36.859375 74.214844 35.675781 73.550781 C 29.8125 70.269531 12.164062 60.398438 6.300781 57.117188 C 5.113281 56.457031 4.382812 55.230469 4.382812 53.902344 C 4.382812 47.34375 4.382812 27.601562 4.382812 21.042969 C 4.382812 19.714844 5.113281 18.488281 6.300781 17.824219 C 12.164062 14.546875 29.8125 4.675781 35.675781 1.394531 Z M 35.675781 1.394531 " fill-opacity="1" fill-rule="evenodd"/></g><g clip-path="url(#5666362871)"><path fill="#9c5098" d="M 4.914062 55.59375 C 4.449219 54.972656 4.382812 54.382812 4.382812 53.59375 C 4.382812 47.070312 4.382812 27.441406 4.382812 20.917969 C 4.382812 19.597656 5.113281 18.378906 6.296875 17.722656 C 12.140625 14.460938 29.726562 4.648438 35.566406 1.382812 C 36.75 0.722656 38.351562 0.738281 39.535156 1.398438 C 45.378906 4.660156 62.90625 14.390625 68.75 17.648438 C 69.21875 17.914062 69.578125 18.234375 69.902344 18.652344 Z M 4.914062 55.59375 " fill-opacity="1" fill-rule="evenodd"/></g><path fill="#ffffff" d="M 37.589844 13.089844 C 51.097656 13.089844 62.058594 24.015625 62.058594 37.472656 C 62.058594 50.929688 51.097656 61.855469 37.589844 61.855469 C 24.085938 61.855469 13.125 50.929688 13.125 37.472656 C 13.125 24.015625 24.085938 13.089844 37.589844 13.089844 Z M 37.589844 25.28125 C 44.34375 25.28125 49.824219 30.742188 49.824219 37.472656 C 49.824219 44.199219 44.34375 49.664062 37.589844 49.664062 C 30.839844 49.664062 25.355469 44.199219 25.355469 37.472656 C 25.355469 30.742188 30.839844 25.28125 37.589844 25.28125 Z M 37.589844 25.28125 " fill-opacity="1" fill-rule="evenodd"/><g clip-path="url(#9c8a0c6708)"><path fill="#662079" d="M 69.898438 18.671875 C 70.800781 19.511719 70.78125 20.78125 70.78125 21.777344 C 70.78125 28.386719 70.726562 47.1875 70.796875 53.796875 C 70.804688 54.488281 70.578125 55.214844 70.234375 55.761719 L 36.878906 37.472656 Z M 69.898438 18.671875 " fill-opacity="1" fill-rule="evenodd"/></g><path fill="#ffffff" d="M 55.070312 30.503906 L 56.816406 30.503906 L 56.816406 44.4375 L 55.070312 44.4375 Z M 60.3125 30.503906 L 62.058594 30.503906 L 62.058594 44.4375 L 60.3125 44.4375 Z M 60.3125 30.503906 " fill-opacity="1" fill-rule="evenodd"/><path fill="#ffffff" d="M 51.574219 39.214844 L 65.554688 39.214844 L 65.554688 40.957031 L 51.574219 40.957031 Z M 51.574219 33.988281 L 65.554688 33.988281 L 65.554688 35.730469 L 51.574219 35.730469 Z M 51.574219 33.988281 " fill-opacity="1" fill-rule="evenodd"/></svg>