<svg xmlns="http://www.w3.org/2000/svg" xmlns:xlink="http://www.w3.org/1999/xlink" width="100" zoomAndPan="magnify" viewBox="0 0 75 74.999997" height="100" preserveAspectRatio="xMidYMid meet" version="1.0"><defs><clipPath id="e288d9f246"><path d="M 0.601562 0.601562 L 74.101562 0.601562 L 74.101562 74.101562 L 0.601562 74.101562 Z M 0.601562 0.601562 " clip-rule="nonzero"/></clipPath></defs><rect x="-7.5" width="90" fill="rgba(0,0,0,0)" y="-7.5" height="89.999996" fill-opacity="1"/><rect x="-7.5" width="90" fill="rgba(0,0,0,0)" y="-7.5" height="89.999996" fill-opacity="1"/><g clip-path="url(#e288d9f246)"><path fill="#563d7c" d="M 0.601562 64.621094 C 0.601562 69.855469 4.84375 74.101562 10.078125 74.101562 L 64.621094 74.101562 C 69.855469 74.101562 74.101562 69.855469 74.101562 64.621094 L 74.101562 10.078125 C 74.101562 4.84375 69.855469 0.601562 64.621094 0.601562 L 10.078125 0.601562 C 4.84375 0.601562 0.601562 4.84375 0.601562 10.078125 Z M 0.601562 64.621094 " fill-opacity="1" fill-rule="nonzero"/></g><path fill="#ffffff" d="M 31.078125 33.113281 L 31.078125 22.703125 L 40.242188 22.703125 C 41.113281 22.703125 41.957031 22.777344 42.765625 22.921875 C 43.574219 23.066406 44.292969 23.324219 44.914062 23.699219 C 45.539062 24.074219 46.039062 24.59375 46.410156 25.257812 C 46.785156 25.921875 46.972656 26.773438 46.972656 27.8125 C 46.972656 29.683594 46.410156 31.035156 45.289062 31.867188 C 44.167969 32.695312 42.734375 33.113281 40.988281 33.113281 Z M 21.292969 15.097656 L 21.292969 59.601562 L 42.859375 59.601562 C 44.851562 59.601562 46.796875 59.351562 48.683594 58.851562 C 50.578125 58.355469 52.257812 57.585938 53.734375 56.546875 C 55.210938 55.507812 56.382812 54.167969 57.253906 52.527344 C 58.128906 50.882812 58.566406 48.945312 58.566406 46.699219 C 58.566406 43.917969 57.890625 41.535156 56.539062 39.5625 C 55.1875 37.589844 53.144531 36.207031 50.398438 35.417969 C 52.394531 34.460938 53.902344 33.234375 54.917969 31.738281 C 55.9375 30.242188 56.445312 28.375 56.445312 26.132812 C 56.445312 24.054688 56.105469 22.308594 55.417969 20.894531 C 54.730469 19.484375 53.765625 18.351562 52.519531 17.5 C 51.273438 16.648438 49.777344 16.035156 48.035156 15.660156 C 46.289062 15.285156 44.355469 15.097656 42.238281 15.097656 Z M 31.078125 52 L 31.078125 39.78125 L 41.738281 39.78125 C 43.855469 39.78125 45.558594 40.269531 46.847656 41.246094 C 48.136719 42.222656 48.78125 43.851562 48.78125 46.136719 C 48.78125 47.300781 48.582031 48.257812 48.1875 49.007812 C 47.792969 49.753906 47.265625 50.34375 46.597656 50.78125 C 45.933594 51.21875 45.164062 51.53125 44.292969 51.71875 C 43.417969 51.902344 42.507812 52 41.550781 52 Z M 31.078125 52 " fill-opacity="1" fill-rule="nonzero"/></svg>