<svg xmlns="http://www.w3.org/2000/svg" xmlns:xlink="http://www.w3.org/1999/xlink" width="100" zoomAndPan="magnify" viewBox="0 0 75 74.999997" height="100" preserveAspectRatio="xMidYMid meet" version="1.0">
    <defs>
        <clipPath id="bd5c1ccd16">
            <path d="M 1.761719 1.761719 L 73.011719 1.761719 L 73.011719 73.011719 L 1.761719 73.011719 Z M 1.761719 1.761719 " clip-rule="nonzero"/>
        </clipPath>
    </defs>
    <rect x="-7.5" width="90" fill="rgba(0,0,0,0)" y="-7.5" height="89.999996" fill-opacity="1"/>
    <rect x="-7.5" width="90" fill="rgba(0,0,0,0)" y="-7.5" height="89.999996" fill-opacity="1"/>
    <g clip-path="url(#bd5c1ccd16)"><path fill="#f7df1e" d="M 1.761719 1.761719 L 73.011719 1.761719 L 73.011719 73.011719 L 1.761719 73.011719 Z M 1.761719 1.761719 " fill-opacity="1" fill-rule="nonzero"/>
    </g>
    <path fill="#000000" d="M 20.496094 61.304688 L 25.949219 58.003906 C 27 59.871094 27.957031 61.449219 30.253906 61.449219 C 32.453125 61.449219 33.839844 60.585938 33.839844 57.238281 L 33.839844 34.472656 L 40.535156 34.472656 L 40.535156 57.335938 C 40.535156 64.269531 36.472656 67.425781 30.539062 67.425781 C 25.183594 67.425781 22.074219 64.652344 20.496094 61.304688 " fill-opacity="1" fill-rule="nonzero"/>
    <path fill="#000000" d="M 44.171875 60.585938 L 49.625 57.429688 C 51.0625 59.773438 52.925781 61.496094 56.222656 61.496094 C 59 61.496094 60.769531 60.109375 60.769531 58.195312 C 60.769531 55.898438 58.953125 55.085938 55.890625 53.746094 L 54.21875 53.027344 C 49.386719 50.972656 46.183594 48.390625 46.183594 42.9375 C 46.183594 37.917969 50.007812 34.089844 55.988281 34.089844 C 60.242188 34.089844 63.304688 35.574219 65.503906 39.445312 L 60.289062 42.796875 C 59.144531 40.738281 57.898438 39.925781 55.988281 39.925781 C 54.027344 39.925781 52.78125 41.167969 52.78125 42.796875 C 52.78125 44.804688 54.027344 45.617188 56.894531 46.863281 L 58.566406 47.578125 C 64.257812 50.019531 67.464844 52.503906 67.464844 58.101562 C 67.464844 64.125 62.730469 67.425781 56.367188 67.425781 C 50.152344 67.425781 46.136719 64.460938 44.171875 60.585938 " fill-opacity="1" fill-rule="nonzero"/>
</svg>