<svg xmlns="http://www.w3.org/2000/svg" xmlns:xlink="http://www.w3.org/1999/xlink" width="100" zoomAndPan="magnify" viewBox="0 0 75 74.999997" height="100" preserveAspectRatio="xMidYMid meet" version="1.0"><defs><clipPath id="eb0521dc9e"><path d="M 1 10 L 74.324219 10 L 74.324219 66 L 1 66 Z M 1 10 " clip-rule="nonzero"/></clipPath></defs><rect x="-7.5" width="90" fill="rgba(0,0,0,0)" y="-7.5" height="89.999996" fill-opacity="1"/><rect x="-7.5" width="90" fill="rgba(0,0,0,0)" y="-7.5" height="89.999996" fill-opacity="1"/><g clip-path="url(#eb0521dc9e)"><path fill="#f06292" d="M 63.984375 42.089844 C 61.433594 42.101562 59.222656 42.714844 57.371094 43.632812 C 56.695312 42.277344 56.007812 41.085938 55.894531 40.199219 C 55.757812 39.167969 55.601562 38.550781 55.765625 37.320312 C 55.929688 36.085938 56.640625 34.34375 56.628906 34.210938 C 56.621094 34.082031 56.46875 33.453125 55 33.441406 C 53.527344 33.433594 52.269531 33.726562 52.121094 34.117188 C 51.972656 34.503906 51.6875 35.378906 51.511719 36.292969 C 51.253906 37.628906 48.574219 42.394531 47.054688 44.886719 C 46.554688 43.914062 46.132812 43.058594 46.042969 42.378906 C 45.910156 41.34375 45.753906 40.726562 45.917969 39.496094 C 46.078125 38.265625 46.789062 36.519531 46.78125 36.390625 C 46.769531 36.257812 46.621094 35.632812 45.148438 35.621094 C 43.679688 35.609375 42.417969 35.90625 42.269531 36.292969 C 42.125 36.683594 41.964844 37.589844 41.664062 38.472656 C 41.363281 39.351562 37.800781 47.300781 36.867188 49.363281 C 36.390625 50.410156 35.976562 51.253906 35.683594 51.832031 C 35.683594 51.828125 35.683594 51.828125 35.683594 51.828125 C 35.683594 51.828125 35.664062 51.867188 35.636719 51.929688 C 35.382812 52.421875 35.238281 52.691406 35.238281 52.691406 C 35.238281 52.691406 35.238281 52.695312 35.242188 52.699219 C 35.042969 53.0625 34.832031 53.394531 34.726562 53.394531 C 34.652344 53.394531 34.503906 52.4375 34.757812 51.121094 C 35.289062 48.363281 36.5625 44.0625 36.550781 43.914062 C 36.542969 43.835938 36.785156 43.089844 35.71875 42.695312 C 34.679688 42.316406 34.308594 42.949219 34.214844 42.953125 C 34.125 42.953125 34.054688 43.175781 34.054688 43.175781 C 34.054688 43.175781 35.210938 38.339844 31.847656 38.339844 C 29.746094 38.339844 26.832031 40.644531 25.394531 42.734375 C 24.492188 43.226562 22.550781 44.289062 20.496094 45.417969 C 19.707031 45.855469 18.898438 46.296875 18.132812 46.71875 C 18.082031 46.660156 18.03125 46.605469 17.976562 46.546875 C 13.898438 42.191406 6.359375 39.109375 6.675781 33.246094 C 6.792969 31.117188 7.53125 25.507812 21.164062 18.707031 C 32.332031 13.136719 41.273438 14.667969 42.820312 18.066406 C 45.027344 22.921875 38.039062 31.945312 26.441406 33.246094 C 22.023438 33.746094 19.695312 32.027344 19.117188 31.390625 C 18.507812 30.71875 18.417969 30.6875 18.191406 30.8125 C 17.820312 31.019531 18.054688 31.613281 18.191406 31.96875 C 18.539062 32.871094 19.957031 34.46875 22.378906 35.265625 C 24.511719 35.96875 29.699219 36.351562 35.972656 33.921875 C 43 31.199219 48.488281 23.628906 46.875 17.300781 C 45.234375 10.863281 34.578125 8.746094 24.492188 12.335938 C 18.480469 14.472656 11.980469 17.824219 7.304688 22.199219 C 1.75 27.402344 0.863281 31.933594 1.230469 33.828125 C 2.527344 40.550781 11.78125 44.929688 15.488281 48.175781 C 15.308594 48.277344 15.132812 48.371094 14.976562 48.457031 C 13.121094 49.378906 6.0625 53.078125 4.296875 56.980469 C 2.296875 61.414062 4.617188 64.59375 6.152344 65.023438 C 10.914062 66.347656 15.796875 63.960938 18.425781 60.039062 C 21.050781 56.121094 20.730469 51.015625 19.523438 48.6875 C 19.507812 48.660156 19.492188 48.628906 19.476562 48.601562 C 19.957031 48.316406 20.445312 48.027344 20.929688 47.742188 C 21.878906 47.183594 22.804688 46.667969 23.609375 46.226562 C 23.160156 47.464844 22.828125 48.949219 22.660156 51.089844 C 22.457031 53.605469 23.488281 56.855469 24.832031 58.136719 C 25.429688 58.699219 26.140625 58.710938 26.59375 58.710938 C 28.160156 58.710938 28.875 57.40625 29.664062 55.859375 C 30.628906 53.96875 31.488281 51.761719 31.488281 51.761719 C 31.488281 51.761719 30.410156 57.71875 33.34375 57.71875 C 34.410156 57.71875 35.484375 56.332031 35.964844 55.625 C 35.964844 55.632812 35.964844 55.636719 35.964844 55.636719 C 35.964844 55.636719 35.992188 55.589844 36.046875 55.5 C 36.160156 55.328125 36.222656 55.222656 36.222656 55.222656 C 36.222656 55.222656 36.222656 55.210938 36.226562 55.191406 C 36.65625 54.445312 37.609375 52.742188 39.035156 49.9375 C 40.882812 46.3125 42.648438 41.769531 42.648438 41.769531 C 42.648438 41.769531 42.8125 42.878906 43.351562 44.714844 C 43.671875 45.796875 44.34375 46.992188 44.875 48.136719 C 44.449219 48.730469 44.1875 49.074219 44.1875 49.074219 C 44.1875 49.074219 44.1875 49.078125 44.191406 49.089844 C 43.851562 49.546875 43.46875 50.035156 43.066406 50.515625 C 41.609375 52.25 39.875 54.234375 39.644531 54.804688 C 39.371094 55.480469 39.433594 55.976562 39.964844 56.375 C 40.351562 56.667969 41.035156 56.714844 41.753906 56.664062 C 43.0625 56.578125 43.984375 56.25 44.4375 56.054688 C 45.148438 55.800781 45.972656 55.410156 46.746094 54.839844 C 48.171875 53.789062 49.035156 52.285156 48.949219 50.289062 C 48.90625 49.191406 48.554688 48.105469 48.113281 47.078125 C 48.242188 46.890625 48.371094 46.703125 48.503906 46.511719 C 50.753906 43.214844 52.5 39.59375 52.5 39.59375 C 52.5 39.59375 52.664062 40.703125 53.207031 42.542969 C 53.476562 43.46875 54.015625 44.484375 54.5 45.480469 C 52.382812 47.203125 51.070312 49.203125 50.613281 50.515625 C 49.773438 52.945312 50.433594 54.046875 51.671875 54.296875 C 52.230469 54.410156 53.023438 54.152344 53.621094 53.898438 C 54.363281 53.652344 55.253906 53.242188 56.085938 52.628906 C 57.515625 51.578125 58.886719 50.105469 58.804688 48.113281 C 58.765625 47.207031 58.519531 46.304688 58.1875 45.441406 C 59.984375 44.691406 62.304688 44.277344 65.265625 44.625 C 71.613281 45.367188 72.859375 49.335938 72.621094 50.996094 C 72.382812 52.65625 71.050781 53.570312 70.605469 53.847656 C 70.160156 54.121094 70.027344 54.21875 70.0625 54.421875 C 70.117188 54.722656 70.324219 54.710938 70.703125 54.644531 C 71.226562 54.558594 74.035156 53.296875 74.15625 50.230469 C 74.308594 46.332031 70.582031 42.054688 63.984375 42.089844 Z M 15.042969 58.609375 C 12.941406 60.90625 10.003906 61.773438 8.742188 61.042969 C 7.382812 60.253906 7.921875 56.871094 10.503906 54.433594 C 12.074219 52.949219 14.105469 51.578125 15.453125 50.738281 C 15.761719 50.554688 16.210938 50.28125 16.757812 49.953125 C 16.847656 49.902344 16.898438 49.875 16.898438 49.875 L 16.898438 49.871094 C 17.003906 49.808594 17.113281 49.742188 17.222656 49.675781 C 18.164062 53.144531 17.253906 56.199219 15.042969 58.609375 Z M 30.367188 48.183594 C 29.636719 49.96875 28.101562 54.546875 27.167969 54.300781 C 26.367188 54.089844 25.878906 50.609375 27.007812 47.1875 C 27.578125 45.464844 28.789062 43.40625 29.503906 42.609375 C 30.652344 41.320312 31.917969 40.902344 32.222656 41.421875 C 32.613281 42.089844 30.828125 47.0625 30.367188 48.183594 Z M 43.023438 54.230469 C 42.714844 54.390625 42.429688 54.492188 42.296875 54.414062 C 42.199219 54.355469 42.425781 54.144531 42.425781 54.144531 C 42.425781 54.144531 44.007812 52.4375 44.632812 51.660156 C 44.996094 51.210938 45.414062 50.671875 45.875 50.074219 C 45.875 50.132812 45.878906 50.195312 45.878906 50.253906 C 45.875 52.296875 43.902344 53.675781 43.023438 54.230469 Z M 52.777344 52.003906 C 52.542969 51.839844 52.582031 51.304688 53.34375 49.640625 C 53.644531 48.988281 54.328125 47.890625 55.511719 46.839844 C 55.648438 47.273438 55.730469 47.6875 55.730469 48.074219 C 55.714844 50.644531 53.882812 51.605469 52.777344 52.003906 Z M 52.777344 52.003906 " fill-opacity="1" fill-rule="nonzero"/></g></svg>