<svg xmlns="http://www.w3.org/2000/svg" xmlns:xlink="http://www.w3.org/1999/xlink" width="100" zoomAndPan="magnify" viewBox="0 0 75 74.999997" height="100" preserveAspectRatio="xMidYMid meet" version="1.0"><defs><clipPath id="0fc020fafc"><path d="M 1.15625 16.496094 L 73.90625 16.496094 L 73.90625 58.496094 L 1.15625 58.496094 Z M 1.15625 16.496094 " clip-rule="nonzero"/></clipPath><clipPath id="019bd2b7aa"><path d="M 1.15625 39 L 73.90625 39 L 73.90625 49 L 1.15625 49 Z M 1.15625 39 " clip-rule="nonzero"/></clipPath></defs><rect x="-7.5" width="90" fill="rgba(0,0,0,0)" y="-7.5" height="89.999996" fill-opacity="1"/><rect x="-7.5" width="90" fill="rgba(0,0,0,0)" y="-7.5" height="89.999996" fill-opacity="1"/><g clip-path="url(#0fc020fafc)"><path fill="#364548" d="M 12.152344 66.078125 L 12.152344 61.417969 C 12.152344 60.804688 12.535156 60.3125 13.167969 60.3125 L 13.34375 60.3125 C 13.976562 60.3125 14.359375 60.804688 14.359375 61.417969 L 14.359375 71.234375 C 14.359375 73.628906 13.175781 75.53125 11.121094 76.746094 C 10.160156 77.316406 9.125 77.597656 8.007812 77.597656 L 7.570312 77.597656 C 5.179688 77.597656 3.285156 76.414062 2.070312 74.351562 C 1.5 73.390625 1.21875 72.351562 1.222656 71.234375 L 1.222656 70.796875 C 1.222656 68.402344 2.402344 66.496094 4.457031 65.28125 C 5.417969 64.710938 6.453125 64.425781 7.570312 64.429688 L 8.007812 64.429688 C 9.625 64.429688 10.996094 65.058594 12.152344 66.078125 Z M 3.425781 71.015625 C 3.425781 72.746094 4.261719 74.042969 5.773438 74.875 C 6.386719 75.207031 7.050781 75.390625 7.746094 75.390625 C 9.441406 75.390625 10.695312 74.589844 11.5625 73.148438 C 11.964844 72.480469 12.152344 71.75 12.152344 70.96875 C 12.152344 69.472656 11.441406 68.300781 10.238281 67.433594 C 9.507812 66.90625 8.6875 66.640625 7.789062 66.640625 C 5.941406 66.640625 4.613281 67.578125 3.816406 69.238281 C 3.546875 69.796875 3.425781 70.394531 3.425781 71.015625 Z M 22.003906 64.433594 L 22.308594 64.433594 C 24.863281 64.433594 26.804688 65.671875 28.035156 67.90625 C 28.527344 68.800781 28.789062 69.773438 28.789062 70.796875 L 28.789062 71.234375 C 28.789062 73.628906 27.609375 75.535156 25.550781 76.746094 C 24.597656 77.308594 23.542969 77.597656 22.4375 77.597656 L 22.003906 77.597656 C 19.613281 77.597656 17.714844 76.414062 16.503906 74.355469 C 15.933594 73.390625 15.648438 72.351562 15.652344 71.234375 L 15.652344 70.796875 C 15.652344 68.402344 16.839844 66.503906 18.886719 65.28125 C 19.847656 64.710938 20.886719 64.425781 22.003906 64.433594 Z M 17.855469 71.015625 C 17.855469 72.695312 18.679688 73.929688 20.09375 74.796875 C 20.757812 75.203125 21.488281 75.390625 22.265625 75.390625 C 23.921875 75.390625 25.144531 74.546875 25.996094 73.148438 C 26.402344 72.480469 26.585938 71.746094 26.585938 70.96875 C 26.585938 69.410156 25.835938 68.21875 24.550781 67.351562 C 23.847656 66.875 23.070312 66.636719 22.222656 66.640625 C 20.375 66.640625 19.046875 67.578125 18.25 69.238281 C 17.980469 69.796875 17.855469 70.394531 17.855469 71.015625 Z M 37.949219 66.816406 C 37.617188 66.660156 36.996094 66.609375 36.636719 66.597656 C 34.792969 66.527344 33.460938 67.566406 32.679688 69.195312 C 32.410156 69.753906 32.289062 70.347656 32.289062 70.96875 C 32.289062 72.863281 33.277344 74.1875 34.960938 74.992188 C 35.578125 75.289062 36.371094 75.34375 37.042969 75.34375 C 37.636719 75.34375 38.472656 74.980469 38.996094 74.730469 L 39.085938 74.6875 L 39.496094 74.6875 L 39.539062 74.695312 C 40.039062 74.800781 40.417969 75.121094 40.417969 75.660156 L 40.417969 75.878906 C 40.417969 77.222656 37.96875 77.53125 37.03125 77.597656 C 33.730469 77.824219 31.261719 76.007812 30.320312 72.851562 C 30.15625 72.304688 30.082031 71.761719 30.082031 71.1875 L 30.082031 70.753906 C 30.082031 68.359375 31.265625 66.460938 33.316406 65.242188 C 34.277344 64.664062 35.3125 64.378906 36.429688 64.386719 L 36.867188 64.386719 C 38.042969 64.386719 39.125 64.71875 40.09375 65.382812 L 40.171875 65.4375 L 40.222656 65.523438 C 40.328125 65.691406 40.417969 65.898438 40.417969 66.105469 L 40.417969 66.324219 C 40.417969 66.886719 39.996094 67.191406 39.488281 67.289062 L 39.449219 67.296875 L 39.316406 67.296875 C 38.988281 67.296875 38.242188 66.953125 37.949219 66.816406 Z M 45.097656 68.3125 L 47.683594 65.753906 C 47.921875 65.515625 48.839844 64.519531 49.203125 64.519531 L 49.597656 64.519531 L 49.640625 64.527344 C 50.144531 64.632812 50.519531 64.953125 50.519531 65.492188 L 50.519531 65.710938 C 50.519531 66.082031 50.089844 66.511719 49.851562 66.765625 C 49.34375 67.304688 48.8125 67.824219 48.292969 68.351562 L 45.632812 71.058594 L 49.058594 74.523438 C 49.375 74.84375 49.6875 75.167969 50 75.492188 C 50.109375 75.605469 50.269531 75.746094 50.359375 75.910156 C 50.460938 76.058594 50.519531 76.230469 50.519531 76.410156 L 50.519531 76.636719 L 50.507812 76.691406 C 50.382812 77.195312 50.066406 77.601562 49.507812 77.601562 L 49.332031 77.601562 C 48.96875 77.601562 48.554688 77.1875 48.304688 76.949219 C 47.792969 76.464844 47.292969 75.953125 46.789062 75.457031 L 45.097656 73.792969 L 45.097656 76.453125 C 45.097656 77.066406 44.714844 77.558594 44.082031 77.558594 L 43.914062 77.558594 C 43.28125 77.558594 42.898438 77.066406 42.898438 76.453125 L 42.898438 61.464844 C 42.898438 60.851562 43.28125 60.359375 43.914062 60.359375 L 44.082031 60.359375 C 44.714844 60.359375 45.097656 60.851562 45.097656 61.464844 L 45.097656 68.316406 Z M 72.5625 64.519531 L 72.78125 64.519531 C 73.445312 64.519531 73.886719 64.964844 73.886719 65.625 C 73.886719 66.539062 73.011719 66.773438 72.257812 66.773438 C 71.269531 66.773438 70.324219 67.375 69.640625 68.046875 C 68.789062 68.886719 68.417969 69.964844 68.417969 71.148438 L 68.417969 76.492188 C 68.417969 77.105469 68.035156 77.597656 67.402344 77.597656 L 67.230469 77.597656 C 66.597656 77.597656 66.214844 77.105469 66.214844 76.492188 L 66.214844 70.839844 C 66.214844 68.667969 67.269531 66.898438 69.03125 65.65625 C 70.082031 64.910156 71.28125 64.519531 72.566406 64.519531 Z M 56.902344 75.113281 C 57.703125 75.394531 58.617188 75.355469 59.441406 75.210938 C 59.863281 75.03125 60.9375 74.5625 61.332031 74.628906 L 61.394531 74.640625 L 61.453125 74.667969 C 61.695312 74.785156 61.925781 74.953125 62.046875 75.199219 C 62.335938 75.777344 62.199219 76.355469 61.632812 76.683594 L 61.441406 76.792969 C 59.351562 78.003906 57.128906 77.835938 55.046875 76.707031 C 54.050781 76.167969 53.285156 75.367188 52.722656 74.390625 L 52.59375 74.160156 C 51.25 71.832031 51.433594 69.382812 52.945312 67.167969 C 53.46875 66.402344 54.152344 65.8125 54.949219 65.347656 L 55.25 65.171875 C 57.21875 64.035156 59.328125 64.113281 61.351562 65.113281 C 62.4375 65.648438 63.320312 66.449219 63.925781 67.503906 L 64.035156 67.695312 C 64.476562 68.460938 63.90625 69.125 63.316406 69.582031 C 62.632812 70.113281 61.941406 70.75 61.285156 71.316406 Z M 55.007812 73.78125 L 61.636719 68.070312 C 61.191406 67.511719 60.449219 67.109375 59.820312 66.867188 C 58.550781 66.382812 57.296875 66.542969 56.128906 67.21875 C 54.605469 68.101562 53.953125 69.507812 54.011719 71.257812 C 54.035156 71.945312 54.21875 72.609375 54.585938 73.195312 C 54.710938 73.402344 54.855469 73.597656 55.011719 73.78125 Z M 43.117188 29.527344 L 49.621094 29.527344 L 49.621094 36.1875 L 52.910156 36.1875 C 54.425781 36.1875 55.988281 35.917969 57.425781 35.429688 C 58.132812 35.1875 58.925781 34.855469 59.625 34.429688 C 58.707031 33.230469 58.238281 31.714844 58.097656 30.21875 C 57.910156 28.1875 58.320312 25.539062 59.695312 23.949219 L 60.378906 23.15625 L 61.191406 23.8125 C 63.238281 25.464844 64.96875 27.773438 65.273438 30.402344 C 67.742188 29.671875 70.640625 29.84375 72.816406 31.105469 L 73.710938 31.621094 L 73.238281 32.539062 C 71.398438 36.140625 67.550781 37.257812 63.789062 37.058594 C 58.160156 51.109375 45.902344 57.765625 31.039062 57.765625 C 23.359375 57.765625 16.316406 54.890625 12.304688 48.0625 L 12.238281 47.949219 L 11.652344 46.757812 C 10.296875 43.75 9.847656 40.460938 10.152344 37.171875 L 10.246094 36.183594 L 15.804688 36.183594 L 15.804688 29.527344 L 22.308594 29.527344 L 22.308594 23.011719 L 35.3125 23.011719 L 35.3125 16.492188 L 43.117188 16.492188 L 43.117188 29.527344 " fill-opacity="1" fill-rule="evenodd"/></g><path fill="#22a0c8" d="M 64.183594 31.996094 C 64.621094 28.597656 62.085938 25.933594 60.511719 24.664062 C 58.699219 26.765625 58.417969 32.269531 61.261719 34.585938 C 59.675781 35.996094 56.332031 37.277344 52.90625 37.277344 L 11.230469 37.277344 C 10.894531 40.859375 11.523438 44.15625 12.957031 46.980469 L 13.429688 47.847656 C 13.730469 48.359375 14.058594 48.851562 14.414062 49.328125 C 16.128906 49.4375 17.707031 49.472656 19.152344 49.441406 C 21.992188 49.378906 24.308594 49.042969 26.066406 48.433594 C 26.195312 48.394531 26.320312 48.402344 26.441406 48.464844 C 26.5625 48.527344 26.644531 48.621094 26.6875 48.75 C 26.734375 48.875 26.726562 49 26.667969 49.125 C 26.613281 49.246094 26.519531 49.332031 26.394531 49.382812 C 26.160156 49.464844 25.917969 49.539062 25.667969 49.609375 L 25.664062 49.609375 C 24.28125 50.011719 22.800781 50.273438 20.886719 50.390625 C 21 50.394531 20.765625 50.410156 20.765625 50.410156 C 20.703125 50.414062 20.621094 50.421875 20.554688 50.425781 C 19.800781 50.46875 18.988281 50.476562 18.15625 50.476562 C 17.25 50.476562 16.355469 50.460938 15.351562 50.410156 L 15.324219 50.425781 C 18.792969 54.335938 24.226562 56.683594 31.03125 56.683594 C 45.4375 56.683594 57.652344 50.285156 63.0625 35.917969 C 66.902344 36.3125 70.589844 35.332031 72.269531 32.050781 C 69.597656 30.503906 66.160156 30.996094 64.179688 31.996094 " fill-opacity="1" fill-rule="evenodd"/><path fill="#37b1d9" d="M 64.183594 31.996094 C 64.621094 28.597656 62.085938 25.933594 60.511719 24.664062 C 58.699219 26.765625 58.417969 32.269531 61.261719 34.585938 C 59.675781 35.996094 56.332031 37.277344 52.90625 37.277344 L 13.699219 37.277344 C 13.527344 42.761719 15.558594 46.925781 19.152344 49.441406 C 21.992188 49.378906 24.3125 49.042969 26.066406 48.433594 C 26.195312 48.394531 26.320312 48.402344 26.441406 48.464844 C 26.5625 48.527344 26.644531 48.621094 26.6875 48.75 C 26.734375 48.875 26.726562 49 26.671875 49.125 C 26.613281 49.246094 26.519531 49.332031 26.394531 49.382812 C 26.160156 49.464844 25.917969 49.539062 25.667969 49.609375 L 25.664062 49.609375 C 24.28125 50.011719 22.671875 50.308594 20.757812 50.425781 C 20.757812 50.425781 20.710938 50.382812 20.710938 50.382812 C 25.613281 52.902344 32.722656 52.890625 40.871094 49.753906 C 50.007812 46.238281 58.511719 39.535156 64.445312 31.871094 C 64.359375 31.910156 64.273438 31.953125 64.1875 31.996094 " fill-opacity="1" fill-rule="evenodd"/><path fill="#1b81a5" d="M 11.308594 41.628906 C 11.566406 43.546875 12.128906 45.34375 12.957031 46.980469 L 13.433594 47.847656 C 13.734375 48.359375 14.058594 48.851562 14.414062 49.328125 C 16.128906 49.4375 17.707031 49.476562 19.152344 49.441406 C 21.996094 49.378906 24.3125 49.042969 26.066406 48.433594 C 26.199219 48.394531 26.320312 48.402344 26.441406 48.464844 C 26.5625 48.527344 26.644531 48.621094 26.691406 48.75 C 26.734375 48.875 26.726562 49.003906 26.671875 49.125 C 26.613281 49.246094 26.523438 49.332031 26.394531 49.382812 C 26.164062 49.464844 25.917969 49.539062 25.667969 49.609375 C 24.285156 50.011719 22.683594 50.289062 20.769531 50.410156 C 20.703125 50.414062 20.589844 50.414062 20.523438 50.417969 C 19.769531 50.460938 18.964844 50.484375 18.132812 50.484375 C 17.1875 50.488281 16.242188 50.464844 15.296875 50.417969 C 18.765625 54.328125 24.230469 56.679688 31.035156 56.679688 C 43.367188 56.679688 54.09375 51.988281 60.324219 41.625 L 11.308594 41.625 " fill-opacity="1" fill-rule="evenodd"/><path fill="#1d91b4" d="M 14.074219 41.628906 C 14.8125 44.996094 16.582031 47.640625 19.152344 49.441406 C 21.996094 49.378906 24.3125 49.042969 26.066406 48.433594 C 26.199219 48.394531 26.320312 48.402344 26.441406 48.464844 C 26.5625 48.527344 26.644531 48.621094 26.691406 48.75 C 26.734375 48.875 26.726562 49.003906 26.671875 49.125 C 26.613281 49.246094 26.523438 49.332031 26.394531 49.382812 C 26.164062 49.464844 25.917969 49.539062 25.667969 49.609375 C 24.285156 50.011719 22.648438 50.289062 20.734375 50.410156 C 25.636719 52.929688 32.722656 52.890625 40.867188 49.753906 C 45.796875 47.859375 50.542969 45.03125 54.800781 41.628906 L 14.074219 41.628906 " fill-opacity="1" fill-rule="evenodd"/><path fill="#23a3c2" d="M 16.886719 30.617188 L 22.523438 30.617188 L 22.523438 36.265625 L 16.886719 36.265625 Z M 17.355469 31.085938 L 17.800781 31.085938 L 17.800781 35.789062 L 17.355469 35.789062 Z M 18.191406 31.085938 L 18.65625 31.085938 L 18.65625 35.789062 L 18.191406 35.789062 Z M 19.046875 31.085938 L 19.507812 31.085938 L 19.507812 35.789062 L 19.046875 35.789062 Z M 19.902344 31.085938 L 20.363281 31.085938 L 20.363281 35.789062 L 19.902344 35.789062 Z M 20.753906 31.085938 L 21.21875 31.085938 L 21.21875 35.789062 L 20.753906 35.789062 Z M 21.609375 31.085938 L 22.054688 31.085938 L 22.054688 35.789062 L 21.609375 35.789062 Z M 23.390625 24.101562 L 29.027344 24.101562 L 29.027344 29.746094 L 23.390625 29.746094 Z M 23.859375 24.570312 L 24.304688 24.570312 L 24.304688 29.277344 L 23.859375 29.277344 Z M 24.695312 24.570312 L 25.15625 24.570312 L 25.15625 29.277344 L 24.695312 29.277344 Z M 25.550781 24.570312 L 26.011719 24.570312 L 26.011719 29.277344 L 25.550781 29.277344 Z M 26.402344 24.570312 L 26.867188 24.570312 L 26.867188 29.277344 L 26.402344 29.277344 Z M 27.257812 24.570312 L 27.71875 24.570312 L 27.71875 29.277344 L 27.257812 29.277344 Z M 28.109375 24.570312 L 28.554688 24.570312 L 28.554688 29.277344 L 28.109375 29.277344 Z M 28.109375 24.570312 " fill-opacity="1" fill-rule="evenodd"/><path fill="#34bbde" d="M 23.390625 30.617188 L 29.027344 30.617188 L 29.027344 36.265625 L 23.390625 36.265625 Z M 23.859375 31.085938 L 24.304688 31.085938 L 24.304688 35.789062 L 23.859375 35.789062 Z M 24.695312 31.085938 L 25.160156 31.085938 L 25.160156 35.789062 L 24.695312 35.789062 Z M 25.550781 31.085938 L 26.011719 31.085938 L 26.011719 35.789062 L 25.550781 35.789062 Z M 26.402344 31.085938 L 26.867188 31.085938 L 26.867188 35.789062 L 26.402344 35.789062 Z M 27.257812 31.085938 L 27.71875 31.085938 L 27.71875 35.789062 L 27.257812 35.789062 Z M 28.113281 31.085938 L 28.558594 31.085938 L 28.558594 35.789062 L 28.113281 35.789062 Z M 28.113281 31.085938 " fill-opacity="1" fill-rule="evenodd"/><path fill="#23a3c2" d="M 29.890625 30.617188 L 35.527344 30.617188 L 35.527344 36.265625 L 29.890625 36.265625 Z M 30.363281 31.085938 L 30.804688 31.085938 L 30.804688 35.789062 L 30.363281 35.789062 Z M 31.199219 31.085938 L 31.660156 31.085938 L 31.660156 35.789062 L 31.199219 35.789062 Z M 32.050781 31.085938 L 32.515625 31.085938 L 32.515625 35.789062 L 32.050781 35.789062 Z M 32.90625 31.085938 L 33.367188 31.085938 L 33.367188 35.789062 L 32.910156 35.789062 L 32.910156 31.085938 Z M 33.757812 31.085938 L 34.222656 31.085938 L 34.222656 35.789062 L 33.757812 35.789062 Z M 34.613281 31.085938 L 35.058594 31.085938 L 35.058594 35.789062 L 34.613281 35.789062 Z M 34.613281 31.085938 " fill-opacity="1" fill-rule="evenodd"/><path fill="#34bbde" d="M 29.890625 24.101562 L 35.527344 24.101562 L 35.527344 29.746094 L 29.890625 29.746094 Z M 30.363281 24.570312 L 30.804688 24.570312 L 30.804688 29.277344 L 30.363281 29.277344 Z M 31.199219 24.570312 L 31.660156 24.570312 L 31.660156 29.277344 L 31.199219 29.277344 Z M 32.050781 24.570312 L 32.515625 24.570312 L 32.515625 29.277344 L 32.050781 29.277344 Z M 32.90625 24.570312 L 33.367188 24.570312 L 33.367188 29.277344 L 32.910156 29.277344 L 32.910156 24.570312 Z M 33.757812 24.570312 L 34.222656 24.570312 L 34.222656 29.277344 L 33.757812 29.277344 Z M 34.613281 24.570312 L 35.058594 24.570312 L 35.058594 29.277344 L 34.613281 29.277344 Z M 36.394531 30.617188 L 42.03125 30.617188 L 42.03125 36.265625 L 36.398438 36.265625 L 36.398438 30.617188 Z M 36.863281 31.085938 L 37.308594 31.085938 L 37.308594 35.789062 L 36.867188 35.789062 L 36.867188 31.085938 Z M 37.699219 31.085938 L 38.164062 31.085938 L 38.164062 35.789062 L 37.699219 35.789062 Z M 38.554688 31.085938 L 39.015625 31.085938 L 39.015625 35.789062 L 38.554688 35.789062 Z M 39.410156 31.085938 L 39.871094 31.085938 L 39.871094 35.789062 L 39.410156 35.789062 Z M 40.261719 31.085938 L 40.726562 31.085938 L 40.726562 35.789062 L 40.261719 35.789062 Z M 41.117188 31.085938 L 41.5625 31.085938 L 41.5625 35.789062 L 41.117188 35.789062 Z M 41.117188 31.085938 " fill-opacity="1" fill-rule="evenodd"/><path fill="#23a3c2" d="M 36.394531 24.101562 L 42.03125 24.101562 L 42.03125 29.746094 L 36.394531 29.746094 Z M 36.867188 24.570312 L 37.3125 24.570312 L 37.3125 29.277344 L 36.867188 29.277344 Z M 37.703125 24.570312 L 38.164062 24.570312 L 38.164062 29.277344 L 37.703125 29.277344 Z M 38.554688 24.570312 L 39.019531 24.570312 L 39.019531 29.277344 L 38.554688 29.277344 Z M 39.410156 24.570312 L 39.871094 24.570312 L 39.871094 29.277344 L 39.410156 29.277344 Z M 40.265625 24.570312 L 40.726562 24.570312 L 40.726562 29.277344 L 40.265625 29.277344 Z M 41.117188 24.570312 L 41.5625 24.570312 L 41.5625 29.277344 L 41.117188 29.277344 Z M 41.117188 24.570312 " fill-opacity="1" fill-rule="evenodd"/><path fill="#34bbde" d="M 36.394531 17.582031 L 42.03125 17.582031 L 42.03125 23.230469 L 36.394531 23.230469 Z M 36.867188 18.050781 L 37.3125 18.050781 L 37.3125 22.757812 L 36.867188 22.757812 Z M 37.703125 18.050781 L 38.164062 18.050781 L 38.164062 22.757812 L 37.703125 22.757812 Z M 38.554688 18.050781 L 39.019531 18.050781 L 39.019531 22.757812 L 38.554688 22.757812 Z M 39.410156 18.050781 L 39.871094 18.050781 L 39.871094 22.757812 L 39.410156 22.757812 Z M 40.265625 18.050781 L 40.726562 18.050781 L 40.726562 22.757812 L 40.265625 22.757812 Z M 41.117188 18.050781 L 41.5625 18.050781 L 41.5625 22.757812 L 41.117188 22.757812 Z M 41.117188 18.050781 " fill-opacity="1" fill-rule="evenodd"/><path fill="#23a3c2" d="M 42.898438 30.617188 L 48.535156 30.617188 L 48.535156 36.265625 L 42.898438 36.265625 Z M 43.367188 31.085938 L 43.8125 31.085938 L 43.8125 35.789062 L 43.367188 35.789062 Z M 44.203125 31.085938 L 44.664062 31.085938 L 44.664062 35.789062 L 44.203125 35.789062 Z M 45.058594 31.085938 L 45.519531 31.085938 L 45.519531 35.789062 L 45.058594 35.789062 Z M 45.910156 31.085938 L 46.375 31.085938 L 46.375 35.789062 L 45.910156 35.789062 Z M 46.765625 31.085938 L 47.226562 31.085938 L 47.226562 35.789062 L 46.765625 35.789062 Z M 47.621094 31.085938 L 48.0625 31.085938 L 48.0625 35.789062 L 47.621094 35.789062 Z M 47.621094 31.085938 " fill-opacity="1" fill-rule="evenodd"/><path fill="#d3ecec" d="M 28.671875 45.421875 C 28.882812 45.417969 29.082031 45.457031 29.273438 45.53125 C 29.46875 45.609375 29.636719 45.722656 29.785156 45.871094 C 29.933594 46.015625 30.046875 46.183594 30.128906 46.378906 C 30.210938 46.570312 30.25 46.769531 30.25 46.980469 C 30.25 47.1875 30.210938 47.386719 30.128906 47.578125 C 30.046875 47.773438 29.933594 47.941406 29.785156 48.089844 C 29.636719 48.234375 29.46875 48.347656 29.273438 48.425781 C 29.082031 48.503906 28.882812 48.539062 28.671875 48.535156 C 28.46875 48.535156 28.273438 48.492188 28.085938 48.414062 C 27.894531 48.332031 27.730469 48.21875 27.585938 48.074219 C 27.445312 47.925781 27.332031 47.757812 27.253906 47.570312 C 27.179688 47.378906 27.140625 47.183594 27.140625 46.980469 C 27.140625 46.773438 27.179688 46.578125 27.253906 46.386719 C 27.332031 46.199219 27.445312 46.03125 27.585938 45.882812 C 27.730469 45.738281 27.898438 45.625 28.085938 45.546875 C 28.273438 45.464844 28.46875 45.421875 28.671875 45.421875 " fill-opacity="1" fill-rule="evenodd"/><g clip-path="url(#019bd2b7aa)"><path fill="#364548" d="M 28.671875 45.863281 C 28.8125 45.863281 28.945312 45.886719 29.078125 45.9375 C 28.875 46.054688 28.804688 46.226562 28.867188 46.449219 C 28.925781 46.671875 29.070312 46.785156 29.304688 46.785156 C 29.476562 46.785156 29.625 46.691406 29.703125 46.550781 C 29.761719 46.699219 29.792969 46.851562 29.785156 47.015625 C 29.78125 47.175781 29.742188 47.328125 29.671875 47.472656 C 29.601562 47.613281 29.503906 47.738281 29.378906 47.839844 C 29.257812 47.941406 29.117188 48.015625 28.960938 48.054688 C 28.808594 48.097656 28.652344 48.105469 28.492188 48.078125 C 28.335938 48.054688 28.1875 47.996094 28.054688 47.90625 C 27.921875 47.816406 27.8125 47.703125 27.730469 47.566406 C 27.644531 47.429688 27.589844 47.285156 27.570312 47.125 C 27.550781 46.964844 27.5625 46.808594 27.609375 46.65625 C 27.65625 46.5 27.730469 46.363281 27.835938 46.242188 C 27.941406 46.121094 28.066406 46.027344 28.214844 45.960938 C 28.359375 45.894531 28.511719 45.863281 28.671875 45.863281 M 1.171875 42.191406 L 73.5 42.191406 C 71.925781 41.792969 68.519531 41.25 69.082031 39.183594 C 66.21875 42.503906 59.3125 41.511719 57.566406 39.875 C 55.628906 42.695312 44.328125 41.625 43.539062 39.425781 C 41.105469 42.289062 33.566406 42.289062 31.132812 39.425781 C 30.347656 41.621094 19.046875 42.695312 17.105469 39.875 C 15.363281 41.511719 8.460938 42.503906 5.59375 39.183594 C 6.15625 41.25 2.746094 41.792969 1.171875 42.191406 " fill-opacity="1" fill-rule="evenodd"/></g><path fill="#bdd9d7" d="M 32.808594 56.652344 C 28.957031 54.820312 26.84375 52.332031 25.667969 49.613281 C 24.238281 50.023438 22.519531 50.285156 20.519531 50.398438 C 19.765625 50.4375 18.976562 50.460938 18.144531 50.460938 C 17.1875 50.460938 16.179688 50.433594 15.117188 50.375 C 18.648438 53.910156 22.992188 56.636719 31.039062 56.683594 C 31.632812 56.683594 32.222656 56.675781 32.808594 56.652344 " fill-opacity="1" fill-rule="evenodd"/><path fill="#d3ecec" d="M 27.097656 52.117188 C 26.5625 51.394531 26.042969 50.480469 25.667969 49.609375 C 24.238281 50.019531 22.515625 50.28125 20.519531 50.394531 C 21.890625 51.140625 23.855469 51.832031 27.097656 52.117188 " fill-opacity="1" fill-rule="evenodd"/></svg>