<svg xmlns="http://www.w3.org/2000/svg" xmlns:xlink="http://www.w3.org/1999/xlink" width="100" zoomAndPan="magnify" viewBox="0 0 75 74.999997" height="100" preserveAspectRatio="xMidYMid meet" version="1.0"><defs><clipPath id="16ba59a006"><path d="M 18 1.902344 L 55 1.902344 L 55 72.402344 L 18 72.402344 Z M 18 1.902344 " clip-rule="nonzero"/></clipPath></defs><rect x="-7.5" width="90" fill="rgba(0,0,0,0)" y="-7.5" height="89.999996" fill-opacity="1"/><rect x="-7.5" width="90" fill="rgba(0,0,0,0)" y="-7.5" height="89.999996" fill-opacity="1"/><path fill="#4e7896" d="M 31.449219 39.289062 C 31.449219 39.289062 29.585938 40.417969 32.746094 40.742188 C 36.554688 41.226562 38.582031 41.148438 42.792969 40.339844 C 42.792969 40.339844 43.929688 41.066406 45.46875 41.632812 C 35.988281 45.667969 23.996094 41.390625 31.449219 39.289062 Z M 30.234375 34.039062 C 30.234375 34.039062 28.207031 35.574219 31.367188 35.898438 C 35.5 36.300781 38.742188 36.382812 44.335938 35.253906 C 44.335938 35.253906 45.0625 36.058594 46.277344 36.464844 C 34.851562 39.855469 22.050781 36.785156 30.234375 34.039062 Z M 52.601562 43.246094 C 52.601562 43.246094 53.976562 44.375 51.0625 45.265625 C 45.632812 46.878906 28.289062 47.363281 23.425781 45.265625 C 21.726562 44.539062 24.96875 43.488281 26.019531 43.324219 C 27.074219 43.082031 27.640625 43.082031 27.640625 43.082031 C 25.777344 41.792969 15.242188 45.75 22.292969 46.878906 C 41.660156 50.027344 57.625 45.507812 52.601562 43.246094 Z M 32.34375 28.550781 C 32.34375 28.550781 23.507812 30.648438 29.179688 31.375 C 31.613281 31.699219 36.394531 31.617188 40.851562 31.292969 C 44.496094 30.972656 48.144531 30.324219 48.144531 30.324219 C 48.144531 30.324219 46.847656 30.890625 45.957031 31.457031 C 36.960938 33.796875 19.699219 32.746094 24.644531 30.324219 C 28.855469 28.304688 32.339844 28.546875 32.339844 28.546875 Z M 48.144531 37.351562 C 57.21875 32.667969 53.003906 28.144531 50.089844 28.710938 C 49.359375 28.871094 49.035156 29.035156 49.035156 29.035156 C 49.035156 29.035156 49.277344 28.550781 49.84375 28.386719 C 55.597656 26.367188 60.136719 34.441406 47.980469 37.59375 C 47.980469 37.59375 48.0625 37.511719 48.144531 37.351562 Z M 33.234375 50.109375 C 41.984375 50.675781 55.355469 49.785156 55.679688 45.667969 C 55.679688 45.667969 55.03125 47.28125 48.46875 48.492188 C 41.011719 49.867188 31.773438 49.707031 26.347656 48.816406 C 26.347656 48.816406 27.480469 49.785156 33.234375 50.109375 Z M 33.234375 50.109375 " fill-opacity="1" fill-rule="nonzero"/><g clip-path="url(#16ba59a006)"><path fill="#f58219" d="M 42.632812 1.902344 C 42.632812 1.902344 47.65625 6.988281 37.851562 14.660156 C 29.992188 20.878906 36.070312 24.429688 37.851562 28.46875 C 33.230469 24.351562 29.910156 20.714844 32.179688 17.324219 C 35.5 12.320312 44.660156 9.898438 42.632812 1.902344 Z M 40.039062 25.078125 C 42.390625 27.742188 39.394531 30.164062 39.394531 30.164062 C 39.394531 30.164062 45.390625 27.097656 42.632812 23.300781 C 40.121094 19.667969 38.175781 17.890625 48.710938 11.835938 C 48.710938 11.835938 32.101562 15.953125 40.039062 25.078125 Z M 34.042969 68.4375 L 34.042969 60.523438 C 34.042969 58.507812 32.910156 57.132812 30.074219 57.132812 C 28.453125 57.132812 27.074219 57.535156 25.859375 58.019531 L 26.265625 59.472656 C 27.152344 59.152344 28.289062 58.828125 29.503906 58.828125 C 31.046875 58.828125 31.773438 59.472656 31.773438 60.765625 L 31.773438 61.816406 L 30.964844 61.816406 C 27.074219 61.816406 25.292969 63.269531 25.292969 65.609375 C 25.292969 67.546875 26.507812 68.679688 28.695312 68.679688 C 30.074219 68.679688 31.125 68.03125 32.097656 67.226562 L 32.261719 68.4375 Z M 31.773438 65.855469 C 30.964844 66.582031 30.074219 66.984375 29.261719 66.984375 C 28.207031 66.984375 27.558594 66.339844 27.558594 65.207031 C 27.558594 64.078125 28.207031 63.269531 30.800781 63.269531 L 31.773438 63.269531 Z M 41.660156 68.4375 L 38.824219 68.4375 L 35.421875 57.375 L 37.851562 57.375 L 39.960938 64.160156 L 40.445312 66.175781 C 41.5 63.269531 42.308594 60.28125 42.632812 57.375 L 45.0625 57.375 C 44.414062 61.007812 43.28125 64.964844 41.660156 68.4375 Z M 54.789062 68.4375 L 54.789062 60.523438 C 54.789062 58.507812 53.652344 57.132812 50.816406 57.132812 C 49.195312 57.132812 47.820312 57.535156 46.601562 58.019531 L 46.925781 59.472656 C 47.898438 59.152344 49.035156 58.828125 50.25 58.828125 C 51.789062 58.828125 52.519531 59.472656 52.519531 60.765625 L 52.519531 61.816406 L 51.707031 61.816406 C 47.820312 61.816406 46.035156 63.269531 46.035156 65.609375 C 46.035156 67.546875 47.171875 68.679688 49.359375 68.679688 C 50.816406 68.679688 51.871094 68.03125 52.84375 67.226562 L 53.003906 68.4375 Z M 52.519531 65.855469 C 51.707031 66.582031 50.816406 66.984375 50.007812 66.984375 C 48.953125 66.984375 48.304688 66.339844 48.304688 65.207031 C 48.304688 64.078125 48.953125 63.269531 51.546875 63.269531 L 52.519531 63.269531 Z M 22.78125 70.296875 C 22.132812 71.265625 21.160156 71.992188 19.945312 72.394531 L 18.890625 71.105469 C 19.699219 70.621094 20.511719 69.894531 20.835938 69.246094 C 21.160156 68.679688 21.238281 67.875 21.238281 66.015625 L 21.238281 53.417969 L 23.671875 53.417969 L 23.671875 65.855469 C 23.671875 68.359375 23.429688 69.328125 22.78125 70.296875 Z M 22.78125 70.296875 " fill-opacity="1" fill-rule="nonzero"/></g></svg>