<svg xmlns="http://www.w3.org/2000/svg" xmlns:xlink="http://www.w3.org/1999/xlink" width="100" zoomAndPan="magnify" viewBox="0 0 75 74.999997" height="100" preserveAspectRatio="xMidYMid meet" version="1.0"><defs><clipPath id="38cf900182"><path d="M 0.710938 0.710938 L 74.210938 0.710938 L 74.210938 74.210938 L 0.710938 74.210938 Z M 0.710938 0.710938 " clip-rule="nonzero"/></clipPath></defs><rect x="-7.5" width="90" fill="rgba(0,0,0,0)" y="-7.5" height="89.999996" fill-opacity="1"/><rect x="-7.5" width="90" fill="rgba(0,0,0,0)" y="-7.5" height="89.999996" fill-opacity="1"/><g clip-path="url(#38cf900182)"><path fill="#f03c2e" d="M 72.824219 34.1875 L 40.734375 2.101562 C 40.515625 1.878906 40.277344 1.683594 40.019531 1.511719 C 39.761719 1.339844 39.488281 1.191406 39.199219 1.074219 C 38.914062 0.953125 38.617188 0.863281 38.3125 0.804688 C 38.007812 0.742188 37.699219 0.714844 37.390625 0.714844 C 37.078125 0.714844 36.769531 0.742188 36.464844 0.804688 C 36.160156 0.863281 35.863281 0.953125 35.578125 1.074219 C 35.289062 1.191406 35.019531 1.339844 34.757812 1.511719 C 34.5 1.683594 34.261719 1.878906 34.042969 2.101562 L 27.382812 8.761719 L 35.835938 17.214844 C 37.800781 16.523438 40.050781 16.996094 41.617188 18.5625 C 41.992188 18.933594 42.304688 19.351562 42.558594 19.816406 C 42.816406 20.277344 43 20.765625 43.121094 21.277344 C 43.238281 21.792969 43.28125 22.3125 43.253906 22.839844 C 43.226562 23.367188 43.125 23.878906 42.953125 24.378906 L 51.097656 32.527344 C 53.070312 31.847656 55.34375 32.285156 56.917969 33.863281 C 57.179688 34.125 57.414062 34.410156 57.617188 34.71875 C 57.824219 35.023438 57.996094 35.347656 58.140625 35.691406 C 58.28125 36.03125 58.386719 36.386719 58.460938 36.75 C 58.53125 37.109375 58.566406 37.476562 58.570312 37.847656 C 58.570312 38.21875 58.53125 38.582031 58.460938 38.945312 C 58.386719 39.308594 58.28125 39.660156 58.140625 40.003906 C 57.996094 40.347656 57.824219 40.671875 57.617188 40.976562 C 57.414062 41.285156 57.179688 41.570312 56.917969 41.832031 C 56.65625 42.09375 56.371094 42.328125 56.0625 42.53125 C 55.757812 42.738281 55.429688 42.910156 55.089844 43.054688 C 54.746094 43.195312 54.394531 43.300781 54.03125 43.375 C 53.667969 43.445312 53.304688 43.480469 52.933594 43.480469 C 52.5625 43.480469 52.195312 43.445312 51.832031 43.371094 C 51.46875 43.300781 51.117188 43.191406 50.777344 43.050781 C 50.433594 42.910156 50.109375 42.734375 49.800781 42.53125 C 49.496094 42.324219 49.210938 42.089844 48.949219 41.828125 C 47.296875 40.175781 46.886719 37.742188 47.722656 35.703125 L 40.125 28.105469 L 40.125 48.097656 C 40.679688 48.375 41.175781 48.730469 41.617188 49.164062 C 41.878906 49.425781 42.113281 49.710938 42.316406 50.019531 C 42.523438 50.324219 42.695312 50.652344 42.839844 50.992188 C 42.980469 51.335938 43.085938 51.6875 43.160156 52.050781 C 43.230469 52.410156 43.265625 52.777344 43.265625 53.148438 C 43.265625 53.519531 43.230469 53.882812 43.160156 54.246094 C 43.085938 54.609375 42.980469 54.960938 42.839844 55.304688 C 42.695312 55.644531 42.523438 55.96875 42.316406 56.277344 C 42.113281 56.585938 41.878906 56.867188 41.617188 57.128906 C 41.355469 57.390625 41.070312 57.625 40.765625 57.832031 C 40.457031 58.035156 40.132812 58.210938 39.789062 58.351562 C 39.449219 58.492188 39.097656 58.601562 38.734375 58.671875 C 38.371094 58.746094 38.003906 58.78125 37.636719 58.78125 C 37.265625 58.78125 36.898438 58.746094 36.535156 58.671875 C 36.171875 58.601562 35.820312 58.492188 35.480469 58.351562 C 35.136719 58.210938 34.8125 58.035156 34.503906 57.832031 C 34.199219 57.625 33.914062 57.390625 33.652344 57.128906 C 33.390625 56.871094 33.15625 56.585938 32.949219 56.277344 C 32.746094 55.96875 32.570312 55.644531 32.429688 55.304688 C 32.289062 54.960938 32.179688 54.609375 32.109375 54.246094 C 32.035156 53.882812 32 53.519531 32 53.148438 C 32 52.777344 32.035156 52.410156 32.109375 52.046875 C 32.179688 51.6875 32.289062 51.332031 32.429688 50.992188 C 32.570312 50.648438 32.746094 50.324219 32.949219 50.019531 C 33.15625 49.710938 33.390625 49.425781 33.652344 49.164062 C 34.195312 48.621094 34.800781 48.210938 35.496094 47.9375 L 35.496094 27.757812 C 34.824219 27.480469 34.195312 27.074219 33.652344 26.527344 C 33.257812 26.132812 32.925781 25.6875 32.664062 25.195312 C 32.402344 24.703125 32.214844 24.179688 32.105469 23.632812 C 32 23.085938 31.972656 22.53125 32.03125 21.976562 C 32.085938 21.421875 32.222656 20.882812 32.4375 20.371094 L 24.101562 12.035156 L 2.097656 34.015625 C 1.878906 34.238281 1.679688 34.476562 1.507812 34.734375 C 1.335938 34.992188 1.191406 35.265625 1.070312 35.554688 C 0.953125 35.839844 0.863281 36.136719 0.800781 36.441406 C 0.738281 36.746094 0.710938 37.054688 0.710938 37.363281 C 0.710938 37.675781 0.738281 37.984375 0.800781 38.289062 C 0.863281 38.59375 0.953125 38.890625 1.070312 39.175781 C 1.191406 39.464844 1.335938 39.738281 1.507812 39.996094 C 1.679688 40.253906 1.878906 40.492188 2.097656 40.710938 L 34.1875 72.800781 C 34.410156 73.019531 34.648438 73.214844 34.90625 73.390625 C 35.164062 73.5625 35.4375 73.707031 35.726562 73.828125 C 36.011719 73.945312 36.308594 74.035156 36.613281 74.09375 C 36.917969 74.15625 37.226562 74.1875 37.535156 74.1875 C 37.847656 74.1875 38.15625 74.15625 38.460938 74.09375 C 38.765625 74.035156 39.058594 73.945312 39.347656 73.828125 C 39.632812 73.707031 39.90625 73.5625 40.164062 73.390625 C 40.421875 73.214844 40.664062 73.019531 40.882812 72.800781 L 72.824219 40.90625 C 73.046875 40.6875 73.242188 40.449219 73.414062 40.191406 C 73.585938 39.933594 73.734375 39.660156 73.851562 39.371094 C 73.972656 39.085938 74.0625 38.789062 74.121094 38.484375 C 74.183594 38.179688 74.214844 37.871094 74.214844 37.558594 C 74.214844 37.25 74.183594 36.941406 74.121094 36.636719 C 74.0625 36.332031 73.972656 36.035156 73.851562 35.75 C 73.734375 35.460938 73.585938 35.1875 73.414062 34.929688 C 73.242188 34.671875 73.046875 34.433594 72.824219 34.210938 " fill-opacity="1" fill-rule="nonzero"/></g></svg>