<svg xmlns="http://www.w3.org/2000/svg" xmlns:xlink="http://www.w3.org/1999/xlink" width="100" zoomAndPan="magnify" viewBox="0 0 75 74.999997" height="100" preserveAspectRatio="xMidYMid meet" version="1.0"><defs><clipPath id="dd80df85e8"><path d="M 54 2 L 73.605469 2 L 73.605469 73 L 54 73 Z M 54 2 " clip-rule="nonzero"/></clipPath><clipPath id="a32bfe6065"><path d="M 1.605469 1 L 56 1 L 56 56 L 1.605469 56 Z M 1.605469 1 " clip-rule="nonzero"/></clipPath><clipPath id="4eb1638097"><path d="M 1.605469 19 L 56 19 L 56 73 L 1.605469 73 Z M 1.605469 19 " clip-rule="nonzero"/></clipPath></defs><rect x="-7.5" width="90" fill="rgba(0,0,0,0)" y="-7.5" height="89.999996" fill-opacity="1"/><rect x="-7.5" width="90" fill="rgba(0,0,0,0)" y="-7.5" height="89.999996" fill-opacity="1"/><rect x="-7.5" width="90" fill="rgba(0,0,0,0)" y="-7.5" height="89.999996" fill-opacity="1"/><g clip-path="url(#dd80df85e8)"><path fill="#29b6f6" d="M 73.605469 14.457031 L 73.605469 60.414062 C 73.605469 62.675781 72.191406 64.691406 70.058594 65.441406 L 54.261719 72.820312 L 55.695312 53.476562 L 55.695312 21.390625 L 54.261719 2.046875 L 70.058594 9.429688 C 72.191406 10.175781 73.605469 12.191406 73.605469 14.457031 Z M 73.605469 14.457031 " fill-opacity="1" fill-rule="nonzero"/></g><g clip-path="url(#a32bfe6065)"><path fill="#0277bd" d="M 10.917969 55.074219 L 55.695312 21.390625 L 55.695312 4.191406 C 55.695312 2.058594 53.039062 1.058594 51.621094 2.660156 L 3.140625 46.773438 C 1.53125 48.253906 1.621094 50.816406 3.332031 52.179688 C 3.332031 52.179688 5.703125 54.375 6.5625 54.984375 C 7.878906 55.921875 9.613281 56.027344 10.917969 55.074219 Z M 10.917969 55.074219 " fill-opacity="1" fill-rule="nonzero"/></g><g clip-path="url(#4eb1638097)"><path fill="#0288d1" d="M 10.917969 19.792969 L 55.695312 53.476562 L 55.695312 70.675781 C 55.695312 72.8125 53.039062 73.808594 51.621094 72.207031 L 3.140625 28.09375 C 1.53125 26.613281 1.621094 24.054688 3.332031 22.691406 C 3.332031 22.691406 5.703125 20.492188 6.5625 19.882812 C 7.878906 18.949219 9.613281 18.839844 10.917969 19.792969 Z M 10.917969 19.792969 " fill-opacity="1" fill-rule="nonzero"/></g></svg>