<svg xmlns="http://www.w3.org/2000/svg" xmlns:xlink="http://www.w3.org/1999/xlink" width="100" zoomAndPan="magnify" viewBox="0 0 75 74.999997" height="100" preserveAspectRatio="xMidYMid meet" version="1.0">
    <defs>
        <clipPath id="2f963a3cf7"><path d="M 2.476562 2 L 72.976562 2 L 72.976562 72 L 2.476562 72 Z M 2.476562 2 " clip-rule="nonzero"/></clipPath>
    </defs>
    <rect x="-7.5" width="90" fill="rgba(0,0,0,0)" y="-7.5" height="89.999996" fill-opacity="1"/>
    <rect x="-7.5" width="90" fill="rgba(0,0,0,0)" y="-7.5" height="89.999996" fill-opacity="1"/>
    <rect x="-7.5" width="90" fill="rgba(0,0,0,0)" y="-7.5" height="89.999996" fill-opacity="1"/>
    <g clip-path="url(#2f963a3cf7)">
        <path fill="#000000" d="M 37.726562 2.539062 C 18.257812 2.539062 2.476562 18.320312 2.476562 37.789062 C 2.476562 54.304688 13.847656 68.125 29.183594 71.949219 C 29.019531 71.476562 28.914062 70.921875 28.914062 70.238281 L 28.914062 64.214844 C 27.480469 64.214844 25.085938 64.214844 24.484375 64.214844 C 22.070312 64.214844 19.925781 63.175781 18.886719 61.25 C 17.730469 59.109375 17.53125 55.832031 14.671875 53.828125 C 13.824219 53.164062 14.46875 52.402344 15.445312 52.503906 C 17.253906 53.015625 18.75 54.253906 20.160156 56.09375 C 21.566406 57.9375 22.226562 58.351562 24.851562 58.351562 C 26.121094 58.351562 28.023438 58.28125 29.816406 57.996094 C 30.78125 55.550781 32.445312 53.296875 34.480469 52.234375 C 22.742188 51.027344 17.140625 45.1875 17.140625 37.257812 C 17.140625 33.84375 18.597656 30.542969 21.066406 27.761719 C 20.253906 25 19.238281 19.371094 21.378906 17.226562 C 26.660156 17.226562 29.851562 20.648438 30.621094 21.574219 C 33.25 20.671875 36.140625 20.164062 39.179688 20.164062 C 42.222656 20.164062 45.125 20.671875 47.761719 21.582031 C 48.519531 20.660156 51.714844 17.226562 57.007812 17.226562 C 59.160156 19.371094 58.128906 25.027344 57.308594 27.78125 C 59.765625 30.558594 61.210938 33.851562 61.210938 37.257812 C 61.210938 45.179688 55.617188 51.019531 43.898438 52.230469 C 47.121094 53.914062 49.476562 58.644531 49.476562 62.207031 L 49.476562 70.238281 C 49.476562 70.542969 49.40625 70.765625 49.371094 71.023438 C 63.109375 66.210938 72.976562 53.167969 72.976562 37.789062 C 72.976562 18.320312 57.191406 2.539062 37.726562 2.539062 Z M 37.726562 2.539062 " fill-opacity="1" fill-rule="nonzero"/>
    </g>
</svg>