<svg xmlns="http://www.w3.org/2000/svg" xmlns:xlink="http://www.w3.org/1999/xlink" width="100" zoomAndPan="magnify" viewBox="0 0 75 74.999997" height="100" preserveAspectRatio="xMidYMid meet" version="1.0">
    <defs>
        <clipPath id="a994ca7495">
            <path d="M 6.066406 1.632812 L 69.066406 1.632812 L 69.066406 73.632812 L 6.066406 73.632812 Z M 6.066406 1.632812 " clip-rule="nonzero"/>
        </clipPath>
    </defs>
        <rect x="-7.5" width="90" fill="rgba(0,0,0,0)" y="-7.5" height="89.999996" fill-opacity="1"/>
        <rect x="-7.5" width="90" fill="rgba(0,0,0,0)" y="-7.5" height="89.999996" fill-opacity="1"/>
        <rect x="-7.5" width="90" fill="rgba(0,0,0,0)" y="-7.5" height="89.999996" fill-opacity="1"/>
        <g clip-path="url(#a994ca7495)">
            <path fill="#e44d26" d="M 11.789062 66.277344 L 6.050781 1.835938 L 69.085938 1.835938 L 63.34375 66.269531 L 37.527344 73.433594 Z M 11.789062 66.277344 " fill-opacity="1" fill-rule="nonzero"/>
        </g>
            <path fill="#f16529" d="M 58.425781 62.164062 L 63.335938 7.105469 L 37.566406 7.105469 L 37.566406 67.957031 Z M 58.425781 62.164062 " fill-opacity="1" fill-rule="nonzero"/>
            <path fill="#ebebeb" d="M 37.542969 15.007812 L 17.777344 15.007812 L 19.90625 38.910156 L 37.566406 38.910156 L 37.566406 31.007812 L 27.125 31.007812 L 26.40625 22.914062 L 37.566406 22.914062 L 37.566406 15.007812 Z M 37.566406 51.507812 L 37.535156 51.515625 L 28.746094 49.140625 L 28.1875 42.835938 L 20.261719 42.835938 L 21.367188 55.246094 L 37.53125 59.71875 L 37.566406 59.707031 Z M 37.566406 51.507812 " fill-opacity="1" fill-rule="nonzero"/>
            <path fill="#ffffff" d="M 37.542969 38.910156 L 47.257812 38.910156 L 46.367188 49.15625 L 37.5625 51.535156 L 37.5625 59.757812 L 53.742188 55.265625 L 55.910156 31.003906 L 37.566406 31.003906 Z M 57.121094 17.128906 L 57.308594 15.007812 L 37.535156 15.007812 L 37.535156 22.910156 L 56.597656 22.910156 L 56.753906 21.136719 Z M 57.121094 17.128906 " fill-opacity="1" fill-rule="nonzero"/>
        </svg>