<svg xmlns="http://www.w3.org/2000/svg" xmlns:xlink="http://www.w3.org/1999/xlink" width="100" zoomAndPan="magnify" viewBox="0 0 75 74.999997" height="100" preserveAspectRatio="xMidYMid meet" version="1.0"><defs><clipPath id="0b9da38a3b"><path d="M 1.125 1.125 L 73.875 1.125 L 73.875 73.875 L 1.125 73.875 Z M 1.125 1.125 " clip-rule="nonzero"/></clipPath></defs><rect x="-7.5" width="90" fill="#ffffff" y="-7.5" height="89.999996" fill-opacity="1"/><rect x="-7.5" width="90" fill="#ffffff" y="-7.5" height="89.999996" fill-opacity="1"/><g clip-path="url(#0b9da38a3b)"><path fill="#0177b5" d="M 68.488281 1.128906 L 6.496094 1.128906 C 3.535156 1.128906 1.125 3.476562 1.125 6.367188 L 1.125 68.625 C 1.125 71.523438 3.535156 73.875 6.496094 73.875 L 68.492188 73.875 C 71.457031 73.875 73.875 71.523438 73.875 68.625 L 73.875 6.367188 C 73.875 3.476562 71.457031 1.128906 68.488281 1.128906 Z M 68.488281 1.128906 " fill-opacity="1" fill-rule="nonzero"/></g><path fill="#ffffff" d="M 11.914062 28.398438 L 22.722656 28.398438 L 22.722656 63.113281 L 11.914062 63.113281 Z M 17.308594 11.121094 C 20.757812 11.121094 23.5625 13.925781 23.5625 17.375 C 23.5625 20.820312 20.757812 23.632812 17.3125 23.632812 C 16.902344 23.632812 16.496094 23.589844 16.089844 23.507812 C 15.6875 23.429688 15.296875 23.308594 14.917969 23.152344 C 14.539062 22.996094 14.179688 22.800781 13.835938 22.574219 C 13.496094 22.34375 13.179688 22.085938 12.890625 21.796875 C 12.597656 21.503906 12.339844 21.1875 12.109375 20.847656 C 11.882812 20.507812 11.6875 20.144531 11.53125 19.765625 C 11.375 19.386719 11.253906 18.996094 11.171875 18.59375 C 11.09375 18.191406 11.050781 17.785156 11.050781 17.375 C 11.050781 16.960938 11.089844 16.554688 11.171875 16.152344 C 11.25 15.75 11.371094 15.359375 11.527344 14.980469 C 11.683594 14.601562 11.878906 14.238281 12.105469 13.898438 C 12.335938 13.554688 12.59375 13.242188 12.882812 12.949219 C 13.175781 12.660156 13.492188 12.402344 13.832031 12.171875 C 14.175781 11.945312 14.535156 11.753906 14.914062 11.59375 C 15.292969 11.4375 15.6875 11.320312 16.089844 11.242188 C 16.492188 11.160156 16.898438 11.121094 17.308594 11.121094 M 29.472656 28.398438 L 39.820312 28.398438 L 39.820312 33.144531 L 39.964844 33.144531 C 41.40625 30.414062 44.925781 27.539062 50.195312 27.539062 C 61.121094 27.539062 63.136719 34.730469 63.136719 44.074219 L 63.136719 63.117188 L 52.355469 63.117188 L 52.355469 46.230469 C 52.355469 42.207031 52.28125 37.023438 46.75 37.023438 C 41.132812 37.023438 40.269531 41.410156 40.269531 45.933594 L 40.269531 63.109375 L 29.488281 63.109375 L 29.488281 28.394531 Z M 29.472656 28.398438 " fill-opacity="1" fill-rule="nonzero"/></svg>