<svg xmlns="http://www.w3.org/2000/svg" xmlns:xlink="http://www.w3.org/1999/xlink" width="100" zoomAndPan="magnify" viewBox="0 0 75 74.999997" height="100" preserveAspectRatio="xMidYMid meet" version="1.0"><defs><clipPath id="01d90fa509"><path d="M 15.019531 49 L 38 49 L 38 72.386719 L 15.019531 72.386719 Z M 15.019531 49 " clip-rule="nonzero"/></clipPath><clipPath id="fd0b725502"><path d="M 15.019531 27 L 38 27 L 38 50 L 15.019531 50 Z M 15.019531 27 " clip-rule="nonzero"/></clipPath><clipPath id="33549d93bf"><path d="M 15.019531 4 L 38 4 L 38 28 L 15.019531 28 Z M 15.019531 4 " clip-rule="nonzero"/></clipPath><clipPath id="d19c13d617"><path d="M 37 4 L 60.019531 4 L 60.019531 28 L 37 28 Z M 37 4 " clip-rule="nonzero"/></clipPath><clipPath id="0d05309b4a"><path d="M 37 27 L 60.019531 27 L 60.019531 50 L 37 50 Z M 37 27 " clip-rule="nonzero"/></clipPath></defs><rect x="-7.5" width="90" fill="rgba(0,0,0,0)" y="-7.5" height="89.999996" fill-opacity="1"/><rect x="-7.5" width="90" fill="rgba(0,0,0,0)" y="-7.5" height="89.999996" fill-opacity="1"/><rect x="-7.5" width="90" fill="rgba(0,0,0,0)" y="-7.5" height="89.999996" fill-opacity="1"/><g clip-path="url(#01d90fa509)"><path fill="#0acf83" d="M 26.136719 72.453125 C 26.878906 72.453125 27.613281 72.378906 28.339844 72.234375 C 29.066406 72.089844 29.773438 71.875 30.457031 71.589844 C 31.144531 71.308594 31.796875 70.960938 32.410156 70.546875 C 33.027344 70.132812 33.597656 69.667969 34.121094 69.140625 C 34.648438 68.617188 35.117188 68.046875 35.527344 67.429688 C 35.941406 66.8125 36.289062 66.160156 36.570312 65.476562 C 36.855469 64.789062 37.070312 64.082031 37.214844 63.355469 C 37.359375 62.628906 37.429688 61.894531 37.429688 61.152344 L 37.429688 49.851562 L 26.136719 49.851562 C 25.394531 49.851562 24.660156 49.921875 23.933594 50.066406 C 23.207031 50.210938 22.5 50.425781 21.816406 50.710938 C 21.128906 50.992188 20.480469 51.34375 19.863281 51.753906 C 19.246094 52.167969 18.675781 52.636719 18.152344 53.160156 C 17.625 53.683594 17.15625 54.253906 16.746094 54.871094 C 16.335938 55.488281 15.984375 56.140625 15.703125 56.824219 C 15.417969 57.511719 15.203125 58.21875 15.058594 58.945312 C 14.914062 59.671875 14.84375 60.410156 14.84375 61.152344 C 14.84375 61.894531 14.914062 62.628906 15.058594 63.355469 C 15.203125 64.082031 15.417969 64.789062 15.703125 65.476562 C 15.984375 66.160156 16.335938 66.8125 16.746094 67.429688 C 17.15625 68.046875 17.625 68.617188 18.152344 69.140625 C 18.675781 69.667969 19.246094 70.132812 19.863281 70.546875 C 20.480469 70.960938 21.128906 71.308594 21.816406 71.589844 C 22.5 71.875 23.207031 72.089844 23.933594 72.234375 C 24.660156 72.378906 25.394531 72.453125 26.136719 72.453125 Z M 26.136719 72.453125 " fill-opacity="1" fill-rule="nonzero"/></g><g clip-path="url(#fd0b725502)"><path fill="#a259ff" d="M 14.84375 38.550781 C 14.84375 37.808594 14.914062 37.074219 15.058594 36.34375 C 15.203125 35.617188 15.417969 34.910156 15.703125 34.222656 C 15.984375 33.539062 16.335938 32.886719 16.746094 32.269531 C 17.15625 31.652344 17.625 31.082031 18.152344 30.558594 C 18.675781 30.035156 19.246094 29.566406 19.863281 29.152344 C 20.480469 28.742188 21.128906 28.394531 21.816406 28.109375 C 22.5 27.824219 23.207031 27.609375 23.933594 27.464844 C 24.660156 27.320312 25.394531 27.25 26.136719 27.25 L 37.429688 27.25 L 37.429688 49.851562 L 26.136719 49.851562 C 25.394531 49.851562 24.660156 49.777344 23.933594 49.632812 C 23.207031 49.488281 22.5 49.273438 21.816406 48.988281 C 21.128906 48.707031 20.480469 48.359375 19.863281 47.945312 C 19.246094 47.53125 18.675781 47.066406 18.152344 46.539062 C 17.625 46.015625 17.15625 45.445312 16.746094 44.828125 C 16.335938 44.210938 15.984375 43.558594 15.703125 42.875 C 15.417969 42.1875 15.203125 41.480469 15.058594 40.753906 C 14.914062 40.027344 14.84375 39.292969 14.84375 38.550781 Z M 14.84375 38.550781 " fill-opacity="1" fill-rule="nonzero"/></g><g clip-path="url(#33549d93bf)"><path fill="#f24e1e" d="M 14.84375 15.949219 C 14.84375 15.207031 14.914062 14.472656 15.058594 13.742188 C 15.203125 13.015625 15.417969 12.308594 15.703125 11.625 C 15.984375 10.941406 16.332031 10.289062 16.746094 9.671875 C 17.15625 9.054688 17.625 8.484375 18.148438 7.960938 C 18.671875 7.433594 19.242188 6.96875 19.859375 6.554688 C 20.472656 6.140625 21.125 5.792969 21.808594 5.507812 C 22.492188 5.226562 23.199219 5.011719 23.925781 4.867188 C 24.652344 4.71875 25.386719 4.648438 26.128906 4.648438 L 37.421875 4.648438 L 37.421875 27.25 L 26.136719 27.25 C 25.394531 27.25 24.660156 27.175781 23.933594 27.03125 C 23.207031 26.886719 22.5 26.671875 21.816406 26.386719 C 21.128906 26.105469 20.480469 25.757812 19.863281 25.34375 C 19.246094 24.933594 18.675781 24.464844 18.152344 23.9375 C 17.625 23.414062 17.15625 22.84375 16.746094 22.226562 C 16.335938 21.609375 15.984375 20.957031 15.703125 20.273438 C 15.417969 19.585938 15.203125 18.878906 15.058594 18.152344 C 14.914062 17.425781 14.84375 16.691406 14.84375 15.949219 Z M 14.84375 15.949219 " fill-opacity="1" fill-rule="nonzero"/></g><g clip-path="url(#d19c13d617)"><path fill="#ff7262" d="M 37.429688 4.648438 L 48.726562 4.648438 C 49.464844 4.648438 50.199219 4.71875 50.929688 4.863281 C 51.65625 5.007812 52.363281 5.222656 53.046875 5.507812 C 53.730469 5.792969 54.382812 6.140625 55 6.550781 C 55.617188 6.964844 56.1875 7.433594 56.710938 7.957031 C 57.234375 8.480469 57.703125 9.050781 58.117188 9.667969 C 58.527344 10.285156 58.875 10.9375 59.160156 11.625 C 59.441406 12.308594 59.65625 13.015625 59.800781 13.742188 C 59.945312 14.472656 60.019531 15.207031 60.019531 15.949219 C 60.019531 16.691406 59.945312 17.425781 59.800781 18.152344 C 59.65625 18.878906 59.441406 19.585938 59.160156 20.273438 C 58.875 20.957031 58.527344 21.609375 58.117188 22.226562 C 57.703125 22.84375 57.234375 23.414062 56.710938 23.9375 C 56.1875 24.464844 55.617188 24.933594 55 25.34375 C 54.382812 25.757812 53.730469 26.105469 53.046875 26.386719 C 52.363281 26.671875 51.65625 26.886719 50.929688 27.03125 C 50.199219 27.175781 49.464844 27.25 48.726562 27.25 L 37.429688 27.25 Z M 37.429688 4.648438 " fill-opacity="1" fill-rule="nonzero"/></g><g clip-path="url(#0d05309b4a)"><path fill="#1abcfe" d="M 60.019531 38.550781 C 60.019531 39.292969 59.945312 40.027344 59.800781 40.753906 C 59.65625 41.480469 59.441406 42.1875 59.160156 42.875 C 58.875 43.558594 58.527344 44.210938 58.117188 44.828125 C 57.703125 45.445312 57.234375 46.015625 56.710938 46.539062 C 56.1875 47.066406 55.617188 47.53125 55 47.945312 C 54.382812 48.359375 53.730469 48.707031 53.046875 48.988281 C 52.363281 49.273438 51.65625 49.488281 50.929688 49.632812 C 50.199219 49.777344 49.464844 49.851562 48.726562 49.851562 C 47.984375 49.851562 47.25 49.777344 46.523438 49.632812 C 45.792969 49.488281 45.089844 49.273438 44.402344 48.988281 C 43.71875 48.707031 43.066406 48.359375 42.449219 47.945312 C 41.832031 47.53125 41.261719 47.066406 40.738281 46.539062 C 40.214844 46.015625 39.746094 45.445312 39.335938 44.828125 C 38.921875 44.210938 38.574219 43.558594 38.289062 42.875 C 38.007812 42.1875 37.792969 41.480469 37.648438 40.753906 C 37.503906 40.027344 37.429688 39.292969 37.429688 38.550781 C 37.429688 37.808594 37.503906 37.074219 37.648438 36.34375 C 37.792969 35.617188 38.007812 34.910156 38.289062 34.222656 C 38.574219 33.539062 38.921875 32.886719 39.335938 32.269531 C 39.746094 31.652344 40.214844 31.082031 40.738281 30.558594 C 41.261719 30.035156 41.832031 29.566406 42.449219 29.152344 C 43.066406 28.742188 43.71875 28.394531 44.402344 28.109375 C 45.089844 27.824219 45.792969 27.609375 46.523438 27.464844 C 47.25 27.320312 47.984375 27.25 48.726562 27.25 C 49.464844 27.25 50.199219 27.320312 50.929688 27.464844 C 51.65625 27.609375 52.363281 27.824219 53.046875 28.109375 C 53.730469 28.394531 54.382812 28.742188 55 29.152344 C 55.617188 29.566406 56.1875 30.035156 56.710938 30.558594 C 57.234375 31.082031 57.703125 31.652344 58.117188 32.269531 C 58.527344 32.886719 58.875 33.539062 59.160156 34.222656 C 59.441406 34.910156 59.65625 35.617188 59.800781 36.34375 C 59.945312 37.074219 60.019531 37.808594 60.019531 38.550781 Z M 60.019531 38.550781 " fill-opacity="1" fill-rule="nonzero"/></g></svg>